<?xml version="1.0" encoding="utf-8"?>
<!-- Generator: Adobe Illustrator 18.1.1, SVG Export Plug-In . SVG Version: 6.00 Build 0)  -->
<!DOCTYPE svg PUBLIC "-//W3C//DTD SVG 1.1//EN" "http://www.w3.org/Graphics/SVG/1.1/DTD/svg11.dtd">
<svg version="1.1" id="Layer_1" xmlns="http://www.w3.org/2000/svg" xmlns:xlink="http://www.w3.org/1999/xlink" x="0px" y="0px"
	 viewBox="0 0 1224 792" enable-background="new 0 0 1224 792" xml:space="preserve">
<g>
	<path stroke="#000000" stroke-miterlimit="10" d="M952.5,11.8C977,78.5,969.8,141.4,931,199.7c6.6,2.9,12.9,5.5,19.3,8
		c-0.3,0.9-0.3,1.7-0.6,2.6c-7.5-3.4-13.8-1.4-18.4,4.3c-16.1,20.1-25.9,42.2-20.4,68.4c2,9.5,6.9,19.3,13.2,26.4
		c40.5,47.7,41.4,99.7,19,154.6c-4,9.8-9.5,19.3-14.7,29.9c16.7-7.8,29-18.7,39.4-32.2c-8.9,37.9-31.3,64.9-67.5,83.3
		c14.1,2,26.4,4.6,37.4,13.2c-6.6,0.6-12.4,0.6-18.1,2c-20.1,4.3-36.2,15.8-50.6,29.9c-14.1,14.1-27,29.3-41.1,43.1
		c-8,7.8-17.5,13.8-26.4,20.7c-1.7,1.4-4,3.4-4,4.9c0.3,6.3-3.2,10.6-8,13.5c-17,9.8-33.3,20.4-51.2,28.7c-19,8.9-37.6,17.5-52.3,33
		c-9.2,9.5-22.1,12.9-34.8,16.1c-9.2,2.6-18.4,5.2-27.6,8c-8,2.6-14.1,6.9-15.2,16.1c0,1.1-0.9,2-2.3,2.9
		c-1.7-15.2-13.2-18.4-24.1-21.8c-9.8-3.2-19.8-5.2-29.6-8c-13.2-4-24.7-10.1-32.5-21.8c-0.3,0-0.6-0.3-0.6,0
		c-0.3,0.9-0.6,1.7-1.4,3.2c-14.4-15.2-33.9-21-51.4-29.9c-16.1-8-31.3-17.5-46.3-27c-3.4-2.3-4.9-8-7.5-12.4
		c-0.9-1.7-1.4-4-2.9-4.9c-19-10.6-32.8-26.7-47.7-42c-13.5-13.8-27.3-27.6-42.2-39.7c-13.2-10.6-29-15.5-48.3-14.1
		c11.5-9.5,23.9-12.4,38.5-14.1c-36.2-18.4-58.9-45.7-67.8-83.6c10.6,13.2,22.7,24.7,37.6,31.3c-6.9-16.4-15.2-32.8-20.4-49.7
		c-10.9-35.3-10.6-71,6.6-104.6c4.9-9.5,11.2-18.4,18.1-26.4c17.5-20.4,20.4-42.8,11.2-67c-3.7-10.1-9.5-19.3-15.2-28.2
		c-4.3-6.9-10.9-10.9-21-6.3c5.5-7.8,12.4-9.2,20.7-9.5C239.9,142,233.2,78.5,257.1,12.1c0,0,1.7,0.3,2,0.9
		c19.3,33.6,48.6,55.8,83.3,70.4c16.1,6.6,33,11.2,50,15.2c39.9,8.9,72.1,29.9,97.7,61.2c4,5.2,7.5,5.5,13.2,3.2
		c37.9-15.2,76.4-26.2,118.1-21c30.2,3.7,59.2,10.9,87.6,21.3c3.4,1.1,5.7,2,8.6-1.4c28.4-36.2,65.8-57.2,110.9-66.1
		c36.8-7.5,69.8-23.6,96.6-50.6c9.5-9.8,17-21.6,25.6-32.2C951.1,12.4,952,12.1,952.5,11.8z M376.4,375.6c3.4,3.4,7.2,6.6,10.6,10.1
		c8,7.8,18.7,8.3,27.6,9.2c2.3,11.5,4.3,22.1,6,31.6c-6.6-4.9-13.5-10.9-21.3-16.4c-23.6-16.1-50.9-26.4-70.4-48.6
		c0,1.4,0.3,2.6,0.6,3.7c8.6,24.1,23,44.5,40.8,62.6c26.2,26.7,57.5,45.7,90.2,62.9c12.9,6.9,26.2,13.5,39.4,20.1
		c-58.6-4.6-112.7-23.3-163.2-52.6c42.8,51.2,101.7,63.5,163.5,69.5c-54.3,10.9-105.2,2.3-154-26.4c2.3,13.2,10.3,20.1,19.5,25.6
		c36.2,21.8,75.6,31.6,117.8,28.7c8.9-0.6,17.8-2,27-2.9c-51.2,18.1-102.6,18.4-155.5,2.3c5.7,14.7,16.7,22.7,29.6,27.3
		c42,14.9,82.8,10.9,122.7-7.5c2.3-1.1,4.6-2,6.6-3.2c-2.9,4.6-6.3,8.3-10.3,11.2c-15.8,11.5-34.2,15.5-53.2,18.1
		c-16.1,2.3-32.2,4.3-48.3,7.2c-9.8,1.7-12.9,8.3-9.8,17.8c3.7,11.2,12.4,18.4,19,24.4c8.6-8.3,15.2-17.5,24.1-23
		c11.5-6.9,24.4-12.1,37.4-16.1c23.9-7.5,48.9-11.8,67.5-31.9c1.7,11.2-1.7,19.5-8.3,26.7c-8.3,9.2-19.5,13.2-31.3,16.7
		c-9.8,2.6-19.5,4.9-28.7,8.3c-8,2.9-14.7,8.3-18.1,16.4c-3.2,7.2-1.7,16.4,3.2,21.6s12.9,6.9,20.7,2.3c6.6-3.7,12.1-9.2,17.8-14.1
		s10.9-10.9,17.2-15.2c4.3-3.2,9.8-4.3,14.9-6c0.3,0.6,0.6,1.4,0.9,2c-1.7,1.4-3.4,2.9-5.5,4.3c-12.9,10.3-23.6,22.4-31.3,37.1
		c-1.7,3.4-3.2,7.8-2.9,11.5c0.3,3.2,2.9,7.8,5.5,8.9c2.6,1.1,7.5-0.9,9.8-2.9c3.4-3.2,5.5-7.8,8.3-11.8
		c5.7-7.8,12.6-14.4,22.1-17.5c-8.3,12.6-14.7,25.9-15.2,41.4c2.9-4.3,5.7-8.6,9.2-13.5c0.3,2,0.6,2.9,0.6,3.7
		c0,8.9,1.7,18.1,10.3,22.1c8.3,4,17-0.3,24.1-4.9c10.3-6.6,17-16.7,22.4-27.6c2.6-5.2,4.6-10.3,7.5-16.4
		c10.3,11.8,17.8-2.6,25.6-2.6c0,6.3-0.9,12.4,0.3,17.8c2,9.5,8,16.7,16.1,22.1c9.5,6.3,20.4,9.2,31.9,9.5c8.6,0,12.1-2.3,13.8-10.9
		c0.9-3.7,0.9-7.8,1.4-12.6c2,2.6,3.7,4.3,5.2,6c0.6-0.3,1.1-0.9,2-1.1c-5.5-11.5-10.9-22.7-16.4-34.2c10.3,4.6,18.4,12.1,24.4,21.8
		c2,3.2,3.4,6.6,6,8.9c2.3,2,6.3,4,8.6,3.2c2.9-0.9,6.3-4.6,6.6-7.2c0.3-4.6-0.9-10.1-2.9-14.1c-7.8-14.9-19-27-32.2-37.4
		c-1.4-1.1-2.9-2.6-4.3-3.7c0.6-0.9,0.9-1.4,1.4-2.3c5.7,2.9,12.4,4.9,17.2,8.6c6.9,5.5,12.6,12.4,19.5,18.1c4.6,4,9.8,8,15.5,10.1
		c12.4,4.6,23.3-3.7,23-17.2c-0.3-7.8-3.7-14.1-10.1-18.1c-6.3-4-13.5-7.5-20.4-9.8c-7.8-2.6-15.8-3.7-23.6-6
		c-12.6-3.7-24.1-9.8-30.7-21.8c-3.2-5.7-5.5-11.8-2.9-19.5c11.8,12.9,26.2,19.5,41.7,24.4c8.6,2.6,17.5,4.9,26.2,7.5
		c23.6,7.2,46.3,15.8,58.9,40.5c8.6-7.8,17-14.9,20.4-26.2c2.9-9.5,0-15.5-9.8-17.5c-11.8-2.6-24.1-4-36.2-5.7
		c-18.4-2.3-36.8-4-53.5-12.9c-8-4.3-15.2-10.1-22.7-15.2c0.6-0.6,0.9-1.4,1.4-2c8.9,3.4,17.8,7.8,27,10.6
		c35.1,10.9,70.1,12.1,104.6-2c11.8-4.9,21.3-12.4,26.4-26.2c-26.4,8-52.3,12.1-78.7,11.8c-26.2-0.3-64.4-7.2-76.4-14.1
		c0.9,0,1.7,0,2.3,0c32.2,6.3,63.8,4.6,95.1-4.6c20.1-6,39.4-13.8,55.8-27.3c5.7-4.6,10.3-10.3,10.9-19.3
		c-48.6,28.4-99.7,37.4-153.7,26.2c62.1-6,121-18.4,163.5-69.3c-10.3,4.6-20.4,10.6-30.5,15.5c-10.6,5.2-21.3,9.8-32.2,14.1
		c-10.6,4-21.6,7.8-32.5,10.9c-11.2,3.2-22.7,6-34.2,8.3c-10.9,2.3-22.1,3.4-33,5.2c19.3-11.5,39.1-21.6,58-32.2
		c35.6-20.1,68.7-44,92.2-78.2c8.6-12.4,15.8-25.3,20.4-40.2c-8,6.6-15.5,13.8-23.6,19.5c-22.7,15.8-49.1,26.4-68.1,45.7
		c3.2-10.9,6.3-22.1,9.5-33.9c12.1,0.3,25.3-3.2,34.2-13.5c10.9-12.6,25.3-21,37.4-31.9c3.4-3.2,6.6-7.2,9.8-10.3
		c7.5-7.5,8.6-16.1,8.6-26.2c-0.3-20.1-1.1-40.2,1.1-60.1c2.6-21.8,12.9-39.9,35.1-48.9c2.3-0.9,4.3-3.4,6-5.7
		c21-30.5,32.2-64.4,34.2-101.4c1.4-25.3-2.3-49.7-11.2-73.9c-4.3,10.3-7.8,20.7-12.6,30.2c-15.2,29.6-38.2,52.9-65.2,71.6
		c-27.9,19.3-56.9,37.1-86.2,54.3c-48.6,28.7-87.4,66.4-113.2,117c-5.2,10.1-11.2,19.5-16.4,29.6c-5.2,10.1-10.6,20.4-14.9,31
		c-4.3,10.1-7.2,20.4-10.9,31c5.5-67,24.7-129,56.6-188.2c-4,4-8.3,8-12.1,11.5c-0.9-5.7-1.4-12.4-3.2-18.4c-0.9-2.9-3.7-6.6-6-6.9
		c-2.9-0.3-7.5,1.7-8.9,4c-4.6,7.8-9.5,15.5-12.4,24.1c-3.7,11.8-6,23.9-8.6,35.3c-0.6-12.1-0.6-24.7-2-37.4
		c-1.1-9.8-2.9-19.8-6-29.3c-1.4-3.7-7.2-8-11.2-8c-3.2,0-7.2,5.2-9.8,8.9c-2.3,3.4-3.7,7.8-4.3,12.1c-2.6,20.1-5.5,40.2-7.2,60.3
		c-0.9,11.2-0.3,22.4-0.3,33.6c-0.9,0-1.7,0-2.9,0c-2.3-19-4.6-37.9-7.2-56.9c-2-15.2-4.3-30.2-7.2-45.1c-0.9-4-5.5-7.2-8-10.6
		c-2.6,3.7-6.3,7.2-7.5,11.2c-4.9,17.2-1.4,34.8,0.6,52c1.1,9.5,1.7,19,2.9,28.2c-2.3-2.9-2.6-6-3.4-8.9
		c-8-23.9-15.8-47.4-24.1-71.3c-0.9-2.6-4.9-4.3-7.5-6.6c-1.4,3.2-3.4,6-3.7,9.2c-0.3,5.7,0.3,11.5,0.6,19
		c-6.3-10.6-11.8-19.5-21.8-24.4c38.5,61.8,60.1,129,66.7,202c-3.7-10.9-6-21.6-11.2-31c-17-31.9-34.5-64.1-53.2-95.1
		c-13.5-22.7-32.5-41.4-54.3-56.6c-18.1-12.9-36.8-25-55.8-36.5c-29.6-18.1-60.1-35.1-86.2-58c-23.6-21.6-43.7-45.4-54.3-76.2
		c-1.1-3.2-2.3-6.6-3.7-11.2c-1.4,3.4-2.3,5.2-2.9,7.2c-17.5,58.9-9.5,114.4,23.9,166.1c2.6,4,7.8,6.6,11.5,10.1
		c6.3,5.5,13.8,10.3,19,17c8.9,11.2,12.6,24.7,12.9,38.8c0.6,19.3-0.3,38.8,0,58c0,4.6,2,9.8,4.3,13.8
		C338.1,351.7,359.7,360.9,376.4,375.6z"/>
	<path d="M376.4,375.6c-16.7-14.7-38.2-23.9-50.3-43.7c-2.6-4-4.3-9.2-4.3-13.8c-0.3-19.3,0.6-38.8,0-58
		c-0.6-14.1-4.3-27.9-12.9-38.8c-5.2-6.6-12.6-11.5-19-17c-3.7-3.4-8.9-5.7-11.5-10.1c-33.6-51.4-42-106.9-24.1-166.1
		c0.6-2,1.4-3.7,2.9-7.2c1.4,4.6,2.6,8,3.7,11.2c10.6,31,30.7,54.9,54.9,76.2c26.2,23,56.6,39.9,86.2,58
		c19,11.5,37.6,23.6,55.8,36.5c21.6,15.2,40.8,33.9,54.3,56.6c18.7,31,35.9,63.2,53.2,95.1c4.9,9.2,7.2,20.1,11.2,31
		c-6.3-73-28.2-140.2-66.7-202c9.8,4.9,15.5,13.8,21.8,24.4c-0.3-7.5-1.1-13.2-0.6-19c0.3-3.2,2.6-6,3.7-9.2
		c2.6,2.3,6.3,3.7,7.5,6.6c8.3,23.6,16.1,47.4,24.1,71.3c0.9,2.9,1.4,6,3.4,8.9c-0.9-9.5-1.7-19-2.9-28.2c-2-17.2-5.5-34.8-0.6-52
		c1.1-4,4.9-7.5,7.5-11.2c2.9,3.4,7.5,6.6,8,10.6c3.2,14.9,5.2,30.2,7.2,45.1c2.6,19,4.9,37.9,7.2,56.9c0.9,0,1.7,0,2.9,0
		c0-11.2-0.9-22.4,0.3-33.6c1.7-20.1,4.6-40.2,7.2-60.3c0.6-4.3,2-8.6,4.3-12.1c2.6-3.7,6.6-8.9,9.8-8.9c4,0,10.1,4.3,11.2,8
		c3.2,9.2,5.2,19.3,6,29.3c1.4,12.6,1.4,25.3,2,37.4c2.6-11.5,4.9-23.9,8.6-35.3c2.9-8.6,7.5-16.4,12.4-24.1c1.4-2.3,6-4.6,8.9-4
		c2.3,0.3,5.2,4,6,6.9c1.7,6,2,12.4,3.2,18.4c3.7-3.4,7.8-7.5,12.1-11.5c-31.6,58.9-50.9,121.3-56.6,188.2c3.7-10.6,6.9-21,10.9-31
		c4.3-10.6,9.8-20.7,14.9-31c5.2-10.1,11.2-19.5,16.4-29.6c25.9-50.3,64.7-88.2,113.2-117c29.3-17.2,58-35.1,86.2-54.3
		c27-18.7,50-42,65.2-71.6c4.9-9.5,8.3-19.8,12.6-30.2c8.9,24.1,12.6,48.6,11.2,73.9c-2,37.1-13.2,70.7-34.2,101.4
		c-1.4,2.3-3.4,4.9-6,5.7c-22.1,8.9-32.5,27-35.1,48.9c-2.3,19.8-1.4,39.9-1.1,60.1c0.3,10.1-1.1,19-8.6,26.2
		c-3.4,3.4-6.3,7.2-9.8,10.3c-12.1,10.9-26.4,19.3-37.4,31.9c-8.9,10.3-22.1,13.8-34.2,13.5c-3.4,12.1-6.6,23.3-9.5,33.9
		c19-19.3,45.4-29.9,68.1-45.7c8-5.7,15.5-12.6,23.6-19.5c-4.6,14.7-11.8,27.9-20.4,40.2c-23.9,34.2-56.6,58-92.2,78.2
		c-19.3,10.6-38.8,20.7-58,32.2c10.9-1.7,22.1-2.9,33-5.2c11.5-2.3,23-4.9,34.2-8.3c10.9-3.2,21.8-6.9,32.5-10.9
		c10.9-4.3,21.6-8.9,32.2-14.1c10.3-4.9,20.1-10.6,30.5-15.5c-42.8,50.9-101.7,63.5-163.5,69.3c54.3,11.2,105.2,2.3,153.7-26.2
		c-0.6,8.9-5.2,14.7-10.9,19.3c-16.4,13.2-35.6,21.3-55.8,27.3c-31.3,9.2-62.9,10.9-95.1,4.6c-0.6,0-1.4,0-2.3,0
		c12.1,6.9,50.3,13.8,76.4,14.1c26.4,0.3,52.3-3.7,78.7-11.8c-5.2,13.5-14.9,21.3-26.4,26.2c-34.5,14.1-69.5,12.9-104.6,2
		c-9.2-2.9-18.1-6.9-27-10.6c-0.6,0.6-0.9,1.4-1.4,2c7.5,5.2,14.7,10.9,22.7,15.2c16.7,8.6,35.1,10.6,53.5,12.9
		c12.1,1.4,24.1,3.2,36.2,5.7c9.8,2,12.9,8,9.8,17.5c-3.4,10.9-11.8,18.1-20.4,26.2c-12.6-24.7-35.1-33.3-58.9-40.5
		c-8.6-2.6-17.5-4.9-26.2-7.5c-15.5-4.6-29.9-11.5-41.7-24.4c-2.6,7.8-0.3,13.8,2.9,19.5c6.6,12.1,18.1,18.1,30.7,21.8
		c7.8,2.3,15.8,3.4,23.6,6c7.2,2.6,14.1,5.7,20.4,9.8c6,4,9.8,10.3,10.1,18.1c0.3,13.2-10.6,21.8-23,17.2c-5.7-2-10.6-6-15.5-10.1
		c-6.6-5.7-12.4-12.6-19.5-18.1c-5.2-3.7-11.5-5.7-17.2-8.6c-0.6,0.9-0.9,1.4-1.4,2.3c1.4,1.1,2.9,2.6,4.3,3.7
		c13.2,10.3,24.1,22.4,32.2,37.4c2.3,4.3,3.2,9.5,2.9,14.1c-0.3,2.6-3.7,6.3-6.6,7.2c-2.3,0.9-6.3-1.1-8.6-3.2
		c-2.6-2.3-4.3-5.7-6-8.9c-6-9.8-14.1-17.2-24.4-21.8c5.5,11.5,10.9,22.7,16.4,34.2c-0.6,0.3-1.1,0.9-2,1.1c-1.4-1.7-3.2-3.7-5.2-6
		c-0.6,4.6-0.9,8.6-1.4,12.6c-1.7,8.6-5.2,10.9-13.8,10.9c-11.5,0-22.1-3.2-31.9-9.5c-8-5.5-14.1-12.6-16.1-22.1
		c-1.1-5.5-0.3-11.2-0.3-17.8c-7.8,0-15.2,14.4-25.6,2.6c-2.6,6-4.9,11.2-7.5,16.4c-5.2,10.9-11.8,21-22.4,27.6
		c-7.5,4.9-15.8,8.9-24.1,4.9c-8.6-4-10.3-13.2-10.3-22.1c0-0.9-0.3-1.7-0.6-3.7c-3.4,5.2-6.3,9.5-9.2,13.5
		c0.6-15.5,6.9-28.4,15.2-41.4c-9.5,3.2-16.4,9.8-22.1,17.5c-2.9,3.7-4.9,8.6-8.3,11.8c-2.3,2.3-7.2,4-9.8,2.9s-5.2-5.5-5.5-8.9
		c-0.3-3.7,0.9-8,2.9-11.5c7.8-14.7,18.4-26.7,31.3-37.1c1.7-1.4,3.4-2.9,5.5-4.3c-0.3-0.6-0.6-1.4-0.9-2c-4.9,2-10.6,3.2-14.9,6
		c-6.3,4.3-11.2,10.3-17.2,15.2c-5.7,4.9-11.5,10.3-17.8,14.1c-7.5,4.3-15.5,2.6-20.7-2.3c-5.2-5.2-6.3-14.1-3.2-21.6
		c3.4-8,10.1-13.5,18.1-16.4c9.5-3.4,19.3-5.7,28.7-8.3c11.8-3.2,22.7-7.2,31.3-16.7c6.6-7.2,10.1-15.5,8.3-26.7
		c-18.7,20.1-43.7,24.4-67.5,31.9c-12.9,4-25.9,8.9-37.4,16.1c-8.9,5.5-15.8,14.7-24.1,23c-6.6-6-15.2-13.2-19-24.4
		c-3.2-9.5,0-15.8,9.8-17.8c16.1-2.9,32.2-4.9,48.3-7.2c19-2.6,37.4-6.6,53.2-18.1c4-2.9,7.5-6.6,10.3-11.2c-2.3,1.1-4.6,2-6.6,3.2
		c-39.9,18.1-80.8,22.4-122.7,7.5c-12.9-4.6-23.6-12.6-29.6-27.3c52.6,16.1,104.3,15.5,155.5-2.3c-8.9,1.1-17.8,2.3-27,2.9
		c-42.2,2.9-81.6-6.9-117.8-28.7c-9.2-5.5-17.2-12.4-19.5-25.6c48.9,28.7,100,37.6,154,26.4c-61.8-6-121-18.4-163.5-69.5
		c50.6,29.3,104.3,48,163.2,52.6c-13.2-6.6-26.2-13.2-39.4-20.1c-32.8-17-64.4-36.2-90.2-62.9c-17.8-18.1-31.9-38.5-40.8-62.6
		c-0.3-1.1-0.6-2.3-0.6-3.7c19.5,22.1,46.8,32.5,70.4,48.6c7.8,5.2,14.7,11.2,21.3,16.4c-2-9.8-4-20.1-6-31.6
		c-8.9-0.9-19.5-1.4-27.6-9.2c1.4,0.6,3.2,0.9,4.6,1.4c11.8,6,24.1,7.2,36.8,3.2c7.8-2.3,15.5-5.2,23.3-7.5
		c32.2-9.5,62.1,6.3,72.4,38.2c2.9,9.2,5.2,18.4,7.8,27.6c0.3-6.9,0-13.5-0.6-20.1c-0.9-12.1-2.6-24.1-10.6-33.6
		c-6.9-8.3-14.1-16.1-12.6-28.4c-0.6,0-1.4,0.3-2,0.3c-0.6,4-0.9,7.8-1.4,12.6c-17.2-16.4-37.1-16.7-58-11.5c-8.3,2-16.7,4-25,5.7
		c-15.5,3.4-30.7,3.7-46.8-2.3C375.8,373.9,376.1,374.7,376.4,375.6z M534.7,499.7c14.1-8.9,19.5-24.1,25.9-39.7
		c4.3,12.4,5.7,22.7-3.4,32.5c-10.3,11.2-22.4,19-37.4,22.4c-3.7,0.9-7.2,1.1-10.9,1.7c11.2,1.4,21.8-1.1,31-7.2
		c8.9-6,16.4-13.5,23.9-19.8c1.4,12.9-7.5,21.8-15.2,31.3c-7.5,4.6-14.9,9.8-24.7,7.8c8,3.7,17.8,0.6,25-7.5c3.2-2.6,6-5.2,10.1-8.6
		c-5.5,25.6-25,27.3-46.3,29.3c14.7,2,20.1,0.6,42.5-11.2c-4.6,7.2,2,16.7-7.5,19.8c-6.6,2-14.1,0.9-20.1,1.1
		c7.5,4.3,16.1,2.9,24.7-0.6c0.6,1.7,1.1,2.9,2.3,5.7c0.9-4.9,1.7-8,2.3-11.2c1.7,15.5,13.5,22.7,23.9,31.6
		c14.9,12.6,21.6,29.6,17.2,49.4c-2.9,13.2-14.1,17.8-25.9,11.2c-3.4-2-6.6-4.9-10.6-7.8c0.6,8,4.6,12.9,10.6,15.5
		c4.6,2,9.5,3.2,14.4,4.6c8.3,2.6,15.5,6,19.3,14.7c5.7-10.1,11.2-12.9,25.6-14.9c5.7-0.9,11.5-1.7,16.7-3.7
		c7.2-2.6,10.3-8,9.8-14.4c-8.9,7.5-18.7,7.5-27.9,1.7c-10.1-6-12.6-15.8-11.2-26.7c1.1-10.6,6.9-19,14.9-25.3
		c10.6-8.3,18.1-19.3,24.7-31c9.2,3.7,17.5,4.9,25.6-0.3c-6.9,0-13.8,0.3-20.7-0.3c-1.7,0-4.3-2.6-4.6-4.6
		c-0.9-4.6-0.9-9.5-1.4-15.2c12.1,8.9,24.7,13.5,40.5,11.2c-35.6-5.7-44-11.2-44.5-27.9c19.3,16.4,24.7,18.7,33,14.7
		c-21.8-0.3-43.1-22.4-38.5-39.9c16.7,20.1,39.4,31.9,54.6,27.9c-2.6-0.3-4.3-0.9-6.3-0.9c-18.4-2-32.8-10.9-44.3-25
		c-8-9.8-5.5-19.3-2.3-29.3c5.7,10.6,11.2,21.3,16.7,31.6c-3.7-11.2-8.6-21.6-13.5-31.9c-3.2-6.6,0.9-11.5,4.9-17.2
		c3.7,22.4,14.7,38.2,33.6,48.3c-11.8-8-21.6-18.1-27-31.3c-7.2-17-6.9-22.4,7.5-33.3c8-6,10.6-13.2,11.2-22.1c0-0.6,0-0.9,0-1.4
		c2.9-20.1,10.6-37.4,29-48c25-14.4,56-9.8,75.6,10.9c1.4,1.7,3.4,3.4,5.7,3.7c6.3,1.4,12.6,2,19,2.9c5.5,0.9,9.5-1.1,13.2-5.2
		c15.5-16.4,28.2-34.5,37.9-54.6c8.6-17.8,14.7-36.5,16.7-56.3c-12.9,25-28.4,48-48.3,67.8c14.1-37.4,29.3-74.1,61.2-100.9
		c-32.5,13.5-54.3,37.1-68.4,69c5.5-43.1,31.3-72.1,64.9-96.3c-47.4,17.8-80.8,50.9-102,96.8c-0.9-12.4,2.9-23.6,8.6-33.9
		c6-10.6,12.9-20.7,20.7-29.9c7.5-8.9,16.4-16.4,24.7-24.7c-0.6-0.6-0.9-0.9-1.4-1.4c-40.8,22.4-69.3,56-87.1,99.1
		c2-32.5,15.5-59.8,37.9-82.8c-1.7,0.3-2.9,0.9-4,1.7c-23.3,15.2-41.1,35.9-49.7,62.1c-8,24.1-22.4,41.7-43.7,54.6
		c-3.2,2-6.3,4.3-9.5,6.6c-18.7,13.2-31.6,31-39.7,52.6c-12.4,33-10.6,66.7-3.2,100.3c3.2,13.8,6.9,27.3,10.6,41.7
		c-5.7-3.7-9.5-7.5-9.2-14.1c0.3-4.3-1.1-8.6-1.7-12.6c-2.9-19.8-7.8-39.7-8.6-59.5c-1.4-40.5-0.3-81.3-0.3-121.8
		c-2.3,1.1-2.9,2.6-3.2,4.3c-2.6,17-5.7,33.9-7.8,51.2c-4.9,42.5-4.6,85.1,2.9,127.3c1.4,8.6,1.7,15.5-4.9,22.4
		c-6.9,7.2-14.4,10.3-23,6.6c-7.8-3.4-12.4-12.6-10.6-21.6c0.6-3.7,1.1-7.5,1.7-11.2c7.2-46.8,6.3-93.4-0.3-140.2
		c-1.7-12.1-4-24.1-6-36.2c-0.9,0-1.4,0.3-2.3,0.3c0,35.1,0,70.4,0,105.5c0,21.8-1.4,43.4-8.6,64.4c-2.9,8.3-4.3,17.2-6.6,25.6
		c-0.6,2.3-2,4.3-2.9,6.3c-0.6-0.3-1.1-0.6-1.7-0.9c0.6-2.6,1.4-5.5,2-8c4.3-21.6,10.3-42.8,12.1-64.7
		c4.3-51.4-11.2-95.1-57.2-123.9c-21-13.2-35.6-30.7-43.7-54.9c-8.6-25.6-25.6-45.1-47.7-60.3c-2-1.4-4-2.3-5.7-3.4
		c22.1,23.6,35.3,50.6,37.4,83.1c-8.9-20.7-19.8-39.9-35.1-56.9c-14.1-17.8-31-32.2-52-41.4c8,9.2,17.5,17,25.3,26.2
		c7.8,9.2,14.7,19.5,20.4,30.2c6.9,12.1,9.5,25.9,8.3,35.1c-20.7-48-54.6-81.6-103.5-99.7c34.8,24.7,61.8,54.6,66.7,99.4
		c-13.5-34.2-36.5-59.2-70.4-73c33,26.2,48.3,62.9,62.4,100.9c-19.5-19.5-34.5-42-47.4-66.4c-0.3,1.4-0.3,2.6,0,3.7
		c0.3,1.1,0.3,2.3,0.6,3.4c7.5,37.1,24.7,69.3,49.1,98.3c9.8,11.5,20.4,13.5,33.6,10.9c4.6-0.9,9.8-2,12.6-5.2
		c18.4-18.4,46.8-23.9,70.1-12.4c4.3,2,9.8,3.2,12.9,6.6c11.5,12.9,19.5,27.3,21,45.1c0.6,8.9,3.7,16.1,11.8,21.6
		c8.6,5.7,10.1,14.1,6.6,23.9c-4.9,14.1-12.6,25.6-25,34.2c-0.9,0.6-2,1.1-2.9,2c-0.9,0.6-1.4,1.1-2,2c19.5-9.5,30.2-26.2,33.9-47.4
		c6.3,6.9,6.6,13.2,4,20.7c-4.9,13.5-12.4,24.7-22.7,34.5c-7.8,3.7-15.5,7.8-22.7,11.2C519.2,509.8,527.2,506.4,534.7,499.7z
		 M709.1,378.2c-0.6-5.5-1.1-9.5-1.7-13.5c-0.6,0-1.1,0-2,0c1.1,11.2-4.3,19-10.9,27c-4.6,5.7-8.6,12.9-10.1,20.1
		c-2.6,11.8-2.9,23.9-4,35.6c4.3-12.1,7.5-24.4,12.1-36.2c8-20.7,33.6-36.2,55.5-32.8c13.2,2,26.2,7.2,39.4,10.6
		c20.1,5.2,39.7-2,50.3-17c-9.8,0.6-20.7,2.6-31.3,2c-11.2-0.9-22.1-3.7-33-6.3C750.8,362.4,728.7,359.2,709.1,378.2z M470.6,437.1
		c2-18.1,4-36.2,6.3-56c-8,1.1-14.7,2.6-21.6,3.2c-9.5,0.9-12.6,7.2-14.1,15.2C438.7,418.1,452.8,437.1,470.6,437.1z M743.6,380.2
		c-14.4,1.1-27,4.3-34.2,14.9c-5.7,8.3-2.3,19,3.2,27.9c5.5,8.6,12.9,14.1,24.1,14.9C739,418.4,741.3,400,743.6,380.2z M752.5,381.6
		c-4.3,18.4-8.9,37.1-13.2,55.8c17.2,2.3,33.3-10.3,34.8-27.9C776.1,388.2,771.2,384.5,752.5,381.6z M485.6,383.9
		c-4.3,19-8.6,36.5-12.6,54c19.5,1.7,32.8-13.2,35.3-26.2c1.7-8.6,0.3-15.5-8.3-19.8C495.6,389.7,491.3,387.1,485.6,383.9z
		 M449.9,231.9c0.9,0,1.7-0.3,2.3-0.3c-0.6-2-0.6-4.3-1.4-6c-8-13.5-20.7-21-35.6-24.7c-14.9-3.7-30.5-5.5-45.7-8.6
		c-34.8-7.5-68.1-18.1-82.5-56c-0.3-0.9-2-1.4-3.2-2.3c-0.6,0.6-0.9,0.9-1.4,1.4c7.8,17.8,17.2,33.9,35.6,43.4
		c24.4,12.6,50.6,18.1,77.6,21.8C417.7,203.7,438.7,209.8,449.9,231.9z M926.4,134.2c-0.6-0.3-1.4-0.6-2-0.6c-2,3.7-4.3,7.8-6,11.5
		c-6.3,12.1-14.4,22.7-26.7,29c-18.4,9.5-37.6,15.8-58.3,19.3c-15.2,2.6-30.5,5.5-45.4,9.8c-12.1,3.4-22.1,11.2-28.7,22.4
		c-0.9,1.7-0.9,3.7-1.4,5.7c15.8-17.2,20.1-20.7,33.9-25.3c7.2-2.3,14.7-4.3,22.1-5.5c25.6-3.4,50.6-8.6,74.4-19.8
		c19-8.9,29.9-24.4,38.2-42.8C927,136.8,926.4,135.4,926.4,134.2z M420.3,193.1c-1.7-1.4-2.9-3.4-4.6-4c-8.9-2.6-17.8-5.7-27-7.2
		c-41.4-6-76.4-21.8-96.8-61.2c-0.6-1.1-2.3-1.4-5.2-3.2c1.1,2.9,1.1,4,1.7,4.9c0.9,1.7,1.4,3.4,2.6,5.2
		c18.1,31.9,47.1,48.3,82.5,55.8C388.4,186.5,403.7,189.7,420.3,193.1z M922.9,119.8c-0.6-0.6-1.4-1.1-2-1.7
		c-1.1,1.1-2.6,2.3-3.4,3.7c-2.9,4.6-5.2,9.8-8.6,14.1c-19.8,26.2-47.4,39.1-79,44.5c-11.8,2-23.6,5.5-35.3,8.6
		c-1.7,0.6-2.9,2.3-4.6,4c17-3.4,32.8-6.6,48.6-10.1c30.5-6.6,56.3-20.7,75-46.3C916.9,131.3,919.8,125.3,922.9,119.8z M313.4,126.7
		c-0.6,0.3-1.1,0.6-2,0.9c0,0.9-0.6,2,0,2.6c11.8,17.2,25,33.3,46.8,38.8c12.1,3.2,23.9,6.6,35.6,10.1c0.9,0.3,2-0.6,4.9-1.4
		c-3.7-2-5.7-3.4-8-4.3c-6.6-2-13.2-4.6-19.8-5.5c-21.6-3.2-37.9-14.1-50.3-31.9C318.3,132.8,315.7,129.6,313.4,126.7z M899.1,129
		c-0.6-0.9-1.1-1.4-1.7-2.3c-1.7,1.7-3.7,3.2-4.9,4.9c-12.6,18.1-27.9,31.6-50.6,35.3c-7.5,1.1-14.7,3.7-22.1,5.7
		c-2.6,0.9-4.6,2.6-6.9,3.7c1.7,1.7,3.2,2,4,1.7c10.1-2.9,20.1-6.3,30.2-8.3C871.5,165.2,886.4,148.6,899.1,129z M320.6,188.2
		c-6.3-4.6-13.2-8.6-18.7-14.1c-5.7-5.7-10.1-12.6-14.7-19.3c-4.6-6.6-8.9-13.2-13.2-19.8C272.6,150.9,305.1,187.4,320.6,188.2z
		 M935.3,135.4c-4.3,6.6-8.6,13.5-13.2,20.1c-4.6,6.6-8.9,13.5-14.7,19.3c-5.5,5.5-12.1,9.2-19.3,14.4
		C903.4,188.8,939,149.1,935.3,135.4z M902.5,193.4c0.6,0.6,1.1,1.4,1.7,2c10.9-8.6,19.5-19.3,27-31c0.9-1.1,0.3-3.2,0.6-5.7
		C921.5,171,912,182.2,902.5,193.4z M308.5,194.8c-10.3-12.4-19.8-23.9-29.6-35.1C276.1,165.2,297,191.7,308.5,194.8z M671.8,702.1
		c2.6-15.8-1.1-27.6-10.3-37.9c2.3,5.7,5.7,11.2,7.8,17C670.9,687.4,670.9,693.7,671.8,702.1z M538.4,700
		c-0.9-13.5,3.2-25.3,10.9-36.2C539.3,673.9,535.8,686.2,538.4,700z M697.9,512.1c0.3-0.6,0.6-1.1,0.9-1.7
		c-8.6-4.3-17.5-8.9-26.2-13.2c-0.3,0.6-0.6,1.1-0.9,1.7C680.4,503.2,689,507.8,697.9,512.1z"/>
	<path d="M671.8,702.1c-1.1-8.3-1.1-14.9-2.9-21c-1.7-6-5.2-11.2-7.8-17C670.6,674.5,674.4,686.5,671.8,702.1z"/>
	<path d="M538.4,700c-2.6-13.8,0.9-26.2,10.9-36.2C541.6,674.8,537.6,686.5,538.4,700z"/>
	<path d="M548.8,521c-7.2,8-17,11.2-25,7.5c9.8,1.7,17.2-3.2,24.7-7.8C548.5,520.7,548.8,521,548.8,521z"/>
	<path d="M697.9,512.1c-8.6-4.3-17.5-8.9-26.2-13.2c0.3-0.6,0.6-1.1,0.9-1.7c8.6,4.3,17.5,8.9,26.2,13.2
		C698.5,510.9,698.2,511.5,697.9,512.1z"/>
	<path d="M534.7,499.7c-7.5,6.6-15.5,10.1-23.3,10.6c7.2-3.4,14.9-7.2,22.7-11.2C534.4,499.2,534.4,499.5,534.7,499.7z"/>
	<path d="M603.1,560.1c0.6,6.3,1.1,12.6,1.4,19c-0.3,0.3-0.9,0.9-1.1,1.1c-3.2-3.2-6.6-6-9.2-9.5c-2.6-3.4-4.3-7.5-6.6-11.2
		c-6.3-10.1-13.2-11.8-23.9-5.7c-0.6-2.6-1.4-5.2-1.7-7.5c-0.9-5.5,0.6-9.5,6.6-10.6c2.3-0.3,4.6-1.1,6.9-2c4-2,6.3-0.9,8.9,2.9
		c10.6,15.2,27,15.5,38.5,0.9c6.9-8.9,9.2-9.2,17.8-2c3.4,2.9,6.9,6,10.1,9.2c0.9,0.9,1.1,3.2,0.9,4.3c-0.3,0.9-2,2.3-2.9,2.3
		c-15.5-2-21.6,9.2-28.2,19.8c-2.3,3.7-5.2,7.2-8,10.9c-0.9-0.3-1.7-0.6-2.6-0.9c-1.1-7.2-2.3-14.4-3.7-21.6
		C605.1,559.5,604.2,559.8,603.1,560.1z"/>
</g>
</svg>
