<?xml version="1.0" encoding="utf-8"?>
<!-- Generator: Adobe Illustrator 18.1.1, SVG Export Plug-In . SVG Version: 6.00 Build 0)  -->
<!DOCTYPE svg PUBLIC "-//W3C//DTD SVG 1.1//EN" "http://www.w3.org/Graphics/SVG/1.1/DTD/svg11.dtd">
<svg version="1.1" id="Layer_1" xmlns="http://www.w3.org/2000/svg" xmlns:xlink="http://www.w3.org/1999/xlink" x="0px" y="0px"
	 viewBox="0 0 256 256" style="enable-background:new 0 0 256 256;" xml:space="preserve">
<style type="text/css">
	.st0{fill:#FFFFFF;}
</style>
<g>
	<path d="M244.2,0c8.2,22.3,5.8,43.3-7.2,62.8c2.2,0.9,4.3,1.8,6.4,2.7c-0.1,0.3-0.1,0.6-0.2,0.9c-2.5-1.2-4.6-0.5-6.1,1.4
		c-5.3,6.7-8.6,14.2-6.9,22.8c0.6,3.1,2.3,6.4,4.4,8.9c13.5,15.9,13.8,33.3,6.3,51.7c-1.3,3.3-3.1,6.4-4.9,10
		c5.5-2.6,9.7-6.2,13.2-10.8c-3,12.7-10.5,21.7-22.6,27.9c4.7,0.6,8.8,1.6,12.5,4.4c-2.2,0.2-4.2,0.2-6.1,0.6
		c-6.8,1.4-12.1,5.3-16.9,10c-4.7,4.7-9,9.8-13.7,14.4c-2.7,2.6-5.9,4.6-8.8,7c-0.6,0.4-1.3,1.1-1.3,1.7c0.1,2.1-1,3.6-2.7,4.5
		c-5.6,3.3-11.2,6.8-17.1,9.6c-6.3,3-12.5,5.9-17.5,11c-3.1,3.2-7.4,4.3-11.6,5.4c-3.1,0.8-6.2,1.7-9.2,2.6
		c-2.7,0.8-4.7,2.3-5.1,5.4c0,0.3-0.3,0.7-0.7,1c-0.6-5.1-4.4-6.2-8.1-7.3c-3.3-1-6.6-1.7-9.9-2.7c-4.4-1.3-8.3-3.4-10.9-7.3
		c-0.1,0-0.2,0-0.2,0c-0.1,0.3-0.2,0.6-0.4,1.1c-4.8-5.1-11.3-7-17.2-10c-5.3-2.7-10.4-5.8-15.5-9.1c-1.2-0.8-1.7-2.7-2.5-4.1
		c-0.3-0.6-0.5-1.4-1-1.6c-6.4-3.5-11-8.9-15.9-14.1c-4.5-4.6-9.1-9.2-14.2-13.2c-4.4-3.5-9.7-5.2-16.1-4.7c3.9-3.2,8-4.1,12.9-4.7
		c-12.1-6.1-19.7-15.2-22.7-28c3.6,4.4,7.6,8.3,12.6,10.5c-2.3-5.5-5-10.9-6.8-16.7c-3.7-11.8-3.6-23.7,2.2-35
		c1.6-3.2,3.8-6.2,6.1-8.9c5.8-6.8,6.8-14.3,3.8-22.4c-1.2-3.3-3.2-6.4-5.1-9.4c-1.5-2.3-3.6-3.6-7-2.1c1.8-2.6,4.1-3,6.9-3.1
		C6.1,43.5,3.8,22.3,11.8,0c0,0,0.5,0.1,0.7,0.3C18.9,11.6,28.7,19,40.3,23.9c5.3,2.3,11,3.8,16.7,5c13.4,3,24.1,10,32.7,20.5
		c1.4,1.7,2.5,1.8,4.4,1.1c12.7-5.1,25.6-8.7,39.4-7c10,1.2,19.8,3.7,29.3,7.1c1.1,0.4,1.9,0.7,2.9-0.5c9.5-12.1,22-19.1,37.1-22.1
		c12.3-2.4,23.3-7.9,32.3-16.9c3.2-3.2,5.7-7.2,8.6-10.8C243.7,0.2,244,0.1,244.2,0z M51.7,121.6c1.2,1.1,2.4,2.2,3.6,3.4
		c2.7,2.6,6.2,2.8,9.2,3.1c0.7,3.8,1.4,7.4,2.1,10.6c-2.2-1.7-4.6-3.7-7.1-5.4c-7.9-5.3-17-8.8-23.5-16.2c0,0.5,0.1,0.9,0.2,1.2
		c2.9,8,7.7,14.9,13.6,20.9c8.7,8.9,19.2,15.3,30.2,21c4.4,2.3,8.8,4.5,13.1,6.7c-19.6-1.5-37.6-7.8-54.5-17.6
		c14.3,17.1,34,21.3,54.7,23.3c-18.1,3.7-35.2,0.7-51.5-8.9c0.8,4.4,3.5,6.7,6.6,8.6c12.1,7.3,25.3,10.5,39.4,9.6c3-0.2,6-0.7,9-1
		c-17.1,6-34.3,6.1-51.9,0.8c2,4.9,5.5,7.6,9.8,9.1c14,5,27.7,3.6,41-2.5c0.8-0.3,1.5-0.7,2.3-1c-0.9,1.6-2.1,2.8-3.4,3.7
		c-5.3,3.8-11.4,5.2-17.7,6.1c-5.4,0.8-10.8,1.4-16.1,2.4c-3.2,0.6-4.3,2.8-3.3,5.9c1.2,3.7,4.1,6.1,6.3,8.2
		c2.8-2.8,5.1-5.9,8.1-7.7c3.8-2.3,8.2-4,12.5-5.4c7.9-2.5,16.3-4,22.5-10.7c0.6,3.7-0.6,6.5-2.8,8.9c-2.8,3.1-6.5,4.5-10.4,5.5
		c-3.2,0.9-6.5,1.7-9.6,2.8c-2.7,1-4.9,2.8-6,5.5c-1.1,2.4-0.6,5.4,1.1,7.2c1.7,1.7,4.3,2.3,6.9,0.8c2.2-1.2,4.1-3,6-4.7
		c1.9-1.7,3.6-3.6,5.7-5.1c1.4-1,3.3-1.4,5-2.1c0.1,0.2,0.2,0.5,0.3,0.7c-0.6,0.5-1.2,1-1.8,1.5c-4.3,3.4-7.9,7.5-10.5,12.4
		c-0.6,1.2-1.1,2.6-0.9,3.8c0.1,1.1,1,2.6,1.9,2.9c0.9,0.3,2.5-0.3,3.3-1c1.1-1,1.8-2.6,2.7-3.9c1.9-2.6,4.2-4.8,7.4-5.9
		c-2.7,4.2-4.9,8.6-5.1,13.8c1-1.4,1.9-2.8,3.1-4.6c0.1,0.7,0.2,1,0.2,1.3c0,3,0.6,6,3.5,7.4c2.8,1.3,5.6-0.1,8.1-1.7
		c3.5-2.2,5.7-5.6,7.4-9.2c0.8-1.7,1.6-3.4,2.5-5.4c3.5,4,5.9-0.8,8.5-0.8c0,2.2-0.3,4.1,0.1,5.9c0.7,3.2,2.7,5.6,5.4,7.4
		c3.2,2.1,6.8,3.1,10.6,3.1c2.9,0,4-0.8,4.6-3.7c0.3-1.3,0.3-2.6,0.5-4.2c0.7,0.8,1.2,1.4,1.7,2c0.2-0.1,0.4-0.2,0.6-0.4
		c-1.8-3.8-3.7-7.6-5.5-11.4c3.4,1.5,6.1,4,8.1,7.3c0.6,1,1.2,2.2,2,2.9c0.8,0.7,2.1,1.3,2.9,1.1c0.9-0.3,2.1-1.5,2.2-2.4
		c0.1-1.6-0.3-3.3-1-4.7c-2.6-5-6.3-9-10.7-12.5c-0.5-0.4-1-0.8-1.5-1.3c0.2-0.3,0.3-0.5,0.5-0.8c1.9,0.9,4.1,1.6,5.8,2.9
		c2.3,1.8,4.2,4.1,6.5,6c1.6,1.3,3.3,2.7,5.1,3.4c4.1,1.6,7.8-1.3,7.7-5.7c-0.1-2.6-1.3-4.7-3.3-6.1c-2.1-1.4-4.5-2.5-6.8-3.3
		c-2.5-0.9-5.3-1.3-7.9-2.1c-4.2-1.3-8-3.2-10.3-7.3c-1.1-1.9-1.8-4-1-6.6c3.9,4.3,8.8,6.6,13.9,8.2c2.9,0.9,5.9,1.6,8.8,2.5
		c7.9,2.4,15.5,5.3,19.6,13.6c2.9-2.6,5.7-5,6.8-8.7c1-3.2,0-5.2-3.3-5.9c-4-0.8-8-1.4-12.1-1.9c-6.1-0.8-12.3-1.4-17.8-4.3
		c-2.7-1.4-5-3.4-7.6-5.1c0.2-0.2,0.3-0.5,0.5-0.7c3,1.2,6,2.5,9,3.5c11.7,3.7,23.4,4,35-0.7c3.9-1.6,7.1-4.1,8.9-8.7
		c-8.8,2.7-17.4,4-26.3,3.9c-8.7-0.1-21.5-2.4-25.6-4.7c0.3,0,0.5,0,0.8,0c10.7,2.1,21.3,1.5,31.8-1.6c6.7-2,13.1-4.6,18.6-9.1
		c1.9-1.5,3.4-3.4,3.6-6.4c-16.2,9.5-33.3,12.5-51.4,8.8c20.7-2,40.4-6.2,54.7-23.2c-3.5,1.6-6.8,3.5-10.2,5.2
		c-3.5,1.7-7.1,3.3-10.7,4.7c-3.6,1.4-7.2,2.6-10.9,3.7c-3.8,1.1-7.6,2-11.4,2.8c-3.6,0.7-7.4,1.1-11,1.7c6.4-3.9,13-7.2,19.4-10.7
		c12-6.7,22.9-14.6,30.9-26.1c2.9-4.1,5.3-8.5,6.8-13.4c-2.7,2.3-5.2,4.6-7.9,6.5c-7.6,5.3-16.4,8.8-22.8,15.3
		c1-3.6,2.1-7.4,3.2-11.4c4.1,0.1,8.5-1,11.4-4.5c3.7-4.2,8.4-7,12.5-10.7c1.2-1.1,2.2-2.4,3.3-3.5c2.5-2.5,2.9-5.4,2.8-8.8
		c-0.1-6.7-0.4-13.5,0.4-20.1c0.9-7.3,4.3-13.4,11.7-16.3c0.8-0.3,1.5-1.2,2-1.9c7-10.2,10.7-21.5,11.4-33.9
		c0.4-8.5-0.8-16.6-3.8-24.7c-1.4,3.5-2.6,6.9-4.2,10c-5.1,9.9-12.7,17.7-21.8,23.9c-9.3,6.4-19,12.4-28.8,18.2
		c-16.3,9.6-29.2,22.2-37.9,39.1c-1.7,3.3-3.7,6.5-5.5,9.9c-1.8,3.4-3.5,6.8-5,10.3c-1.4,3.3-2.4,6.8-3.7,10.4
		c1.9-22.3,8.3-43.1,18.9-62.9c-1.4,1.3-2.8,2.6-4,3.8c-0.3-2-0.5-4.1-1-6.1c-0.3-0.9-1.2-2.2-2-2.3c-0.9-0.1-2.5,0.6-3,1.4
		c-1.6,2.6-3.2,5.2-4.1,8.1c-1.3,3.9-2,8-2.9,11.8c-0.2-4-0.2-8.3-0.6-12.5c-0.3-3.3-1-6.6-2-9.8c-0.4-1.3-2.4-2.7-3.8-2.7
		c-1.1,0-2.4,1.7-3.2,3c-0.8,1.2-1.2,2.6-1.4,4c-0.9,6.7-1.8,13.4-2.4,20.2c-0.3,3.7-0.1,7.5-0.1,11.2c-0.3,0-0.6,0-0.9,0
		c-0.8-6.3-1.5-12.7-2.4-19c-0.7-5.1-1.4-10.1-2.4-15.1c-0.3-1.3-1.8-2.4-2.7-3.6c-0.8,1.2-2.1,2.4-2.5,3.7
		c-1.6,5.8-0.5,11.6,0.2,17.4c0.4,3.1,0.6,6.3,0.9,9.4c-0.7-1-0.8-2-1.2-3c-2.6-7.9-5.3-15.9-8.1-23.8c-0.3-0.9-1.6-1.5-2.5-2.2
		c-0.4,1-1.2,2-1.3,3.1c-0.1,1.9,0.1,3.8,0.2,6.3c-2.1-3.5-4-6.5-7.3-8.2c12.9,20.7,20.1,43.1,22.3,67.5c-1.3-3.6-2.1-7.2-3.7-10.3
		C109,103.9,103.2,93.2,97,82.8c-4.6-7.6-10.9-13.8-18.1-19c-6.1-4.3-12.3-8.3-18.7-12.2c-9.9-6-20-11.7-28.8-19.4
		c-8-7.1-14.8-15.1-18.3-25.4c-0.4-1.1-0.7-2.2-1.3-3.8c-0.5,1.1-0.8,1.7-0.9,2.4c-5.9,19.7-3.2,38.2,8,55.5
		c0.9,1.4,2.6,2.2,3.8,3.3c2.2,1.9,4.6,3.5,6.4,5.7c2.9,3.7,4.2,8.3,4.3,13c0.2,6.5-0.1,12.9,0,19.4c0,1.6,0.6,3.3,1.5,4.6
		C38.9,113.6,46.1,116.7,51.7,121.6z"/>
	<path d="M51.7,121.6c-5.6-4.9-12.8-8-16.8-14.6c-0.8-1.3-1.4-3.1-1.5-4.6c-0.1-6.5,0.2-13,0-19.4c-0.1-4.7-1.4-9.3-4.3-13
		c-1.7-2.2-4.2-3.8-6.4-5.7c-1.3-1.1-3-2-3.8-3.3C7.7,43.8,4.9,25.2,10.8,5.5c0.2-0.6,0.5-1.3,0.9-2.4c0.5,1.6,0.9,2.7,1.3,3.8
		c3.6,10.3,10.3,18.3,18.3,25.4c8.8,7.7,18.9,13.4,28.8,19.4c6.3,3.9,12.6,7.9,18.7,12.2c7.2,5.1,13.6,11.3,18.1,19
		c6.2,10.4,12,21.1,17.7,31.8c1.7,3.1,2.4,6.7,3.7,10.3c-2.1-24.4-9.4-46.9-22.3-67.5c3.3,1.7,5.2,4.6,7.3,8.2
		c-0.1-2.5-0.4-4.4-0.2-6.3c0.1-1,0.8-2,1.3-3.1c0.9,0.7,2.2,1.3,2.5,2.2c2.8,7.9,5.4,15.8,8.1,23.8c0.3,1,0.4,2,1.2,3
		c-0.3-3.1-0.6-6.3-0.9-9.4c-0.7-5.8-1.8-11.6-0.2-17.4c0.4-1.4,1.6-2.5,2.5-3.7c0.9,1.2,2.5,2.2,2.7,3.6c1,5,1.7,10.1,2.4,15.1
		c0.9,6.3,1.6,12.6,2.4,19c0.3,0,0.6,0,0.9,0c0-3.7-0.3-7.5,0.1-11.2c0.6-6.8,1.5-13.5,2.4-20.2c0.2-1.4,0.7-2.9,1.4-4
		c0.8-1.2,2.2-3,3.2-3c1.3,0,3.3,1.4,3.8,2.7c1.1,3.1,1.7,6.5,2,9.8c0.4,4.2,0.4,8.4,0.6,12.5c0.9-3.8,1.6-7.9,2.9-11.8
		c0.9-2.8,2.5-5.5,4.1-8.1c0.5-0.8,2-1.5,3-1.4c0.8,0.1,1.8,1.4,2,2.3c0.6,2,0.7,4.2,1,6.1c1.2-1.2,2.6-2.5,4-3.8
		c-10.6,19.7-17,40.5-18.9,62.9c1.3-3.6,2.3-7,3.7-10.4c1.5-3.5,3.2-6.9,5-10.3c1.7-3.3,3.7-6.5,5.5-9.9
		c8.7-16.9,21.6-29.5,37.9-39.1c9.8-5.7,19.4-11.7,28.8-18.2c9-6.2,16.7-14,21.8-23.9c1.6-3.2,2.8-6.6,4.2-10c3,8,4.2,16.2,3.8,24.7
		c-0.7,12.3-4.4,23.7-11.4,33.9c-0.5,0.8-1.2,1.6-2,1.9c-7.4,2.9-10.8,9-11.7,16.3c-0.8,6.6-0.5,13.4-0.4,20.1
		c0.1,3.4-0.4,6.3-2.8,8.8c-1.1,1.1-2.1,2.4-3.3,3.5c-4,3.7-8.8,6.5-12.5,10.7c-3,3.4-7.4,4.6-11.4,4.5c-1.1,4-2.2,7.8-3.2,11.4
		c6.4-6.5,15.2-9.9,22.8-15.3c2.7-1.9,5.2-4.2,7.9-6.5c-1.5,4.9-3.9,9.3-6.8,13.4c-7.9,11.5-18.9,19.4-30.9,26.1
		c-6.4,3.6-13,6.9-19.4,10.7c3.7-0.6,7.4-1,11-1.7c3.8-0.8,7.7-1.7,11.4-2.8c3.7-1.1,7.3-2.3,10.9-3.7c3.6-1.4,7.2-3,10.7-4.7
		c3.4-1.7,6.7-3.6,10.2-5.2c-14.3,17-34,21.2-54.7,23.2c18.1,3.7,35.2,0.8,51.4-8.8c-0.2,3-1.7,4.9-3.6,6.4
		c-5.5,4.5-11.9,7.1-18.6,9.1c-10.4,3.1-21.1,3.7-31.8,1.6c-0.2,0-0.5,0-0.8,0c4.1,2.3,16.8,4.7,25.6,4.7c8.8,0.1,17.5-1.2,26.3-3.9
		c-1.8,4.6-5,7.1-8.9,8.7c-11.5,4.7-23.3,4.3-35,0.7c-3.1-1-6-2.3-9-3.5c-0.2,0.2-0.3,0.5-0.5,0.7c2.5,1.7,4.9,3.7,7.6,5.1
		c5.5,2.9,11.7,3.5,17.8,4.3c4,0.5,8.1,1.1,12.1,1.9c3.3,0.7,4.3,2.7,3.3,5.9c-1.1,3.7-3.9,6.1-6.8,8.7
		c-4.2-8.2-11.7-11.2-19.6-13.6c-2.9-0.9-5.9-1.6-8.8-2.5c-5.2-1.6-10-3.8-13.9-8.2c-0.8,2.6-0.1,4.6,1,6.6c2.3,4.1,6.1,6,10.3,7.3
		c2.6,0.8,5.3,1.2,7.9,2.1c2.4,0.8,4.7,1.9,6.8,3.3c2.1,1.3,3.3,3.5,3.3,6.1c0.1,4.4-3.6,7.3-7.7,5.7c-1.9-0.7-3.6-2.1-5.1-3.4
		c-2.3-1.9-4.2-4.3-6.5-6c-1.7-1.3-3.8-2-5.8-2.9c-0.2,0.3-0.3,0.5-0.5,0.8c0.5,0.4,1,0.9,1.5,1.3c4.4,3.4,8.1,7.5,10.7,12.5
		c0.7,1.4,1.1,3.2,1,4.7c-0.1,0.9-1.3,2.1-2.2,2.4c-0.8,0.2-2.1-0.4-2.9-1.1c-0.9-0.8-1.4-1.9-2-2.9c-2-3.3-4.7-5.8-8.1-7.3
		c1.8,3.8,3.7,7.6,5.5,11.4c-0.2,0.1-0.4,0.2-0.6,0.4c-0.5-0.6-1-1.2-1.7-2c-0.2,1.6-0.2,2.9-0.5,4.2c-0.6,2.9-1.7,3.7-4.6,3.7
		c-3.9,0-7.4-1-10.6-3.1c-2.7-1.8-4.7-4.2-5.4-7.4c-0.4-1.8-0.1-3.8-0.1-5.9c-2.6,0-5.1,4.8-8.5,0.8c-0.9,2-1.6,3.7-2.5,5.4
		c-1.8,3.6-4,7-7.4,9.2c-2.5,1.6-5.3,3-8.1,1.7c-2.9-1.4-3.5-4.4-3.5-7.4c0-0.3-0.1-0.6-0.2-1.3c-1.2,1.7-2.1,3.1-3.1,4.6
		c0.2-5.2,2.3-9.5,5.1-13.8c-3.2,1.1-5.5,3.3-7.4,5.9c-0.9,1.3-1.6,2.8-2.7,3.9c-0.8,0.7-2.4,1.3-3.3,1c-0.9-0.4-1.7-1.9-1.9-2.9
		c-0.1-1.2,0.3-2.7,0.9-3.8c2.6-4.9,6.1-8.9,10.5-12.4c0.6-0.5,1.2-1,1.8-1.5c-0.1-0.2-0.2-0.5-0.3-0.7c-1.7,0.7-3.5,1-5,2.1
		c-2.1,1.5-3.8,3.4-5.7,5.1c-1.9,1.6-3.8,3.4-6,4.7c-2.5,1.5-5.2,0.9-6.9-0.8c-1.7-1.7-2.2-4.7-1.1-7.2c1.2-2.7,3.3-4.5,6-5.5
		c3.2-1.1,6.4-1.9,9.6-2.8c3.9-1.1,7.6-2.4,10.4-5.5c2.2-2.4,3.4-5.2,2.8-8.9c-6.2,6.7-14.6,8.2-22.5,10.7c-4.3,1.4-8.6,3-12.5,5.4
		c-3,1.8-5.3,4.9-8.1,7.7c-2.2-2.1-5.1-4.4-6.3-8.2c-1-3.2,0-5.3,3.3-5.9c5.3-1,10.7-1.6,16.1-2.4c6.3-0.9,12.5-2.2,17.7-6.1
		c1.3-1,2.5-2.2,3.4-3.7c-0.8,0.3-1.5,0.7-2.3,1c-13.4,6.1-27,7.5-41,2.5c-4.3-1.6-7.9-4.2-9.8-9.1c17.6,5.3,34.8,5.2,51.9-0.8
		c-3,0.3-6,0.8-9,1c-14.1,0.9-27.3-2.3-39.4-9.6c-3.1-1.9-5.8-4.2-6.6-8.6c16.3,9.6,33.4,12.5,51.5,8.9c-20.7-2-40.4-6.2-54.7-23.3
		c16.9,9.8,34.9,16.1,54.5,17.6c-4.4-2.2-8.8-4.4-13.1-6.7c-11-5.7-21.5-12.1-30.2-21c-5.9-6.1-10.7-12.9-13.6-20.9
		c-0.1-0.4-0.2-0.7-0.2-1.2c6.5,7.4,15.7,10.9,23.5,16.2c2.6,1.7,4.9,3.8,7.1,5.4c-0.6-3.2-1.3-6.8-2.1-10.6c-3-0.2-6.5-0.5-9.2-3.1
		c0.5,0.2,1.1,0.3,1.5,0.5c4,2.1,8.1,2.4,12.3,1.1c2.6-0.8,5.2-1.7,7.8-2.5c10.8-3.2,20.8,2.1,24.2,12.8c1,3,1.7,6.1,2.6,9.2
		c0.1-2.3,0-4.5-0.2-6.7c-0.2-4-0.9-8-3.6-11.2c-2.3-2.8-4.7-5.4-4.2-9.5c-0.2,0-0.5,0.1-0.7,0.1c-0.2,1.3-0.3,2.6-0.5,4.2
		c-5.7-5.4-12.4-5.5-19.4-3.8c-2.8,0.7-5.6,1.3-8.4,1.9c-5.2,1.1-10.3,1.2-15.6-0.7C51.4,121,51.6,121.3,51.7,121.6z M104.6,163
		c4.7-3,6.5-8.1,8.7-13.3c1.4,4.1,1.9,7.6-1.2,10.9c-3.5,3.8-7.5,6.4-12.5,7.4c-1.2,0.3-2.4,0.4-3.7,0.5c3.8,0.4,7.3-0.4,10.4-2.4
		c2.9-2,5.5-4.5,8-6.6c0.5,4.3-2.5,7.3-5.1,10.5c-2.5,1.5-5,3.2-8.3,2.6c2.7,1.2,6,0.2,8.4-2.5c1-0.9,2-1.8,3.3-2.9
		c-1.8,8.5-8.4,9.1-15.5,9.8c4.9,0.7,6.8,0.2,14.2-3.7c-1.5,2.4,0.7,5.6-2.5,6.6c-2.2,0.7-4.7,0.3-6.7,0.4c2.5,1.5,5.4,1,8.3-0.2
		c0.2,0.6,0.4,1,0.7,1.9c0.3-1.6,0.5-2.7,0.7-3.7c0.5,5.2,4.5,7.5,8,10.5c5,4.3,7.2,9.9,5.8,16.6c-1,4.4-4.7,6-8.7,3.8
		c-1.2-0.7-2.2-1.6-3.6-2.6c0.2,2.7,1.5,4.3,3.6,5.2c1.5,0.7,3.2,1.1,4.8,1.6c2.8,0.8,5.2,2,6.5,4.9c2-3.4,3.7-4.4,8.5-5
		c1.9-0.2,3.8-0.6,5.6-1.2c2.4-0.9,3.4-2.7,3.3-4.8c-3,2.5-6.2,2.5-9.3,0.6c-3.3-2-4.2-5.3-3.8-9c0.4-3.5,2.3-6.4,5-8.5
		c3.6-2.8,6.1-6.4,8.3-10.3c3,1.2,5.9,1.7,8.5-0.1c-2.3,0-4.6,0.1-6.9-0.1c-0.6,0-1.4-0.9-1.5-1.5c-0.3-1.6-0.3-3.2-0.4-5.1
		c4.1,3,8.2,4.5,13.5,3.7c-11.9-1.9-14.7-3.7-14.9-9.3c6.5,5.5,8.2,6.3,11.1,4.9c-7.3-0.1-14.4-7.5-12.8-13.4
		c5.6,6.7,13.2,10.7,18.2,9.3c-0.9-0.1-1.5-0.2-2.1-0.3c-6.1-0.7-10.9-3.7-14.8-8.4c-2.7-3.2-1.8-6.4-0.7-9.8
		c1.9,3.6,3.7,7.1,5.6,10.6c-1.3-3.7-2.9-7.2-4.5-10.7c-1-2.2,0.3-3.8,1.6-5.7c1.3,7.5,4.9,12.8,11.2,16.1c-4-2.7-7.2-6-9.1-10.5
		c-2.4-5.6-2.3-7.5,2.5-11.2c2.7-2.1,3.6-4.4,3.7-7.4c0-0.2,0-0.3,0-0.5c1-6.7,3.5-12.5,9.7-16.1c8.3-4.8,18.7-3.3,25.2,3.7
		c0.5,0.5,1.2,1.1,1.9,1.3c2.1,0.4,4.2,0.7,6.4,1c1.8,0.2,3.2-0.4,4.5-1.8c5.2-5.4,9.5-11.5,12.7-18.2c2.8-6,4.9-12.2,5.6-18.8
		c-4.3,8.3-9.5,16-16.1,22.7c4.7-12.5,9.8-24.8,20.5-33.7c-10.8,4.5-18.2,12.4-22.8,23.1c1.8-14.4,10.5-24.1,21.7-32.2
		c-15.9,6-27,17-34.1,32.3c-0.3-4.1,1-7.9,2.9-11.3c2-3.5,4.3-6.9,6.9-10c2.5-3,5.5-5.5,8.3-8.2c-0.2-0.1-0.3-0.3-0.5-0.4
		c-13.6,7.5-23.2,18.7-29.1,33.1c0.7-10.9,5.2-19.9,12.7-27.7c-0.6,0.1-1,0.3-1.3,0.5c-7.8,5.1-13.7,12-16.6,20.8
		c-2.7,8-7.5,14-14.6,18.3c-1.1,0.7-2.1,1.4-3.1,2.2c-6.2,4.5-10.6,10.4-13.2,17.5c-4.1,11.1-3.6,22.3-1.1,33.5
		c1,4.6,2.3,9.1,3.5,13.9c-1.9-1.3-3.2-2.5-3.1-4.7c0.1-1.4-0.3-2.8-0.6-4.3c-1-6.6-2.6-13.2-2.9-19.9c-0.4-13.6-0.1-27.2-0.1-40.7
		c-0.7,0.4-1,0.9-1,1.4c-0.9,5.7-2,11.3-2.6,17.1c-1.6,14.2-1.6,28.4,1,42.5c0.5,2.9,0.6,5.2-1.7,7.5c-2.3,2.4-4.8,3.4-7.6,2.2
		c-2.6-1.1-4.1-4.2-3.6-7.2c0.2-1.3,0.4-2.5,0.6-3.8c2.4-15.6,2.1-31.2-0.1-46.8c-0.6-4-1.4-8.1-2-12.1c-0.2,0-0.5,0-0.7,0.1
		c0,11.7,0,23.5,0,35.2c0,7.3-0.5,14.5-2.9,21.5c-1,2.8-1.4,5.7-2.2,8.6c-0.2,0.7-0.6,1.4-1,2.1c-0.2-0.1-0.4-0.2-0.6-0.2
		c0.2-0.9,0.5-1.8,0.7-2.7c1.4-7.2,3.5-14.3,4.1-21.6c1.4-17.2-3.8-31.8-19.1-41.3c-7.1-4.4-11.9-10.3-14.6-18.3
		c-2.8-8.5-8.5-15.1-15.9-20.2c-0.6-0.4-1.3-0.8-2-1.2c7.4,7.9,11.8,16.9,12.5,27.7c-2.9-6.9-6.7-13.4-11.7-19.1
		c-5-5.6-10.7-10.4-17.7-13.5c2.6,3.1,5.9,5.6,8.5,8.7c2.6,3.1,4.9,6.5,6.9,10.1c2.3,4.1,3.2,8.7,2.8,11.7
		c-6.9-16.1-18.3-27.3-34.6-33.4c11.7,8.2,20.7,18.2,22.3,33.2c-4.6-11.3-12.2-19.6-23.6-24.2c11,8.7,16.2,21,20.8,33.7
		C45.6,97.7,40.5,90.1,36.2,82c-0.1,0.5-0.1,0.9,0,1.3c0.1,0.4,0.1,0.8,0.2,1.2c2.5,12.4,8.3,23.2,16.4,32.9
		c3.3,3.9,6.9,4.5,11.2,3.6c1.5-0.3,3.3-0.7,4.3-1.7c6.1-6.1,15.7-7.9,23.5-4.1c1.5,0.7,3.3,1.1,4.3,2.2c3.8,4.3,6.5,9.2,7,15.1
		c0.2,2.9,1.2,5.4,3.9,7.2c2.9,1.9,3.3,4.7,2.2,8c-1.6,4.7-4.2,8.6-8.3,11.4c-0.3,0.2-0.7,0.4-1,0.7c-0.2,0.2-0.5,0.4-0.7,0.6
		c6.6-3.2,10-8.7,11.4-15.9c2.1,2.3,2.2,4.4,1.3,6.9c-1.6,4.5-4.1,8.3-7.5,11.5c-2.6,1.3-5.2,2.6-7.6,3.7
		C99.4,166.5,102.1,165.3,104.6,163z M162.8,122.4c-0.2-1.8-0.4-3.1-0.5-4.5c-0.2,0-0.4,0-0.6,0c0.4,3.7-1.5,6.4-3.7,9.1
		c-1.6,1.9-2.8,4.4-3.3,6.8c-0.8,3.9-0.9,7.9-1.3,11.9c1.5-4,2.5-8.2,4-12.1c2.7-6.9,11.3-12.1,18.5-11c4.5,0.7,8.8,2.4,13.1,3.5
		c6.7,1.7,13.3-0.7,16.8-5.7c-3.2,0.2-6.9,0.9-10.5,0.7c-3.7-0.2-7.4-1.3-11-2.1C176.7,117.2,169.4,116.1,162.8,122.4z M83.1,142.1
		c0.7-6,1.4-12.1,2.1-18.7c-2.7,0.4-4.9,0.9-7.2,1.1c-3.2,0.3-4.2,2.4-4.7,5.1C72.5,135.8,77.2,142.1,83.1,142.1z M174.3,123.1
		c-4.8,0.3-9,1.5-11.4,5c-1.9,2.8-0.8,6.4,1.1,9.3c1.8,2.9,4.3,4.7,8.1,5C172.9,135.9,173.6,129.7,174.3,123.1z M177.4,123.6
		c-1.5,6.2-2.9,12.4-4.4,18.6c5.7,0.7,11.2-3.5,11.7-9.3C185.2,125.8,183.6,124.6,177.4,123.6z M88.2,124.3
		c-1.5,6.3-2.8,12.2-4.2,18.1c6.5,0.6,10.9-4.4,11.8-8.8c0.6-2.9,0.1-5.2-2.8-6.7C91.5,126.2,90.1,125.4,88.2,124.3z M76.3,73.5
		c0.3,0,0.5-0.1,0.8-0.1c-0.2-0.7-0.2-1.4-0.5-2c-2.7-4.5-7-7.1-11.9-8.2c-5-1.2-10.2-1.8-15.3-2.9c-11.7-2.5-22.7-6.1-27.6-18.7
		c-0.1-0.3-0.7-0.5-1.1-0.7c-0.1,0.2-0.3,0.3-0.4,0.5c2.6,5.9,5.7,11.3,11.9,14.5c8.2,4.2,16.9,6,25.9,7.3
		C65.5,64.2,72.5,66.2,76.3,73.5z M235.5,40.9c-0.2-0.1-0.5-0.2-0.7-0.2c-0.7,1.3-1.4,2.6-2.1,3.9c-2.1,4.1-4.8,7.6-8.9,9.7
		c-6.1,3.2-12.6,5.3-19.4,6.5c-5.1,0.9-10.2,1.8-15.2,3.2c-4.1,1.1-7.4,3.7-9.6,7.5c-0.3,0.5-0.3,1.3-0.5,1.9
		c5.3-5.7,6.7-6.9,11.3-8.4c2.4-0.8,4.9-1.5,7.4-1.8c8.6-1.2,16.9-2.9,24.9-6.7c6.4-3,10-8.2,12.8-14.3
		C235.6,41.8,235.5,41.3,235.5,40.9z M66.3,60.6c-0.6-0.5-1-1.2-1.6-1.3c-3-0.9-5.9-1.9-9-2.4c-13.9-2-25.6-7.3-32.4-20.5
		c-0.2-0.4-0.8-0.5-1.7-1.1c0.3,1,0.4,1.3,0.6,1.6c0.3,0.6,0.5,1.2,0.8,1.7c6.1,10.8,15.8,16.3,27.6,18.7
		C55.7,58.4,60.8,59.4,66.3,60.6z M234.3,36.1c-0.2-0.2-0.5-0.4-0.7-0.5c-0.4,0.4-0.9,0.8-1.2,1.2c-1,1.5-1.8,3.2-2.9,4.7
		c-6.6,8.8-15.8,13.1-26.4,14.9c-4,0.7-7.9,1.8-11.8,2.8c-0.6,0.1-1,0.8-1.6,1.3c5.7-1.2,11-2.2,16.3-3.3c10.2-2.2,18.8-6.9,25-15.5
		C232.3,40,233.2,38,234.3,36.1z M30.6,38.4c-0.2,0.1-0.4,0.2-0.6,0.3c0,0.3-0.2,0.7,0,0.9c4,5.8,8.3,11.1,15.6,13
		c4,1,7.9,2.3,11.9,3.4c0.3,0.1,0.6-0.2,1.6-0.5c-1.2-0.7-1.9-1.2-2.7-1.4c-2.2-0.7-4.4-1.5-6.7-1.9c-7.2-1.1-12.7-4.7-16.9-10.7
		C32.3,40.4,31.4,39.4,30.6,38.4z M226.4,39.2c-0.2-0.2-0.4-0.5-0.6-0.7c-0.6,0.6-1.2,1-1.7,1.7c-4.2,6.1-9.3,10.6-16.9,11.8
		c-2.5,0.4-4.9,1.2-7.4,1.9c-0.8,0.2-1.6,0.8-2.3,1.2c0.6,0.6,1,0.7,1.4,0.6c3.4-0.9,6.7-2.1,10.1-2.8
		C217.1,51.3,222.1,45.7,226.4,39.2z M33,59c-2.1-1.5-4.4-2.8-6.2-4.7c-1.9-1.9-3.3-4.3-4.9-6.5c-1.5-2.2-3-4.4-4.4-6.7
		C17,46.5,27.8,58.7,33,59z M238.4,41.3c-1.5,2.2-2.9,4.5-4.4,6.7c-1.6,2.2-3,4.5-4.9,6.4c-1.8,1.8-4.1,3.1-6.4,4.8
		C227.8,59.2,239.6,45.9,238.4,41.3z M227.5,60.7c0.2,0.2,0.4,0.4,0.6,0.7c3.6-2.9,6.6-6.4,9-10.4c0.3-0.4,0.1-1,0.2-1.9
		C233.8,53.2,230.7,57,227.5,60.7z M29,61.2c-3.5-4.2-6.7-8-9.8-11.7C18.1,51.3,25.1,60.1,29,61.2z M150.4,230.7
		c0.8-5.3-0.4-9.3-3.5-12.7c0.8,1.9,2,3.7,2.5,5.7C150.1,225.7,150.1,227.9,150.4,230.7z M105.8,230c-0.3-4.5,1.1-8.5,3.7-12.1
		C106.1,221.3,105,225.4,105.8,230z M159.1,167.2c0.1-0.2,0.2-0.4,0.3-0.5c-2.9-1.5-5.8-3-8.7-4.4c-0.1,0.2-0.2,0.4-0.3,0.5
		C153.3,164.2,156.2,165.7,159.1,167.2z"/>
	<path class="st0" d="M51.7,121.6c-0.1-0.3-0.2-0.6-0.5-1.2c5.3,2,10.5,1.8,15.6,0.7c2.8-0.6,5.6-1.2,8.4-1.9
		c7-1.7,13.7-1.6,19.4,3.8c0.2-1.6,0.3-2.9,0.5-4.2c0.2,0,0.5-0.1,0.7-0.1c-0.5,4.1,1.9,6.7,4.2,9.5c2.7,3.2,3.3,7.2,3.6,11.2
		c0.1,2.2,0.2,4.5,0.2,6.7c-0.9-3.1-1.6-6.2-2.6-9.2c-3.5-10.7-13.5-16-24.2-12.8c-2.6,0.8-5.2,1.7-7.8,2.5c-4.2,1.3-8.3,1-12.3-1.1
		c-0.5-0.2-1-0.3-1.5-0.5C54.1,123.8,52.9,122.7,51.7,121.6z"/>
	<path class="st0" d="M109.2,170.1c2.6-3.2,5.6-6.2,5.1-10.5c-2.5,2.1-5.1,4.6-8,6.6c-3,2.1-6.6,2.9-10.4,2.4
		c1.2-0.2,2.5-0.3,3.7-0.5c5-1.1,9-3.7,12.5-7.4c3.1-3.3,2.6-6.7,1.2-10.9c-2.1,5.2-3.9,10.2-8.7,13.3c-0.1-0.1-0.1-0.1-0.2-0.2
		c3.5-3.2,5.9-7,7.5-11.5c0.9-2.5,0.8-4.6-1.3-6.9c-1.3,7.2-4.8,12.7-11.4,15.9c0.2-0.2,0.4-0.4,0.7-0.6c0.3-0.2,0.7-0.4,1-0.7
		c4.1-2.8,6.7-6.7,8.3-11.4c1.1-3.3,0.7-6.1-2.2-8c-2.7-1.8-3.7-4.3-3.9-7.2c-0.5-5.9-3.2-10.8-7-15.1c-1-1.1-2.8-1.5-4.3-2.2
		c-7.8-3.8-17.3-2-23.5,4.1c-1,1-2.8,1.4-4.3,1.7c-4.4,0.9-8,0.2-11.2-3.6c-8.2-9.7-13.9-20.4-16.4-32.9c-0.1-0.4-0.1-0.8-0.2-1.2
		c-0.1-0.4-0.1-0.8,0-1.3c4.3,8.1,9.3,15.6,15.8,22.1c-4.6-12.6-9.8-24.9-20.8-33.7c11.4,4.6,19,12.9,23.6,24.2
		c-1.6-15-10.6-25-22.3-33.2c16.3,6.1,27.7,17.3,34.6,33.4c0.4-3-0.5-7.6-2.8-11.7c-2-3.5-4.2-7-6.9-10.1c-2.6-3.1-5.8-5.6-8.5-8.7
		c7,3.1,12.7,7.9,17.7,13.5c5,5.7,8.7,12.1,11.7,19.1c-0.7-10.8-5.1-19.8-12.5-27.7c0.7,0.4,1.3,0.7,2,1.2
		c7.4,5.1,13.1,11.7,15.9,20.2c2.7,8,7.5,13.9,14.6,18.3c15.3,9.6,20.5,24.1,19.1,41.3c-0.6,7.3-2.7,14.4-4.1,21.6
		c-0.2,0.9-0.5,1.8-0.7,2.7c0.2,0.1,0.4,0.2,0.6,0.2c0.3-0.7,0.8-1.4,1-2.1c0.8-2.9,1.2-5.8,2.2-8.6c2.4-7,2.9-14.2,2.9-21.5
		c0-11.7,0-23.5,0-35.2c0.2,0,0.5,0,0.7-0.1c0.7,4,1.5,8,2,12.1c2.2,15.6,2.6,31.2,0.1,46.8c-0.2,1.3-0.4,2.5-0.6,3.8
		c-0.5,3,1,6.1,3.6,7.2c2.8,1.2,5.3,0.2,7.6-2.2c2.2-2.3,2.2-4.6,1.7-7.5c-2.5-14.1-2.6-28.3-1-42.5c0.7-5.7,1.7-11.4,2.6-17.1
		c0.1-0.5,0.3-1,1-1.4c0,13.6-0.3,27.2,0.1,40.7c0.2,6.7,1.9,13.3,2.9,19.9c0.2,1.4,0.6,2.9,0.6,4.3c-0.1,2.3,1.2,3.5,3.1,4.7
		c-1.2-4.8-2.5-9.3-3.5-13.9c-2.5-11.3-3-22.5,1.1-33.5c2.7-7.2,7-13.1,13.2-17.5c1-0.7,2.1-1.5,3.1-2.2
		c7.1-4.3,11.9-10.2,14.6-18.3c3-8.8,8.9-15.6,16.6-20.8c0.4-0.2,0.8-0.4,1.3-0.5c-7.5,7.8-11.9,16.8-12.7,27.7
		c5.9-14.4,15.4-25.6,29.1-33.1c0.2,0.1,0.3,0.3,0.5,0.4c-2.8,2.7-5.8,5.3-8.3,8.2c-2.6,3.1-4.9,6.5-6.9,10c-2,3.4-3.2,7.2-2.9,11.3
		c7.1-15.4,18.2-26.3,34.1-32.3c-11.2,8.1-19.9,17.8-21.7,32.2c4.7-10.6,12-18.6,22.8-23.1c-10.7,8.9-15.7,21.2-20.5,33.7
		c6.6-6.7,11.8-14.4,16.1-22.7c-0.7,6.6-2.8,12.8-5.6,18.8c-3.2,6.8-7.5,12.8-12.7,18.2c-1.3,1.3-2.6,2-4.5,1.8
		c-2.1-0.3-4.3-0.5-6.4-1c-0.7-0.1-1.4-0.7-1.9-1.3c-6.5-7-16.9-8.5-25.2-3.7c-6.2,3.6-8.7,9.4-9.7,16.1c0,0.2,0,0.3,0,0.5
		c-0.2,3-1,5.4-3.7,7.4c-4.8,3.6-4.9,5.5-2.5,11.2c1.9,4.5,5.1,7.9,9.1,10.5c-6.4-3.3-10-8.6-11.2-16.1c-1.4,1.9-2.7,3.5-1.6,5.7
		c1.6,3.5,3.2,7,4.5,10.7c-1.8-3.5-3.7-7-5.6-10.6c-1.1,3.3-1.9,6.5,0.7,9.8c3.9,4.7,8.7,7.7,14.8,8.4c0.6,0.1,1.2,0.2,2.1,0.3
		c-5,1.4-12.6-2.5-18.2-9.3c-1.6,5.9,5.5,13.3,12.8,13.4c-2.8,1.4-4.6,0.6-11.1-4.9c0.2,5.6,3,7.4,14.9,9.3
		c-5.3,0.8-9.5-0.8-13.5-3.7c0.1,1.9,0.1,3.5,0.4,5.1c0.1,0.6,1,1.5,1.5,1.5c2.3,0.2,4.6,0.1,6.9,0.1c-2.7,1.7-5.5,1.3-8.5,0.1
		c-2.2,3.9-4.7,7.6-8.3,10.3c-2.7,2.1-4.6,5-5,8.5c-0.4,3.7,0.4,6.9,3.8,9c3.1,1.9,6.4,1.9,9.3-0.6c0.2,2.1-0.9,3.9-3.3,4.8
		c-1.8,0.7-3.7,1-5.6,1.2c-4.8,0.6-6.5,1.6-8.5,5c-1.2-2.9-3.7-4.1-6.5-4.9c-1.6-0.5-3.3-0.9-4.8-1.6c-2-0.9-3.4-2.5-3.6-5.2
		c1.3,1,2.4,2,3.6,2.6c3.9,2.2,7.7,0.6,8.7-3.8c1.4-6.6-0.8-12.3-5.8-16.6c-3.5-3-7.4-5.3-8-10.5c-0.2,1.1-0.4,2.1-0.7,3.7
		c-0.4-0.9-0.5-1.3-0.7-1.9c-2.9,1.1-5.8,1.6-8.3,0.2c2.1-0.1,4.6,0.3,6.7-0.4c3.2-1,1-4.2,2.5-6.6c-7.4,4-9.2,4.4-14.2,3.7
		c7.1-0.7,13.7-1.3,15.5-9.8c-1.3,1.1-2.3,2-3.3,2.9L109.2,170.1z M127.5,183.2c0.3-0.1,0.7-0.1,1-0.2c0.4,2.4,0.8,4.8,1.2,7.2
		c0.3,0.1,0.6,0.2,0.9,0.3c0.9-1.2,1.9-2.4,2.7-3.7c2.2-3.6,4.2-7.4,9.4-6.7c0.3,0,0.9-0.4,1-0.7c0.1-0.5,0-1.1-0.3-1.5
		c-1.1-1.1-2.2-2.1-3.4-3.1c-2.8-2.4-3.6-2.3-5.9,0.7c-3.8,4.9-9.3,4.8-12.8-0.3c-0.8-1.2-1.7-1.6-3-0.9c-0.7,0.3-1.5,0.6-2.3,0.7
		c-2,0.4-2.5,1.7-2.3,3.5c0.1,0.8,0.4,1.6,0.6,2.5c3.6-2,5.9-1.4,8,1.9c0.8,1.2,1.3,2.6,2.2,3.7c0.9,1.2,2.1,2.1,3.1,3.2
		c0.1-0.1,0.3-0.3,0.4-0.4C127.8,187.4,127.6,185.3,127.5,183.2z"/>
	<path class="st0" d="M162.8,122.4c6.5-6.3,13.9-5.2,21.4-3.5c3.7,0.8,7.3,1.9,11,2.1c3.6,0.2,7.2-0.4,10.5-0.7
		c-3.5,5-10.1,7.4-16.8,5.7c-4.4-1.1-8.7-2.8-13.1-3.5c-7.3-1.1-15.8,4.1-18.5,11c-1.5,3.9-2.5,8-4,12.1c0.4-4,0.5-8,1.3-11.9
		c0.5-2.4,1.8-4.8,3.3-6.8c2.2-2.7,4-5.3,3.7-9.1c0.2,0,0.4,0,0.6,0C162.4,119.2,162.6,120.6,162.8,122.4z"/>
	<path class="st0" d="M83.1,142.1c-5.9,0-10.7-6.3-9.7-12.5c0.4-2.8,1.5-4.8,4.7-5.1c2.3-0.2,4.5-0.7,7.2-1.1
		C84.5,130,83.8,136.1,83.1,142.1z"/>
	<path class="st0" d="M174.3,123.1c-0.8,6.6-1.5,12.8-2.2,19.2c-3.7-0.3-6.3-2.1-8.1-5c-1.8-2.9-3-6.5-1.1-9.3
		C165.3,124.6,169.6,123.5,174.3,123.1z"/>
	<path class="st0" d="M177.4,123.6c6.3,0.9,7.9,2.1,7.2,9.4c-0.5,5.8-5.9,10-11.7,9.3C174.4,136,175.9,129.8,177.4,123.6z"/>
	<path class="st0" d="M88.2,124.3c1.9,1,3.3,1.9,4.8,2.7c2.9,1.4,3.3,3.8,2.8,6.7c-0.9,4.4-5.3,9.4-11.8,8.8
		C85.3,136.5,86.7,130.7,88.2,124.3z"/>
	<path d="M76.3,73.5c-3.8-7.4-10.8-9.4-18.1-10.4c-9-1.3-17.8-3.1-25.9-7.3c-6.2-3.2-9.3-8.6-11.9-14.5c0.1-0.2,0.3-0.3,0.4-0.5
		c0.4,0.2,0.9,0.4,1.1,0.7c4.8,12.7,15.9,16.2,27.6,18.7c5.1,1.1,10.3,1.7,15.3,2.9c4.9,1.2,9.2,3.7,11.9,8.2c0.3,0.6,0.3,1.3,0.5,2
		C76.8,73.4,76.5,73.5,76.3,73.5z"/>
	<path d="M235.5,40.9c0,0.4,0.1,0.9,0,1.2c-2.7,6.1-6.4,11.3-12.8,14.3c-7.9,3.7-16.3,5.5-24.9,6.7c-2.5,0.3-5,1-7.4,1.8
		c-4.6,1.5-6,2.7-11.3,8.4c0.1-0.6,0.1-1.4,0.5-1.9c2.2-3.8,5.6-6.3,9.6-7.5c5-1.4,10.1-2.4,15.2-3.2c6.8-1.2,13.3-3.2,19.4-6.5
		c4.1-2.2,6.9-5.6,8.9-9.7c0.7-1.3,1.4-2.6,2.1-3.9C235,40.8,235.2,40.8,235.5,40.9z"/>
	<path d="M66.3,60.6c-5.5-1.2-10.6-2.2-15.6-3.3c-11.8-2.4-21.5-7.9-27.6-18.7c-0.3-0.6-0.6-1.1-0.8-1.7c-0.1-0.3-0.2-0.6-0.6-1.6
		c0.9,0.6,1.6,0.7,1.7,1.1c6.8,13.2,18.5,18.4,32.4,20.5c3,0.4,6,1.5,9,2.4C65.3,59.4,65.7,60.1,66.3,60.6z"/>
	<path d="M234.3,36.1c-1.1,1.9-2,3.9-3.3,5.6c-6.2,8.6-14.9,13.3-25,15.5c-5.3,1.1-10.5,2.2-16.3,3.3c0.6-0.5,1-1.2,1.6-1.3
		c3.9-1,7.8-2.2,11.8-2.8c10.6-1.8,19.8-6.2,26.4-14.9c1.1-1.4,1.9-3.1,2.9-4.7c0.3-0.5,0.8-0.8,1.2-1.2
		C233.8,35.7,234,35.9,234.3,36.1z"/>
	<path d="M30.6,38.4c0.8,1,1.6,2,2.4,3.1c4.1,5.9,9.6,9.6,16.9,10.7c2.3,0.3,4.5,1.2,6.7,1.9c0.8,0.2,1.4,0.7,2.7,1.4
		c-1,0.3-1.4,0.6-1.6,0.5c-4-1.1-7.9-2.3-11.9-3.4c-7.3-1.8-11.7-7.2-15.6-13c-0.1-0.2,0-0.6,0-0.9C30.2,38.6,30.4,38.5,30.6,38.4z"
		/>
	<path d="M226.4,39.2c-4.3,6.5-9.2,12-17.4,13.7c-3.4,0.7-6.7,1.9-10.1,2.8c-0.4,0.1-0.8,0-1.4-0.6c0.8-0.4,1.5-1,2.3-1.2
		c2.4-0.7,4.9-1.5,7.4-1.9c7.6-1.2,12.8-5.8,16.9-11.8c0.4-0.6,1.1-1.1,1.7-1.7C226,38.7,226.2,39,226.4,39.2z"/>
	<path d="M33,59c-5.2-0.3-16-12.5-15.6-17.8c1.5,2.2,2.9,4.5,4.4,6.7c1.6,2.2,3,4.6,4.9,6.5C28.6,56.2,30.9,57.5,33,59z"/>
	<path d="M238.4,41.3c1.2,4.7-10.7,17.9-15.8,17.9c2.4-1.7,4.7-3,6.4-4.8c1.9-1.9,3.4-4.2,4.9-6.4C235.6,45.8,237,43.5,238.4,41.3z"
		/>
	<path d="M227.5,60.7c3.1-3.7,6.3-7.5,9.8-11.7c-0.1,0.9,0,1.5-0.2,1.9c-2.5,4-5.4,7.5-9,10.4C227.9,61.1,227.7,60.9,227.5,60.7z"/>
	<path d="M29,61.2c-3.9-1-10.9-9.9-9.8-11.7C22.3,53.2,25.5,57,29,61.2z"/>
	<path d="M150.4,230.7c-0.3-2.8-0.4-5-0.9-7c-0.6-2-1.8-3.8-2.5-5.7C150,221.4,151.2,225.4,150.4,230.7z"/>
	<path d="M105.8,230c-0.8-4.6,0.3-8.7,3.7-12.1C106.9,221.5,105.5,225.5,105.8,230z"/>
	<path d="M109.3,170.2c-2.4,2.7-5.7,3.7-8.4,2.5c3.3,0.6,5.7-1.1,8.3-2.6L109.3,170.2z"/>
	<path d="M159.1,167.2c-2.9-1.5-5.8-3-8.7-4.5c0.1-0.2,0.2-0.4,0.3-0.5c2.9,1.5,5.8,3,8.7,4.4C159.3,166.8,159.2,167,159.1,167.2z"
		/>
	<path d="M104.6,163c-2.5,2.2-5.1,3.4-7.8,3.5c2.4-1.2,5-2.4,7.6-3.7C104.4,162.9,104.5,163,104.6,163z"/>
	<path d="M127.5,183.2c0.2,2.1,0.3,4.2,0.5,6.3c-0.1,0.1-0.3,0.3-0.4,0.4c-1-1.1-2.2-2-3.1-3.2c-0.9-1.1-1.4-2.5-2.2-3.7
		c-2.1-3.3-4.4-3.9-8-1.9c-0.2-0.9-0.4-1.7-0.6-2.5c-0.3-1.8,0.2-3.1,2.3-3.5c0.8-0.1,1.6-0.4,2.3-0.7c1.3-0.6,2.2-0.3,3,0.9
		c3.6,5.1,9.1,5.2,12.8,0.3c2.3-3,3.1-3.1,5.9-0.7c1.2,1,2.3,2,3.4,3.1c0.3,0.3,0.4,1,0.3,1.5c-0.1,0.3-0.7,0.8-1,0.7
		c-5.2-0.7-7.2,3.1-9.4,6.7c-0.8,1.3-1.8,2.4-2.7,3.7c-0.3-0.1-0.6-0.2-0.9-0.3c-0.4-2.4-0.8-4.8-1.2-7.2
		C128.1,183,127.8,183.1,127.5,183.2z"/>
</g>
</svg>
