<?xml version="1.0" encoding="utf-8"?>
<!-- Generator: Adobe Illustrator 18.1.1, SVG Export Plug-In . SVG Version: 6.00 Build 0)  -->
<!DOCTYPE svg PUBLIC "-//W3C//DTD SVG 1.1//EN" "http://www.w3.org/Graphics/SVG/1.1/DTD/svg11.dtd">
<svg version="1.1" xmlns="http://www.w3.org/2000/svg" xmlns:xlink="http://www.w3.org/1999/xlink" x="0px" y="0px"
	 viewBox="-201 349.8 402 420.4" style="enable-background:new -201 349.8 402 420.4;" xml:space="preserve">
<style type="text/css">
	.st0{fill:none;stroke:#000000;stroke-miterlimit:10;}
	.st1{fill:none;stroke:#000000;stroke-width:2;stroke-miterlimit:10;}
	.st2{fill:#FFFFFF;}
	.st3{display:none;}
	.st4{display:inline;}
	.st5{fill:#FF0000;}
	.st6{fill:#FFFFFF;stroke:#FFFFFF;stroke-miterlimit:10;}
	.st7{stroke:#FFFFFF;stroke-miterlimit:10;}
</style>
<g id="Layer_1">
	<g>
		<g id="Layer_3">
			<path d="M127.9,402.7c-10.7,3.5-22,5.2-32.5,9.2c-24.9,9.7-42.7,32.2-55,55.8c-14.7,28.1-23.4,59.4-25.4,91.1
				c2.1-14.3,9.2-27.4,16.2-40.2c8-14.6,16.2-29.4,27.4-41.7c19.4-21.3,46.4-33.6,70.6-49.3c24.2-15.6,47.4-37.5,51.5-66.1
				C168.5,381,149.5,395.7,127.9,402.7z"/>
			<path d="M103.2,670.4c1.7,0.3,3.5,0.9,4.8,2.1c3.5,3.2,1.4,9.2-1.6,13c-4.2,5.4-9.6,10-15.7,13c16.3-3.8,27.7-18,38.9-30.5
				c11.3-12.4,26-24.7,42.6-22.6c-6.1-4.7-14-7.2-21.7-6.8c18.6-7.5,33-24.8,37-44.5c-5.3,8-12.9,14.4-21.7,18.3
				c8.5-13.5,14.5-28.7,15.8-44.5c1.2-15.8-2.5-32.3-12.1-45.1c-3.1-4.1-6.7-7.8-9.1-12.2c-6.8-12.6-2.5-28.7,5.7-40.5
				c1.7-2.5,3.9-5.1,6.9-5.9c3-0.8,6.8,1,6.9,4.1c-0.8-4.1-4.8-7.2-9-7.7c-4.2-0.5-8.4,1.1-11.8,3.7c-9,6.7-12.5,18.7-13,29.9
				c-0.5,11.3,1.2,22.5,0.2,33.7c-2.2,22.9-16.4,43.2-34.1,58s-38.6,24.8-59.2,35c31-2.9,61.2-13.3,87.5-30.1
				c-9.8,13.5-24.3,22.9-39.8,28.7s-32.2,8.1-48.8,9.2c27.7,6.4,57.8,1.2,81.8-13.9c-0.3,6.6-6.2,11.5-12,14.9
				c-22.8,13.3-50.8,17.4-76.5,11.3c26.6,10,56.8,10.7,83.8,1.8c-3.1,9.8-13.7,14.9-23.7,17.1c-20,4.5-41.7,1.2-59.6-8.7
				c6.2,8.3,16.5,12.5,26.7,14.5C82.7,667.9,93.1,668.1,103.2,670.4z"/>
			<path class="st0" d="M178.5,363c15.2,34.8,7.6,78.3-18.5,105.9"/>
			<path class="st0" d="M28.2,574.3c-1.7,7-1,14.5,2,21.1c3,6.6,8.2,12.1,14.5,15.4"/>
			<path class="st0" d="M21.4,582c1,8.4,3.1,16.8,7.6,23.9s11.8,12.9,20.2,14"/>
			<path class="st0" d="M17.4,596.1c1.4,7.6,5.5,14.6,11.4,19.6c5.9,5,13.6,7.8,21.3,7.8"/>
			<path class="st0" d="M20.8,615.9c-0.1,0.1-0.2-0.2-0.1-0.2c0.1-0.1,0.3,0.1,0.3,0.2c2.8,3.5,5.3,7.3,8.8,10.2s8.1,4.7,12.5,3.5"
				/>
			<path class="st0" d="M24,626.8c5.3,7,14.7,10.7,23.4,9.3"/>
			<path class="st0" d="M40.7,640.5c-4.4,2.7-10.6,2.4-14.5-1"/>
			<path class="st1" d="M79.2,476c3.1-7.4,10.5-12.2,18.1-14.6c7.6-2.4,15.7-3,23.6-4.4c8-1.5,15.7-3.9,23.2-7.3
				c3.6-1.7,7.2-3.5,10.1-6.1c5.3-4.6,8.5-11.2,11.5-17.6"/>
			<path class="st1" d="M95.8,456.4c7.7-4.2,16.8-4.6,25.4-6.5c17.8-3.8,34.9-15,41.9-32"/>
			<path class="st1" d="M107.7,448.6c7.8-4.5,17.6-4.1,25.7-8c7.7-3.8,12.9-11,17.9-18"/>
			<path class="st1" d="M147,453.8c6-1.6,10.7-6.2,14.3-11.2c3.6-5.1,6.4-10.7,10.3-15.5"/>
			<path class="st1" d="M153.9,456.8c5.9-4.9,10.8-10.8,14.8-17.5"/>
			<path d="M48.3,712.3c1.7,2.9,3.7,6.6,7,6.4c2.6-0.1,4.5-2.8,4.5-5.4c0.1-2.6-1.1-5-2.4-7.3c-4.8-8.1-11.4-15.1-19.1-20.4
				c8.5-0.7,14.4,7.5,20.5,13.5c4,3.9,10,7.3,15,4.8c4.2-2.1,5.8-7.7,4.2-12.1c-1.5-4.4-5.4-7.6-9.7-9.5c-4.3-1.9-8.9-2.8-13.4-3.8
				c-5.7-1.4-11.4-3.3-15.8-7.2s-7.3-9.8-6.1-15.5c8.2,10,21.9,13,34.3,16.5c12.5,3.5,25.9,9.2,30.8,21.1c0.9,2.2,1.4,4.6,0.5,6.7
				c-0.7,1.7-2.2,2.9-3.7,4c-6.9,5.2-14.2,9.5-22.1,13c-10,4.5-21.3,8-28.4,16.4c1.4-11.8-2.3-24-10-33.1
				C40.3,702.7,45.2,707,48.3,712.3z"/>
			<path d="M-22.5,681.4c3.3,4.8,10.1,8.1,15,4.8c3-2,4.1-5.9,4.4-9.4c0.6-9.2-3.8-18.6-11.4-23.9c-1.7-1.2-3.6-2.3-5-3.8
				c-1.4-1.6-2.3-3.8-1.6-5.7c1.3-3.7,7-3.4,9.8-0.7c2.8,2.7,4,6.6,6.3,9.8c2.3,3.1,6.8,5.6,10,3.2c1.3-1,2-2.4,2.7-3.9
				c2.7-5.5,7.2-11.4,13.3-11c1.3,0.1,2.7,0.6,3.3,1.7c0.5,1,0.1,2.4-0.4,3.4c-2.9,6-9.3,9.4-13.5,14.7c-4.5,5.7-5.8,14.2-1.7,20.1
				s14.1,7.3,18.4,1.6c0.4,4-3.3,7.4-7.2,8.6c-3.8,1.2-8,1-12,2c-3.9,1-8,3.8-8.2,7.9c-0.3-3.6-3.6-6.2-6.9-7.5
				c-3.3-1.3-7-1.7-10.2-3.3C-20.4,688.3-23.2,684.9-22.5,681.4z"/>
			<path class="st1" d="M-19.4,648.1c-2.7-3.2-4.1-7.6-3.8-11.9c0.1-0.7,0.2-1.5,0.6-2.1c0.6-0.9,1.7-1.2,2.7-1.6
				c1.8-0.6,3.7-1.2,5.5-1.8c0.5-0.2,1-0.3,1.7-0.3c1.8,0.1,2.8,2.2,3.8,3.8c3.2,5.2,11.6,5.9,15.7,1.5c2.2-2.4,3.8-6.1,7-6.3
				c2-0.1,3.8,1.3,5.2,2.6c1.8,1.6,3.7,3.2,5.5,4.8c0.5,0.4,1.1,1,1.3,1.7c0.2,0.8-0.3,1.6-0.7,2.3c-2.6,4.5-5.3,8.9-8.8,12.7
				c-3.5,3.8-8,6.9-13,8c-2.2-5-3.1-10.5-3-15.9"/>
			<path d="M13.8,578.7c0.1,8.6,0.1,17.2,1.6,25.7c1.5,9.1,4.6,19,4.4,28.3c0-2.9-6.5-5.5-8.2-3.2c-7.3-34.2-5.2-70,2-104.2
				C13.5,543,13.6,560.8,13.8,578.7z"/>
			<path class="st0" d="M28.6,699.3c4.8,5.2,7,12.6,5.6,19.5"/>
			<path d="M-0.9,713c1.5,8,2.9,16.1,1.6,24c-0.6,3.7-1.7,7.3-2,11s0.6,7.8,3.4,10.3c-0.9-1.9-0.3-4.2,1-5.9s3.2-2.7,5.2-3.6
				c6.6-3,14.1-4,21-6.2c7-2.2,14-6.1,17.1-12.7c0.6-1.2,1-2.7,0.7-4.1c-0.2-0.7-0.6-1.4-1-2c-1.9-2.9-3.8-5.8-5.7-8.6
				c0.1,3.6,0.2,7.3-1.7,10.4c-2.1,3.7-6.4,5.5-10.4,6.9c-3.6,1.3-7.3,2.4-11.1,2.4c-3.8,0-7.8-1.2-10.3-4.1c-1.5-1.7-2.4-3.9-3.2-6
				C2.2,720.9,0.6,716.9-0.9,713z"/>
			<path d="M-13.4,579.6c-0.1,8.6-0.1,17.2-1.6,25.7c-1.5,9.1-6.6,18.2-6.5,27.4c2.8-1,7.7-2.2,10.3-2.4c7.3-34.2,5.2-70-2-104.2
				C-13.1,543.8-13.2,561.7-13.4,579.6z"/>
			<path d="M29.8,737c-1.5,1.1-3.1,2.1-4.8,2.8c-14.9,6.9-32.6,5.7-48-0.2c-6.8-2.6-13.6-6.4-17.1-12.8c4.2,3.4,10.3,3.9,15.4,2
				c5.1-1.9,9.2-5.9,12.2-10.3c3.1-4.5,5.1-9.6,7.1-14.6c1.6,2.2,4.7,3,7.2,1.9c1.2-0.5,2.3-1.5,3.5-2.3c1.1-0.7,2.6-1.2,3.9-0.7
				c-1.8,0.9-2.3,3.2-2.1,5.3c0.4,6.4,4.5,12.1,9.9,15.6s12,4.6,18.3,4.4C34.5,731.5,32.6,734.7,29.8,737z"/>
			<path d="M-19.6,450.4c0.5-1.7,1.7-3.8,3.6-3.6c1,0.1,1.8,0.9,2.4,1.7c1.8,2.5,2.5,5.8,3.1,8.8c3,16.7,3,33.9,7.2,50.3
				c-0.4-12.6,0.1-25.2,1.5-37.7c0.8-6.7,1.9-13.6,4.7-19.8c1-2,2.4-4.2,4.5-4.6c1.5-0.3,3.1,0.3,4.2,1.3c3.5,2.7,4.4,7.6,4.9,12
				c1.3,11.3,1.6,22.6,0.9,33.9c1.4-13.4,3-27.3,10.6-38.4c1.2-1.7,3-3.6,5.2-3.3c2.1,0.3,3.2,2.5,3.8,4.5c1.6,5.5,1,11.5-1.3,16.7
				c0.6-5.9,4.5-11.2,9.8-14.1c5.2-2.9,11.4-3.5,17.3-2.5c1.7,0.3,3.6,0.7,5.3,0.5s3.6-1.2,4.1-2.9c1-3.1-2.4-5.6-5.2-7
				c-14.3-6.8-29.7-11.3-45.3-14.3c-7.6-1.5-15.4-2.6-23.2-2.6c-23.2-0.2-45.3,9-66.7,18c-1,0.4-2,1-2,2c0,0.6,0.4,1.1,0.9,1.7
				c1,1.1,2.1,2.4,3.1,3.5c1.6,1.7,3.6,3.7,5.9,3.3c3.9-0.6,4.8-6.9,8.6-7.5c1.8-0.3,3.5,0.9,4.9,2c4.1,3.5,7.3,8,9.3,12.9
				c-0.7-4-1-8.1-0.8-12.2c0.1-1.5,0.4-3.2,1.8-3.8c1.8-0.6,3.3,1.4,4.2,3.1c6.5,14,11.1,28.8,13.9,43.9
				C-18,481.1-24.4,465.2-19.6,450.4z"/>
		</g>
		<g id="Layer_2">
			<path d="M98.5,468.4c-12.8,7-23.2,18.3-28.9,31.7c-2.4,5.6-4.1,11.6-7.4,16.7c-6.4,9.6-17.7,14.4-26.3,22
				c-11,9.8-17.3,24.2-19.1,38.9s0.3,29.5,4.2,43.9c2.1,7.7,4.6,15.4,5.2,23.3c3.6-11.1-3.3-22.6-5-34.2
				c-1.9-13.3,3.9-27.4,14.7-35.6c1.3-1,2.7-1.9,3.7-3.3c0.9-1.2,1.2-2.7,1.7-4.1c3.1-9.9,10.6-18.6,20.4-22.2
				c9.8-3.6,21.7-1.5,28.7,6.1c7.1,7.6,8.2,20.4,1.7,28.5c6.2-7.7,14.9-13,23.5-17.9c8.6-4.9,17.5-9.8,24.3-17
				c6.8-7.2,11.4-17.3,9.5-27c-3.4,9.6-10.7,17.4-19,23.2s-17.7,9.9-27.1,13.9c21-16.4,35.3-41.2,39.1-67.5
				c-6.7,14.1-15.7,27.1-26.6,38.4c8-20.8,17-42.8,35.3-55.5c-18.3,6.8-33.1,22.8-38.4,41.7c0.3-23.2,16.9-43.6,36.8-55.5
				c-25.4,8.6-46.6,29.2-55.7,54.4c-0.4-10,3.6-20,9.3-28.3c5.7-8.3,13.2-15.3,20.5-22.2c-22,11.3-39.4,31.5-47.3,55
				C76.5,497.9,84.8,480.1,98.5,468.4z"/>
			<path d="M-127.8,402.7c10.7,3.5,22,5.2,32.5,9.2c24.9,9.7,42.7,32.2,55,55.8c14.7,28.1,23.4,59.4,25.4,91.1
				C-17,544.5-24,531.4-31,518.7c-8-14.6-16.2-29.4-27.4-41.7c-19.4-21.3-46.4-33.6-70.6-49.3c-24.2-15.6-47.4-37.5-51.5-66.1
				C-168.5,381-149.5,395.7-127.8,402.7z"/>
			<path d="M-103.2,670.4c-1.7,0.3-3.5,0.9-4.8,2.1c-3.5,3.2-1.4,9.2,1.6,13c4.2,5.4,9.6,10,15.7,13c-16.3-3.8-27.7-18-38.9-30.5
				c-11.2-12.5-26-24.7-42.6-22.6c6.1-4.7,14-7.2,21.7-6.8c-18.6-7.5-33-24.8-37-44.5c5.3,8,12.9,14.4,21.7,18.3
				c-8.5-13.5-14.5-28.7-15.8-44.5c-1.3-15.8,2.5-32.3,12.1-45.1c3.1-4.1,6.7-7.8,9.1-12.2c6.8-12.6,2.5-28.7-5.7-40.5
				c-1.7-2.5-3.9-5.1-6.9-5.9c-3-0.8-6.8,1-6.9,4.1c0.8-4.1,4.8-7.2,9-7.7c4.2-0.5,8.4,1.1,11.8,3.7c9,6.7,12.5,18.7,13,29.9
				c0.5,11.2-1.2,22.5-0.2,33.7c2.2,22.9,16.4,43.2,34.1,58s38.6,24.8,59.2,35c-31-2.9-61.2-13.3-87.5-30.1
				c9.8,13.5,24.3,22.9,39.8,28.7c15.6,5.8,32.2,8.1,48.8,9.2c-27.7,6.4-57.8,1.2-81.8-13.9c0.3,6.6,6.2,11.5,12,14.9
				c22.8,13.3,50.8,17.4,76.5,11.3c-26.6,10-56.8,10.7-83.8,1.8c3.1,9.8,13.7,14.9,23.7,17.1c20,4.5,41.7,1.2,59.6-8.7
				c-6.2,8.3-16.5,12.5-26.7,14.5C-82.6,667.9-93.1,668.1-103.2,670.4z"/>
			<path class="st0" d="M-178.4,363c-15.2,34.8-7.6,78.3,18.5,105.9"/>
			<path class="st0" d="M-28.2,574.3c1.7,7,1,14.5-2,21.1c-3,6.6-8.2,12.1-14.5,15.4"/>
			<path class="st0" d="M-21.3,582c-1,8.4-3.1,16.8-7.6,23.9c-4.5,7.2-11.8,12.9-20.2,14"/>
			<path class="st0" d="M-17.3,596.1c-1.4,7.6-5.5,14.6-11.4,19.6c-5.9,5-13.6,7.8-21.3,7.8"/>
			<path class="st0" d="M-20.7,615.9c0.1,0.1,0.2-0.2,0.1-0.2s-0.3,0.1-0.3,0.2c-2.8,3.5-5.3,7.3-8.8,10.2s-8.1,4.7-12.5,3.5"/>
			<path class="st0" d="M-23.9,626.8c-5.3,7-14.7,10.7-23.4,9.3"/>
			<path class="st0" d="M-40.7,640.5c4.4,2.7,10.6,2.4,14.5-1"/>
			<path class="st1" d="M-79.2,476c-3.1-7.4-10.5-12.2-18.1-14.6c-7.6-2.4-15.7-3-23.6-4.4c-8-1.5-15.7-3.9-23.2-7.3
				c-3.6-1.7-7.2-3.5-10.1-6.1c-5.3-4.6-8.5-11.2-11.5-17.6"/>
			<path class="st1" d="M-95.8,456.4c-7.7-4.2-16.8-4.6-25.4-6.5c-17.8-3.8-34.9-15-41.9-32"/>
			<path class="st1" d="M-107.6,448.6c-7.8-4.5-17.6-4.1-25.7-8c-7.7-3.8-12.9-11-17.9-18"/>
			<path class="st1" d="M-147,453.8c-6-1.6-10.7-6.2-14.3-11.2c-3.6-5.1-6.4-10.7-10.3-15.5"/>
			<path class="st1" d="M-153.8,456.8c-5.9-4.9-10.8-10.8-14.8-17.5"/>
			<path d="M-48.2,712.3c-1.7,2.9-3.7,6.6-7,6.4c-2.6-0.1-4.5-2.8-4.5-5.4c-0.1-2.6,1.1-5,2.4-7.3c4.8-8.1,11.4-15.1,19.1-20.4
				c-8.5-0.7-14.4,7.5-20.5,13.5c-4,3.9-10,7.3-15,4.8c-4.2-2.1-5.8-7.7-4.2-12.1c1.5-4.4,5.4-7.6,9.7-9.5c4.3-1.9,8.9-2.8,13.4-3.8
				c5.7-1.4,11.4-3.3,15.8-7.2s7.3-9.8,6.1-15.5c-8.2,10-21.9,13-34.3,16.5c-12.5,3.5-25.9,9.2-30.8,21.1c-0.9,2.2-1.4,4.6-0.5,6.7
				c0.7,1.7,2.2,2.9,3.7,4c6.9,5.2,14.2,9.5,22.1,13c10,4.5,21.3,8,28.4,16.4c-1.4-11.8,2.3-24,10-33.1
				C-40.2,702.7-45.1,707-48.2,712.3z"/>
			<path class="st0" d="M-28.5,699.3c-4.8,5.2-7,12.6-5.6,19.5"/>
			<path d="M2.7,713c-1.5,8-2.9,16.1-1.6,24c0.6,3.7,1.7,7.3,2,11s-0.6,7.8-3.4,10.3c0.9-1.9,0.3-4.2-1-5.9s-3.2-2.7-5.2-3.6
				c-6.6-3-14.1-4-21-6.2c-6.9-2.2-14-6.1-17.1-12.7c-0.6-1.2-1-2.7-0.7-4.1c0.2-0.7,0.6-1.4,1-2c1.9-2.9,3.8-5.8,5.7-8.6
				c-0.1,3.6-0.2,7.3,1.7,10.4c2.1,3.7,6.4,5.5,10.4,6.9c3.6,1.3,7.3,2.4,11.1,2.4c3.8,0,7.8-1.2,10.3-4.1c1.5-1.7,2.4-3.9,3.2-6
				C-0.3,720.9,1.1,716.9,2.7,713z"/>
			<path d="M-98.4,468.4c12.8,7,23.2,18.3,28.9,31.7c2.4,5.6,4.1,11.6,7.4,16.7c6.4,9.6,17.7,14.4,26.3,22
				c11,9.8,17.3,24.2,19.1,38.9s-0.3,29.5-4.2,43.9c-2.1,7.7-4.6,15.4-5.2,23.3c-3.6-11.1,3.3-22.6,5-34.2
				c1.9-13.3-3.9-27.4-14.7-35.6c-1.3-1-2.7-1.9-3.7-3.3c-0.9-1.2-1.2-2.7-1.7-4.1c-3.1-9.9-10.6-18.6-20.4-22.2
				c-9.7-3.6-21.7-1.5-28.7,6.1c-7.1,7.6-8.2,20.4-1.7,28.5c-6.2-7.7-14.9-13-23.5-17.9s-17.5-9.8-24.3-17
				c-6.8-7.2-11.4-17.3-9.5-27c3.4,9.6,10.7,17.4,19,23.2s17.7,9.9,27.1,13.9c-21-16.4-35.3-41.2-39.1-67.5
				c6.7,14.1,15.7,27.1,26.6,38.4c-8-20.8-17-42.8-35.3-55.5c18.3,6.8,33.1,22.8,38.4,41.7c-0.3-23.2-16.9-43.6-36.8-55.5
				c25.4,8.6,46.6,29.2,55.7,54.4c0.4-10-3.6-20-9.3-28.3c-5.8-8.3-13.2-15.3-20.5-22.2c22,11.3,39.4,31.5,47.3,55
				C-76.4,497.9-84.7,480.1-98.4,468.4z"/>
		</g>
		<g id="eyes">
			<path class="st2" d="M85.6,539.4c-7.2-3.7-15.7-4.5-23.5-2.3s-14.5,7.7-18.2,14.9c-2.2,4.4-3.3,9.2-4,14.1
				c-1.4,9.8-1.4,19.7,0,29.5c1.7-5.6,6.6-9.9,12.1-12s11.5-2.3,17.4-1.9c7.1,0.4,14.7,1.6,20.7-2c3.9-2.4,6.6-6.4,7.8-10.8
				c1.2-4.4,1-9.1,0-13.5c-0.5-2.5-1.3-5-2.5-7.2C93.2,544.4,89.6,541.5,85.6,539.4z"/>
			<path d="M87,582.1c-3.4,1-7,1.1-10.5,1.1c-10.3,0.1-21.4-1.2-30.1,4.4c9.2-8.4,21.7-11.7,33.6-15.3c11.9-3.6,24.4-8.1,31.9-18
				c-2.2,6.1-5.1,12-9.2,17C98.7,576.4,93.2,580.4,87,582.1z"/>
			<path class="st2" d="M-84.1,541.1c7.2-3.7,15.7-4.5,23.5-2.3c7.7,2.3,14.5,7.7,18.2,14.9c2.2,4.4,3.3,9.2,4,14.1
				c1.4,9.8,1.4,19.7,0,29.5c-1.7-5.6-6.6-9.9-12.1-12s-11.5-2.3-17.4-1.9c-7.1,0.4-14.7,1.6-20.7-2c-3.9-2.4-6.6-6.4-7.8-10.8
				c-1.2-4.4-1-9.1,0-13.5c0.5-2.5,1.3-5,2.5-7.2C-91.7,546.1-88.2,543.2-84.1,541.1z"/>
			<path d="M-85.6,583.9c3.4,1,7,1.1,10.5,1.1c10.3,0.1,21.4-1.2,30.1,4.4c-9.2-8.4-21.7-11.7-33.6-15.3c-11.9-3.6-24.4-8.1-31.9-18
				c2.2,6.1,5.1,12,9.2,17C-97.3,578.2-91.8,582.2-85.6,583.9z"/>
		</g>
	</g>
</g>
<g id="Layer_2_3_" class="st3">
	<g class="st4">
		<g id="Layer_1_1_">
			<g id="Layer_3_1_">
				<path d="M127.8,402.9c-10.7,3.6-22.1,5.2-32.5,9.2c-24.9,9.7-42.7,32.2-55.1,55.7c-14.7,28.1-23.4,59.4-25.5,91.1
					c2.1-14.4,9.2-27.4,16.2-40.1c8.1-14.5,16.2-29.3,27.4-41.6c19.4-21.4,46.4-33.6,70.5-49.3c24.1-15.8,47.4-37.4,51.4-66
					C168.5,381.1,149.4,395.9,127.8,402.9z"/>
				<path d="M103.1,670.4c1.8,0.4,3.4,0.8,4.8,2.1c3.4,3.3,1.4,9.2-1.5,13c-4.2,5.5-9.6,10-15.8,13c16.3-3.7,27.7-17.9,38.9-30.4
					c11.2-12.5,26-24.7,42.6-22.6c-6.2-4.7-14-7.1-21.6-6.8c18.6-7.5,33-24.8,37-44.4c-5.3,8.1-12.9,14.4-21.6,18.2
					c8.5-13.4,14.5-28.6,15.8-44.4c1.2-15.8-2.5-32.3-12.2-45.1c-3-4.1-6.7-7.8-9-12.2c-6.8-12.6-2.5-28.6,5.6-40.4
					c1.8-2.5,4-5.1,6.8-5.9c3-0.8,6.8,1.1,6.8,4.1c-0.8-4.1-4.8-7.1-9-7.7c-4.2-0.5-8.4,1.1-11.8,3.7c-9,6.7-12.5,18.6-13,29.9
					c-0.5,11.2,1.2,22.5,0.1,33.7c-2.2,22.9-16.4,43.3-34.1,57.9c-17.7,14.8-38.6,24.8-59.2,35.1c31-2.9,61.2-13.3,87.5-30
					c-9.7,13.4-24.2,22.9-39.9,28.6c-15.5,5.8-32.2,8.1-48.8,9.2c27.7,6.4,57.7,1.2,81.8-13.8c-0.3,6.6-6.2,11.5-11.9,14.8
					c-22.7,13.3-50.7,17.4-76.4,11.2c26.6,10,56.7,10.7,83.7,1.8c-3,9.7-13.7,14.9-23.7,17.1c-20,4.5-41.6,1.2-59.6-8.8
					c6.2,8.4,16.4,12.5,26.7,14.5C82.6,667.9,93.1,668.1,103.1,670.4z"/>
				<path class="st0" d="M178.5,363.2c15.2,34.8,7.5,78.2-18.5,105.9"/>
				<path class="st0" d="M28.2,574.4c-1.6,7-1,14.5,2.1,21.1c3,6.6,8.2,12.1,14.5,15.3"/>
				<path class="st0" d="M21.4,582.1c1.1,8.4,3.2,16.7,7.5,24c4.5,7.1,11.8,12.9,20.1,14"/>
				<path class="st0" d="M17.4,596.2c1.4,7.5,5.5,14.5,11.5,19.6c5.9,4.9,13.6,7.8,21.4,7.8"/>
				<path class="st0" d="M20.8,616c-0.1,0.1-0.1-0.1-0.1-0.1c0.1-0.1,0.3,0.1,0.4,0.1c2.7,3.6,5.3,7.4,8.8,10.3
					c3.6,2.9,8.1,4.7,12.5,3.4"/>
				<path class="st0" d="M24,626.8c5.3,7,14.7,10.7,23.4,9.3"/>
				<path class="st0" d="M40.7,640.5c-4.4,2.7-10.5,2.3-14.5-1.1"/>
				<path class="st1" d="M79.2,476.2c3-7.4,10.5-12.2,18.1-14.5c7.5-2.5,15.8-3,23.6-4.4c7.9-1.5,15.8-4,23.1-7.4
					c3.6-1.6,7.1-3.4,10.1-6.2c5.3-4.7,8.5-11.2,11.5-17.5"/>
				<path class="st1" d="M95.7,456.5c7.7-4.2,16.7-4.7,25.5-6.4C139,446.2,156,435,163,418.1"/>
				<path class="st1" d="M107.7,448.8c7.8-4.5,17.5-4.1,25.6-8.1c7.7-3.7,12.9-11,17.9-17.9"/>
				<path class="st1" d="M146.8,454c6-1.5,10.7-6.2,14.4-11.2c3.6-5.1,6.4-10.7,10.3-15.5"/>
				<path class="st1" d="M153.8,457c5.9-4.9,10.8-10.8,14.8-17.5"/>
				<path d="M48.3,712.3c1.6,2.9,3.7,6.6,7,6.4c2.6-0.1,4.5-2.7,4.5-5.5c0.1-2.6-1.1-4.9-2.5-7.3c-4.8-8.1-11.4-15.1-19.2-20.4
					c8.5-0.7,14.4,7.5,20.5,13.4c4,4,10,7.3,15.1,4.8c4.2-2.1,5.8-7.7,4.2-12.1c-1.5-4.4-5.5-7.5-9.7-9.5c-4.2-1.9-8.9-2.7-13.4-3.8
					c-5.6-1.4-11.4-3.3-15.8-7.1c-4.5-3.8-7.4-9.7-6.2-15.5c8.2,10,21.9,13,34.4,16.4c12.5,3.4,25.9,9.2,30.8,21.1
					c0.8,2.2,1.4,4.7,0.5,6.7c-0.7,1.6-2.2,2.9-3.7,4c-6.8,5.2-14.2,9.5-22.1,13c-10,4.5-21.4,8.1-28.4,16.4
					c1.4-11.8-2.3-24-10-33.1C40.3,702.7,45.2,707,48.3,712.3z"/>
				<path d="M-22.5,681.5c3.3,4.8,10.1,8.1,15.1,4.8c3-2.1,4.1-5.9,4.4-9.5c0.5-9.2-3.8-18.6-11.4-24c-1.6-1.2-3.6-2.3-4.9-3.7
					c-1.4-1.5-2.3-3.7-1.5-5.6c1.4-3.7,7-3.4,9.7-0.7c2.7,2.7,4,6.6,6.3,9.7s6.8,5.6,10,3.3c1.4-1,2.1-2.5,2.7-4
					c2.7-5.5,7.1-11.4,13.3-11c1.4,0.1,2.7,0.5,3.3,1.8c0.5,1.1,0.1,2.3-0.4,3.4c-2.9,6-9.3,9.5-13.4,14.7
					c-4.5,5.6-5.8,14.1-1.6,20.1c4.1,5.9,14.1,7.3,18.5,1.5c0.4,4-3.3,7.4-7.1,8.6c-3.8,1.2-8.1,1.1-11.9,2.1c-4,1-7.9,3.8-8.2,7.8
					c-0.3-3.6-3.6-6.2-6.8-7.5c-3.3-1.4-7-1.8-10.3-3.3C-20.4,688.3-23.1,684.9-22.5,681.5z"/>
				<path class="st1" d="M-19.3,648.1c-2.7-3.3-4.1-7.5-3.8-11.9c0.1-0.7,0.1-1.5,0.5-2.1c0.5-0.8,1.6-1.2,2.7-1.5
					c1.8-0.5,3.7-1.2,5.5-1.8c0.5-0.1,1.1-0.4,1.6-0.4c1.8,0.1,2.7,2.2,3.7,3.7c3.3,5.2,11.6,5.9,15.8,1.5c2.2-2.3,3.7-6.2,7-6.3
					c2.1-0.1,3.7,1.4,5.2,2.6c1.8,1.5,3.7,3.3,5.5,4.8c0.5,0.4,1.1,1.1,1.4,1.8c0.1,0.8-0.3,1.5-0.7,2.3c-2.6,4.5-5.3,8.9-8.8,12.6
					c-3.4,3.7-7.9,6.8-13,8.1c-2.2-4.9-3.2-10.4-3-15.9"/>
				<path d="M13.8,578.8c0.1,8.5,0.1,17.3,1.5,25.6c1.5,9,4.7,19,4.4,28.4c0-2.9-6.4-5.5-8.2-3.3c-7.3-34.2-5.2-70,2.1-104.2
					C13.6,543,13.7,560.8,13.8,578.8z"/>
				<path class="st0" d="M28.6,699.3c4.8,5.2,7,12.6,5.6,19.4"/>
				<path d="M-0.8,713c1.5,7.9,2.9,16,1.5,24c-0.5,3.7-1.8,7.3-2.1,11s0.5,7.8,3.4,10.3c-0.8-1.9-0.3-4.2,1.1-5.9s3.3-2.7,5.2-3.6
					c6.6-3,14.1-4,21-6.2c7-2.2,14-6.2,17.1-12.6c0.5-1.2,1.1-2.7,0.7-4.1c-0.1-0.7-0.5-1.4-1.1-2.1c-1.9-2.9-3.8-5.8-5.6-8.6
					c0.1,3.6,0.1,7.4-1.6,10.4c-2.1,3.7-6.4,5.5-10.4,6.8c-3.6,1.4-7.4,2.5-11.1,2.5c-3.8,0-7.8-1.2-10.3-4.1c-1.5-1.8-2.3-4-3.3-6
					C2.2,720.8,0.7,716.8-0.8,713z"/>
				<path d="M-13.3,579.6c-0.1,8.5-0.1,17.3-1.5,25.6c-1.5,9-6.6,18.2-6.4,27.4c2.7-1,7.7-2.2,10.3-2.3c7.3-34.2,5.2-70-2.1-104.2
					C-13,544-13.1,561.8-13.3,579.6z"/>
				<path d="M29.9,737c-1.5,1.1-3.2,2.1-4.8,2.7c-14.9,6.8-32.6,5.6-47.9-0.1c-6.8-2.6-13.6-6.4-17.1-12.9c4.2,3.4,10.3,4,15.3,2.1
					c5.1-1.9,9.2-5.9,12.2-10.3c3-4.5,5.1-9.6,7.1-14.5c1.5,2.2,4.7,3,7.1,1.9c1.2-0.5,2.3-1.5,3.4-2.3c1.1-0.7,2.6-1.2,4-0.7
					c-1.8,0.8-2.3,3.3-2.1,5.3c0.4,6.4,4.5,12.2,9.9,15.5c5.5,3.4,11.9,4.7,18.2,4.4C34.5,731.5,32.6,734.8,29.9,737z"/>
				<path d="M-19.6,450.6c0.5-1.8,1.8-3.7,3.6-3.6c1.1,0.1,1.8,0.8,2.5,1.8c1.8,2.5,2.5,5.8,3,8.8c3,16.7,3,33.8,7.1,50.3
					c-0.4-12.6,0.1-25.2,1.5-37.7c0.8-6.7,1.9-13.6,4.7-19.9c1-2.1,2.3-4.2,4.5-4.7c1.5-0.3,3,0.4,4.2,1.4c3.6,2.7,4.4,7.5,4.9,11.9
					c1.4,11.2,1.5,22.6,0.8,33.8c1.4-13.4,3-27.4,10.5-38.3c1.2-1.8,3-3.6,5.2-3.3c2.1,0.4,3.3,2.5,3.7,4.5
					c1.5,5.5,1.1,11.5-1.4,16.7c0.5-5.9,4.5-11.2,9.7-14.1c5.2-2.9,11.5-3.6,17.3-2.5c1.8,0.3,3.6,0.7,5.3,0.5s3.6-1.2,4.1-2.9
					c1-3-2.3-5.6-5.2-7c-14.4-6.8-29.7-11.2-45.2-14.4c-7.5-1.5-15.3-2.6-23.1-2.6c-23.3-0.1-45.3,9-66.6,17.9
					c-1,0.4-2.1,1.1-2.1,2.1c0,0.5,0.4,1.1,0.8,1.6c1.1,1.1,2.1,2.3,3.2,3.6c1.5,1.8,3.6,3.7,5.9,3.3c4-0.5,4.8-6.8,8.6-7.5
					c1.8-0.3,3.4,0.8,4.9,2.1c4.1,3.4,7.4,7.9,9.3,12.9c-0.7-4-1-8.1-0.8-12.2c0.1-1.5,0.4-3.3,1.8-3.7c1.8-0.5,3.3,1.4,4.2,3.2
					c6.4,14,11.1,28.8,13.8,44C-17.9,481.2-24.4,465.4-19.6,450.6z"/>
			</g>
			<g id="Layer_2_2_">
				<path d="M98.5,468.5c-12.7,7-23.1,18.4-28.9,31.6c-2.5,5.6-4.1,11.6-7.4,16.7c-6.4,9.6-17.7,14.4-26.3,22.1
					c-11,9.7-17.3,24.2-19.2,38.9s0.4,29.4,4.2,43.8c2.1,7.7,4.7,15.3,5.2,23.3c3.6-11.1-3.3-22.6-4.9-34.1
					c-1.9-13.3,4-27.4,14.7-35.5c1.4-1,2.7-1.9,3.7-3.3c0.8-1.2,1.2-2.7,1.6-4.1c3.2-9.9,10.5-18.6,20.4-22.2
					c9.7-3.6,21.6-1.5,28.8,6.2c7.1,7.5,8.2,20.4,1.8,28.5c6.2-7.7,14.9-13,23.4-17.9c8.6-4.9,17.5-9.7,24.2-17
					c6.8-7.1,11.5-17.3,9.5-27c-3.4,9.6-10.7,17.4-18.9,23.3c-8.4,5.9-17.7,9.9-27.1,13.8c21-16.4,35.3-41.1,39-67.5
					c-6.7,14.1-15.8,27.1-26.6,38.3c8.1-20.8,17-42.7,35.3-55.5c-18.4,6.8-33.1,22.7-38.5,41.6c0.3-23.1,16.8-43.6,36.7-55.5
					c-25.5,8.5-46.6,29.2-55.7,54.4c-0.4-10,3.6-20,9.3-28.4c5.6-8.4,13.1-15.3,20.5-22.2c-22.1,11.2-39.4,31.4-47.3,54.9
					C76.4,498,84.8,480.3,98.5,468.5z"/>
				<path d="M-127.8,402.9c10.7,3.6,22.1,5.2,32.5,9.2c24.9,9.7,42.7,32.2,55.1,55.7c14.7,28.1,23.4,59.4,25.5,91.1
					c-2.1-14.4-9.2-27.4-16.2-40.1c-8.1-14.5-16.2-29.3-27.4-41.6c-19.4-21.4-46.4-33.6-70.5-49.3c-24.1-15.8-47.4-37.4-51.4-66
					C-168.3,381.1-149.4,395.9-127.8,402.9z"/>
				<path d="M-103.1,670.4c-1.8,0.4-3.6,0.8-4.8,2.1c-3.6,3.3-1.4,9.2,1.5,13c4.2,5.5,9.6,10,15.8,13c-16.3-3.7-27.7-17.9-38.9-30.4
					c-11.2-12.5-26-24.7-42.6-22.6c6.2-4.7,14-7.1,21.6-6.8c-18.6-7.5-33-24.8-37-44.4c5.3,8.1,12.9,14.4,21.6,18.2
					c-8.5-13.4-14.5-28.6-15.8-44.4c-1.4-15.8,2.5-32.3,12.2-45.1c3-4.1,6.7-7.8,9-12.2c6.8-12.6,2.5-28.6-5.6-40.4
					c-1.8-2.5-4-5.1-6.8-5.9c-3-0.8-6.8,1.1-6.8,4.1c0.8-4.1,4.8-7.1,9-7.7c4.2-0.5,8.4,1.1,11.8,3.7c9,6.7,12.5,18.6,13,29.9
					c0.5,11.2-1.2,22.5-0.1,33.7c2.2,22.9,16.4,43.3,34.1,57.9c17.7,14.8,38.6,24.8,59.2,35.1c-31-2.9-61.2-13.3-87.5-30
					c9.7,13.4,24.2,22.9,39.9,28.6c15.6,5.8,32.2,8.1,48.8,9.2c-27.7,6.4-57.7,1.2-81.8-13.8c0.3,6.6,6.2,11.5,11.9,14.8
					c22.7,13.3,50.7,17.4,76.4,11.2c-26.6,10-56.7,10.7-83.7,1.8c3,9.7,13.7,14.9,23.7,17.1c20,4.5,41.6,1.2,59.6-8.8
					c-6.2,8.4-16.4,12.5-26.7,14.5C-82.5,667.9-93,668.1-103.1,670.4z"/>
				<path class="st0" d="M-178.3,363.2c-15.2,34.8-7.5,78.2,18.5,105.9"/>
				<path class="st0" d="M-28.2,574.4c1.6,7,1,14.5-2.1,21.1c-3,6.6-8.2,12.1-14.5,15.3"/>
				<path class="st0" d="M-21.2,582.1c-1.1,8.4-3.2,16.7-7.5,24c-4.5,7.1-11.8,12.9-20.1,14"/>
				<path class="st0" d="M-17.3,596.2c-1.4,7.5-5.5,14.5-11.5,19.6c-5.9,4.9-13.6,7.8-21.4,7.8"/>
				<path class="st0" d="M-20.7,616c0.1,0.1,0.1-0.1,0.1-0.1c-0.1,0-0.3,0.1-0.4,0.1c-2.7,3.6-5.3,7.4-8.8,10.3
					c-3.6,2.9-8.1,4.7-12.5,3.4"/>
				<path class="st0" d="M-24,626.8c-5.3,7-14.7,10.7-23.4,9.3"/>
				<path class="st0" d="M-40.7,640.5c4.4,2.7,10.5,2.3,14.5-1.1"/>
				<path class="st1" d="M-79,476.2c-3-7.4-10.4-12.2-18.1-14.5c-7.5-2.3-15.8-3-23.6-4.4c-7.9-1.5-15.8-4-23.1-7.4
					c-3.6-1.6-7.1-3.4-10.1-6.2c-5.3-4.7-8.5-11.2-11.5-17.5"/>
				<path class="st1" d="M-95.7,456.5c-7.7-4.2-16.7-4.7-25.5-6.4C-139,446.2-156,435-163,418.1"/>
				<path class="st1" d="M-107.5,448.8c-7.8-4.5-17.5-4.1-25.6-8.1c-7.7-3.7-12.9-11-17.9-17.9"/>
				<path class="st1" d="M-146.8,454c-6-1.5-10.7-6.2-14.4-11.2c-3.6-5.1-6.4-10.7-10.3-15.5"/>
				<path class="st1" d="M-153.7,457c-5.9-4.9-10.8-10.8-14.8-17.5"/>
				<path d="M-48.2,712.3c-1.6,2.9-3.7,6.6-7,6.4c-2.6-0.1-4.5-2.7-4.5-5.5c-0.1-2.6,1.1-4.9,2.5-7.3c4.8-8.1,11.4-15.1,19.2-20.4
					c-8.5-0.7-14.4,7.5-20.5,13.4c-4,4-10,7.3-15.1,4.8c-4.2-2.1-5.8-7.7-4.2-12.1c1.5-4.4,5.5-7.5,9.7-9.5
					c4.2-1.9,8.9-2.7,13.4-3.8c5.6-1.4,11.4-3.3,15.8-7.1c4.5-3.8,7.4-9.7,6.2-15.5c-8.2,10-21.9,13-34.4,16.4
					c-12.5,3.4-25.9,9.2-30.8,21.1c-0.8,2.2-1.4,4.7-0.5,6.7c0.7,1.6,2.2,2.9,3.7,4c6.8,5.2,14.2,9.5,22.1,13
					c10,4.5,21.4,8.1,28.4,16.4c-1.4-11.8,2.3-24,10-33.1C-40.1,702.7-45.1,707-48.2,712.3z"/>
				<path class="st0" d="M-28.5,699.3c-4.8,5.2-7,12.6-5.6,19.4"/>
				<path d="M2.7,713c-1.5,7.9-2.9,16-1.5,24c0.5,3.7,1.8,7.3,2.1,11s-0.5,7.8-3.4,10.3c0.8-1.9,0.3-4.2-1.1-5.9s-3.3-2.7-5.2-3.6
					c-6.6-3-14.1-4-21-6.2s-14-6.2-17.1-12.6c-0.5-1.2-1.1-2.7-0.7-4.1c0.1-0.7,0.5-1.4,1.1-2.1c1.9-2.9,3.8-5.8,5.6-8.6
					c-0.1,3.6-0.1,7.4,1.6,10.4c2.1,3.7,6.4,5.5,10.4,6.8c3.6,1.4,7.4,2.5,11.1,2.5c3.8,0,7.8-1.2,10.3-4.1c1.5-1.8,2.3-4,3.3-6
					C-0.3,720.8,1.1,716.8,2.7,713z"/>
				<path d="M-98.3,468.5c12.7,7,23.1,18.4,28.9,31.6c2.5,5.6,4.1,11.6,7.4,16.7c6.4,9.6,17.7,14.4,26.3,22.1
					c11,9.7,17.3,24.2,19.2,38.9c1.8,14.7-0.4,29.4-4.2,43.8c-2.1,7.7-4.7,15.3-5.2,23.3c-3.6-11.1,3.3-22.6,4.9-34.1
					c1.9-13.3-4-27.4-14.7-35.5c-1.4-1-2.7-1.9-3.7-3.3c-0.8-1.2-1.2-2.7-1.6-4.1c-3.2-9.9-10.5-18.6-20.4-22.2
					c-9.7-3.6-21.6-1.5-28.8,6.2c-7.1,7.5-8.2,20.4-1.8,28.5c-6.2-7.7-14.9-13-23.4-17.9c-8.5-4.9-17.5-9.7-24.2-17
					c-6.8-7.1-11.5-17.3-9.5-27c3.4,9.6,10.7,17.4,18.9,23.3c8.4,5.9,17.7,9.9,27.1,13.8c-21-16.4-35.3-41.1-39-67.5
					c6.7,14.1,15.8,27.1,26.6,38.3c-8.1-20.8-17-42.7-35.3-55.5c18.4,6.8,33.1,22.7,38.5,41.6c-0.3-23.1-16.8-43.6-36.7-55.5
					c25.5,8.5,46.6,29.2,55.7,54.4c0.4-10-3.6-20-9.3-28.4s-13.1-15.3-20.5-22.2c22.1,11.2,39.4,31.4,47.3,54.9
					C-76.3,498-84.6,480.3-98.3,468.5z"/>
			</g>
			<path class="st2" d="M85.6,539.5c-7.1-3.7-15.8-4.5-23.4-2.3c-7.8,2.3-14.5,7.7-18.2,14.8c-2.2,4.4-3.3,9.2-4,14.1
				c-1.4,9.7-1.4,19.7,0,29.4c1.6-5.6,6.6-9.9,12.1-11.9c5.5-2.1,11.5-2.3,17.4-1.9c7.1,0.4,14.7,1.5,20.7-2.1
				c4-2.3,6.6-6.4,7.8-10.8c1.2-4.4,1-9,0-13.6c-0.5-2.5-1.4-4.9-2.5-7.1C93.1,544.4,89.6,541.5,85.6,539.5z"/>
			<path class="st2" d="M-84.1,541.2c7.1-3.7,15.8-4.5,23.4-2.3c7.7,2.3,14.5,7.7,18.2,14.8c2.2,4.4,3.3,9.2,4,14.1
				c1.4,9.7,1.4,19.7,0,29.4c-1.6-5.6-6.6-9.9-12.1-11.9s-11.5-2.3-17.4-1.9c-7.1,0.4-14.7,1.5-20.7-2.1c-4-2.3-6.6-6.4-7.8-10.8
				s-1-9,0-13.6c0.5-2.5,1.4-4.9,2.5-7.1C-91.6,546.2-88.1,543.3-84.1,541.2z"/>
		</g>
		<g id="Layer_2_1_">
			<g>
				<circle class="st5" cx="70.3" cy="565.6" r="17.5"/>
				<circle cx="70.3" cy="565.6" r="8.5"/>
				<circle class="st5" cx="-67" cy="565.6" r="17.5"/>
				<circle cx="-67" cy="565.6" r="8.5"/>
				<polyline class="st6" points="-64.9,548.2 -68.8,583 -60.7,549.3 -64.9,548.2 				"/>
				<polyline class="st6" points="72.6,548.2 68.6,583 76.7,549.3 72.6,548.2 				"/>
				<path class="st7" d="M40.7,598.3c-1.6-8.5,0.8-17.1,3.4-25.2c0.7-1.9,1.4-4,2.3-5.8c1.1-1.9,2.5-3.8,4.1-5.3
					c5.5-5.8,13-9.7,21-9.7c10,0.1,19,6.6,29,6.7c9.9,0.1,19.2-6.4,23.6-15.2c-2.3,3.4-6.7,4.8-10.8,5.5c-3.8,0.5-7.8,0.5-11.8,0
					c-5.5-0.8-10.8-2.3-16.3-3.6c-14.9-3.3-21.6-2.6-31.4,5.2c0.5-2.3,0-6.7-2.2-8.4c0,3-0.1,9-2.2,11.5c-1.4,1.6-2.5,3-3.8,4.5
					c-5.9,6.7-6.4,16.4-6.6,25.5C38.8,587.8,39.2,594.8,40.7,598.3"/>
				<path class="st7" d="M40.7,598.3c-1.6-8.5,0.8-17.1,3.4-25.2c0.7-1.9,1.4-4,2.3-5.8c1.1-1.9,2.5-3.8,4.1-5.3
					c5.5-5.8,13-9.7,21-9.7c10,0.1,19,6.6,29,6.7c9.9,0.1,19.2-6.4,23.6-15.2c-2.3,3.4-6.7,4.8-10.8,5.5c-3.8,0.5-7.8,0.5-11.8,0
					c-5.5-0.8-10.8-2.3-16.3-3.6c-14.9-3.3-21.6-2.6-31.4,5.2c0.5-2.3,0-6.7-2.2-8.4c0,3-0.1,9-2.2,11.5c-1.4,1.6-2.5,3-3.8,4.5
					c-5.9,6.7-6.4,16.4-6.6,25.5C38.8,587.8,39.2,594.8,40.7,598.3"/>
				<path class="st7" d="M-38.6,599.3c1.6-8.5-0.8-17.1-3.4-25.2c-0.7-1.9-1.4-4-2.3-5.8c-1.1-1.9-2.5-3.8-4.1-5.3
					c-5.5-5.8-13-9.7-21-9.7c-10,0.1-19,6.6-29,6.7c-9.9,0.1-19.2-6.4-23.6-15.2c2.3,3.4,6.7,4.8,10.8,5.5c3.8,0.5,7.8,0.5,11.8,0
					c5.5-0.8,10.8-2.3,16.3-3.6c14.9-3.3,21.6-2.6,31.4,5.2c-0.5-2.3,0-6.7,2.2-8.4c0,3,0.1,9,2.2,11.5c1.4,1.6,2.5,3,3.8,4.5
					c5.9,6.7,6.4,16.4,6.6,25.5C-36.7,588.9-37.1,595.7-38.6,599.3"/>
			</g>
		</g>
	</g>
</g>
</svg>
