<?xml version="1.0" encoding="utf-8"?>
<!-- Generator: Adobe Illustrator 18.1.1, SVG Export Plug-In . SVG Version: 6.00 Build 0)  -->
<!DOCTYPE svg PUBLIC "-//W3C//DTD SVG 1.1//EN" "http://www.w3.org/Graphics/SVG/1.1/DTD/svg11.dtd">
<svg version="1.1" id="Layer_1" xmlns="http://www.w3.org/2000/svg" xmlns:xlink="http://www.w3.org/1999/xlink" x="0px" y="0px"
	 viewBox="346.9 439.9 1219.5 206.4" enable-background="new 346.9 439.9 1219.5 206.4" xml:space="preserve">
<g>
	<path fill="#9D7C37" d="M433.1,589.8c-2.3,0.4-4.6,1-6.9,1c-14.1-0.2-28.2-0.6-42.4-0.6c-6,0-12,0.6-17.7,0.6
		c-2.3,0-4.6-1.2-6.9-1.7c0-0.6-0.2-1.4-0.2-1.9c2.1-0.8,4.4-2.5,6.6-2.5c14.5,0.2,20.8-8.5,24.7-21c9.5-30.3,19.5-60.4,29.3-90.6
		c0.4-1.5,0.6-3.1,1.2-5.4c-2.7-0.6-4.8-1.2-7.1-1.4c-12.7-0.8-25.5,0-37.2,5.4c-4.8,2.1-9.4,5.6-12.9,9.4c-5.4,6-3.9,12.3,3.1,16.6
		c1.5,1,3.5,1.7,5.2,2.5c6.9,2.7,8.1,10.2,2.5,15c-4.6,3.9-11.6,3.9-17.6,0.2c-9.8-6.4-12.5-20.2-6.2-31.2
		c4.6-8.1,12-13.3,20.2-17.2c13.5-6.2,28-8.3,42.6-9.3c18.7-1.2,37.2-0.8,55.5,3.5c3.5,0.8,6.8,2.1,9.8,3.7
		c21.8,9.8,19.9,36.8,5.8,47.8c-4.8,3.9-10.8,6.2-16.2,9.3c-1.5,0.8-3.1,1.5-4.6,2.3c0.2,1.3,0.2,2.3,0.6,3.3
		c13.5,32.4,29.9,63.1,53.8,88.9c8.9,9.4,18.7,17.7,31.8,20.6c2.1,0.4,4.4,0.6,6.8,0.6c6.2-0.4,9.6-4.2,9.1-10.6
		c-0.2-2.7-1-5.4-1.9-7.9c-1.5-4.4-0.6-7.9,3.1-10.6s9.5-2.5,12.5,0.4c4.2,3.7,4.8,8.5,3.9,13.7c-1.7,8.5-7.1,14.5-14.9,17.9
		c-21.6,9.6-42.2,6.9-61.9-5.2c-13.9-8.7-24.5-21-33.2-34.5c-11.6-18.5-22-38-32.8-57.1c-2.9-4.8-5.8-9.6-8.9-14.5
		c-0.6,0.2-1.2,0.2-1.9,0.4c-0.8,1.5-2.1,3.1-2.5,4.6c-3.7,12.3-7.1,24.7-10.4,37c-2.1,8.3-0.4,10.8,8.3,12.7
		c1.5,0.4,3.3,0.4,4.6,1.2c1.5,0.8,2.7,1.9,4,2.9C433.7,588.6,433.5,589.2,433.1,589.8z M447.2,469.6c-5.6,17.9-11.2,35.9-16.8,54
		c1.5,0.6,2.1,1,2.7,1c25.1-0.8,38-17.4,33.9-39.5C465.3,476,456.6,469,447.2,469.6z"/>
	<path fill="#9D7C37" d="M1121,589.6c-1.9,0.4-4.1,1.4-6,1.4c-8.1,0-16-0.6-24.1-0.6c-9.3,0-18.7,0.6-28,0.6c-2.1,0-4.2-1-6.6-1.5
		c0-0.6-0.2-1.4-0.2-1.9c2.1-1,4.2-2.5,6.4-2.7c7.5-1,12.3-5,14.5-12.3c4.2-13.7,8.3-27.6,12.7-42.2c-2.5-0.6-4.2-1.2-6-1.2
		c-12.9,0-26,0.2-39,0.2c-5.2,0-8.5,1.9-9.8,7.1c-2.9,11.6-6.4,23.1-8.9,34.9c-1.7,7.5,1.2,11.2,9.1,13.1c2.7,0.8,5.2,1.7,7.7,2.5
		c0,0.8,0,1.5,0,2.3c-2.5,0.6-5.2,1.7-7.7,1.7c-12.9,0-26-0.6-39-0.6c-5.2,0-10.2,0.6-15.4,0.6c-2.1,0-4.1-1-6.2-1.5
		c0-0.6-0.2-1.4-0.2-1.9c2.3-1,4.6-2.5,6.9-2.7c9.4-0.6,14.7-5.6,17.4-14.5c8.9-29.7,17.9-59.2,27-88.9c2.3-7.9,0.8-10-7.7-12
		c-2.7-0.6-5.2-1.7-7.9-2.7c0-0.8,0.2-1.5,0.2-2.3c1.9-0.4,4.1-1.4,6-1.4c7.1,0,14.5,0.6,21.6,0.6c10,0,19.9-0.6,29.9-0.6
		c1.9,0,4.1,1,6,1.4c0,0.6,0.2,1.3,0.2,1.9c-2.3,1-4.6,2.3-7.1,2.7c-6.6,1-11,4.4-13.1,10.4c-4.2,12.3-8.3,24.9-12.3,37.4
		c-0.2,0.8,0,1.9,0,3.5c1.5,0.2,3.1,0.4,4.6,0.4c13.9-0.2,27.6-0.6,41.5-0.8c4,0,5.8-2.1,7.1-5.8c4.2-11.6,7.9-23.5,13.3-34.5
		c10.8-21.4,29.1-33.8,52.1-39.3c4-1,8.9,0.2,13.1,1.3c3.7,1,4.4,4.1,2.5,7.3c-1.3,2.3-3.3,4.4-5.2,6.4c-2.5,2.5-5.2,2.5-8.3,0.4
		c-13.3-9.1-19.7-7.9-25.3,7.3c-8.1,22.2-14.8,44.9-21.6,67.7c-3.7,12.7-6.4,25.8-9.3,38.8c-1.9,9.1,0,12.1,8.9,14.9
		c2.1,0.6,4.2,1.9,6.4,2.9C1121.2,588.2,1121,588.8,1121,589.6z"/>
	<path fill="#9D7C37" d="M685,460.9c1.9-0.6,3.9-1.5,5.8-1.5c18.7-0.4,37.4-1,56.3-1c14.5,0,28.2,3.1,39.9,11.8
		c17.6,13.1,23.5,31.4,21,52.3c-4.6,36.6-29.7,61.7-66.3,66.3c-14.5,1.9-29.3,1.2-44.2,1.4c-12.2,0.2-24.3,0.4-36.6,0.4
		c-3.1,0-6.2-1-9.3-1.4c0-0.8,0-1.5-0.2-2.3c1.9-0.8,3.9-2.1,5.8-2.3c12-0.8,17.9-7.9,21.2-18.5c8.9-29.7,17.9-59.6,26.8-89.3
		c2.3-7.7,0.2-10.4-7.7-11.2c-4.1-0.4-8.1-1.2-12.3-1.7C685,462.9,685,461.9,685,460.9z M778.9,513.8c0-12.5-2.1-22.6-6.8-31.8
		c-4.1-8.1-10.4-13.3-18.7-16.2c-11.4-3.9-17.5-1-21,10.2c-5.8,18.3-11.4,36.8-16.4,55.3c-3.3,12-5.8,23.9-8.3,36.1
		c-2.3,12,1.9,17.7,16.6,17.2c12.7-0.6,23.1-7.7,32-16.2C772.2,552.9,778.1,533.2,778.9,513.8z"/>
	<path fill="#9D7C37" d="M812.1,586.9c2.5-1,4.4-2.3,6.8-2.5c10.6-1,17-6.9,19.9-16.8c9.3-30.5,18.5-60.9,27.6-91.6
		c2.1-6.9-0.2-9.8-7.5-10.6c-4.2-0.4-8.5-1.3-12.7-1.9c0-0.8,0-1.7-0.2-2.5c2.1-0.6,4.2-1.7,6.6-1.7c13.3-0.2,26.6-0.4,39.9-0.4
		c9.1,0,18.3-0.8,27.4,0.4c37.4,4.8,53.4,34.1,49.2,64.2c-5,35.9-29.7,60.6-66,65.2c-14.5,1.9-29.3,1.2-44.2,1.5
		c-12.3,0.2-24.7,0.4-37,0.4C818.6,590.5,815,591.3,812.1,586.9z M939.9,514.2c0-12.5-1.9-22.6-6.6-31.8
		c-4.1-8.3-10.8-13.9-19.7-16.6c-11-3.5-17-0.6-20.2,10.2c-5.8,18.3-11.4,36.8-16.4,55.3c-3.3,12-6,24.3-8.3,36.5
		c-2.3,11.6,4.6,18.5,16.4,17.2c12.5-1.5,23.1-7.7,32-16.4C933,553.1,939.2,533.6,939.9,514.2z"/>
	<path fill="#9D7C37" d="M1414,587.1c1.9-0.8,3.7-2.3,5.6-2.3c11-0.8,17-7.1,20.1-17.2c8.3-27.4,16.6-55,24.9-82.3
		c0.8-2.5,1.5-5.2,1.9-7.9c0.8-5.4-1-7.3-6.4-7.9c-2.9-0.4-5.8-0.6-8.7-1c-1.7-0.4-3.5-1-5.2-1.5c0-0.6-0.2-1.2-0.2-1.7
		c2.1-0.6,4.4-1.7,6.6-1.9c16.2-0.4,32.4-1,48.6-1c6.8,0,13.5,0.2,20.1,1.4c35.9,6.6,50.5,36.6,43.6,68.7
		c-6.8,30.7-30.5,52.3-63.1,56.5c-14.3,1.9-28.7,1.2-43.2,1.4c-10.4,0.2-20.8,0.4-31.2,0.2c-4.2,0-8.7-0.4-12.9-0.6
		C1414.2,588.8,1414.2,588,1414,587.1z M1538,510.9c-0.8-3.9-1.5-11-3.5-17.9c-3.3-11.6-10.2-20.2-22.2-23.9
		c-9.6-2.9-16-0.8-18.5,7.1c-9.8,30.5-19.7,60.9-25.5,92.6c-2.3,12.7,7.7,17.2,16.6,16c13.1-1.7,23.9-8.5,32.8-17.9
		C1531.6,552.3,1537.2,534.2,1538,510.9z"/>
	<path fill="#9D7C37" d="M583,521.7c10-1,19.7-1.2,28.9-2.9c3.7-0.8,6.6-5,9.8-7.9c1.7-1.7,3.3-3.7,5-5.8c2.3,3.7-7.7,38-12,41.3
		c-0.6-2.1-1.5-3.9-1.7-5.8c-1-9.5-3.1-11.4-12.5-11c-5.2,0.2-10.6,0.6-15.8,0.6c-3.5,0-5.8,1.5-6.8,4.8c-2.9,11-6,22-8.5,33.2
		c-2.1,10,1.9,14.7,12.1,15.4c1.9,0.2,3.9,0.2,5.8,0.6c14.9,2.3,27.2-2.3,36.8-13.9c3.1-3.5,6-7.1,9.1-10.6c1.2-1.3,2.7-2.3,4.8-3.9
		c0.4,1.9,0.8,2.9,0.6,3.7c-1.7,10.6-6.2,20.2-12.9,28.5c-1,1.4-3.3,2.1-5,2.1c-11.4,0.2-22.8,0.4-34.1,0.4c-19.7,0-39.1,0-58.8,0
		c-4.6,0-9.5,0.8-13.5-1.9c-0.2-0.6-0.2-1.2-0.4-1.7c2.1-0.8,4.1-2.1,6.2-2.3c11.2-1,17.7-6.4,21-17.7c8.1-28.7,17-57.1,25.5-85.6
		c2.9-9.8,0.8-13.1-9.1-15.6c-3.1-0.8-6-1.7-9.1-2.7c0-0.8,0.2-1.5,0.2-2.3c2.5-0.4,5-1.4,7.3-1.4c22.4,0.2,44.5,0.6,66.9,0.8
		c8.3,0,16.6-0.8,26.2-1.3c-2.9,10-6,20.1-8.9,29.9c-3.9,0-5-2.5-5.2-5.4c-1-14.3-5.2-16.8-20.6-16.8c-14.1,0-14.9,0.2-19.7,13.3
		c-4.2,12.2-7.7,24.7-11.4,37.2C583.2,518,583.2,519.2,583,521.7z"/>
	<path fill="#9D7C37" d="M1246.8,509.3c-4,12.7-7.9,25.6-12,38.4c-0.8,0-1.5-0.2-2.3-0.2c-0.6-2.1-1.3-4.2-1.5-6.6
		c-0.8-7.7-3.1-9.8-10.8-9.6c-5.8,0.2-11.6,0-17.4,1c-2.1,0.4-5.2,2.5-5.8,4.4c-3.3,11-6.4,22.2-8.7,33.6
		c-1.7,8.1,2.3,12.5,10.4,13.3c3.7,0.4,7.3,0.6,11,1c13.3,1.3,23.7-3.9,32.2-13.7c2.7-3.1,5-6.2,7.7-9.3c1.4-1.5,3.1-2.9,4.6-4.4
		c0.6,0.2,1,0.4,1.5,0.6c-0.2,2.3,0,5-1,7.1c-2.5,6.2-5.4,12.3-8.1,18.5c-2.5,5.6-7.3,7.7-13.3,7.5c-19.3-0.4-38.6-0.8-57.9-1
		c-11,0-21.8,0.6-32.8,0.6c-2.9,0-5.8-0.8-8.7-1.4c-0.2-0.8-0.2-1.4-0.4-2.1c2.1-1,4.2-2.5,6.4-2.7c11-1,17.2-6.4,20.2-17.2
		c7.7-27.4,16.4-54.6,24.5-82c0.4-1.5,0.8-3.1,1.2-4.6c1-6.2-0.6-8.5-6.4-10.6c-2.5-0.8-5-1.2-7.3-1.9c-1.5-0.6-3.1-1.4-4.6-1.9
		c0-0.6,0-1.2,0-1.7c2.5-0.6,5.2-1.4,7.7-1.4c21,0.2,42,0.6,63.1,0.8c8.7,0,17.6-0.8,27.2-1.4c-2.9,9.6-5.6,19.1-8.5,28.7
		c-3.5,1.2-4.4-1.7-5.4-4.2c-0.4-1.5-0.2-3.3-0.4-4.8c-1.3-8.1-4.4-11.2-12.5-12c-2.3-0.2-4.4-0.2-6.8-0.2
		c-12.7-0.6-14.8,0.4-18.9,12.1c-4.2,12.2-7.9,24.7-11.6,37.2c-0.2,0.8,0,1.9,0,3.7c8.3-0.4,16.2-0.8,24.3-1.2
		c9.3-0.4,12-9.8,18.5-14.1C1245.6,508.6,1246.2,509,1246.8,509.3z"/>
	<path fill="#9D7C37" d="M1401.3,589.4c-1.9,0.6-3.9,1.4-5.8,1.4c-17,0.4-33.9,0.8-50.9,1c-1.7,0-3.5-0.6-5.4-1
		c-0.2-0.6-0.4-1.2-0.4-1.7c1.7-1,3.5-2.3,5.2-2.7c9.1-1.2,13.9-6.4,15.8-15c1.9-9.3,4.2-18.5,6.4-27.6c0.2-1,0-1.9,0-3.3
		c-1.5-0.2-2.9-0.6-4.2-0.6c-8.7,0.6-17.4,1-25.8,2.1c-2.5,0.4-5.6,2.1-7.3,4.2c-6.4,7.5-12.7,15.2-18.3,23.5
		c-5.4,7.7-3.5,12.1,5.4,15.2c1.9,0.8,3.5,1.9,5.4,2.9c-0.2,0.6-0.2,1.2-0.4,1.9c-2.1,0.4-4,1.2-6.2,1.2c-14.1,0.2-28.2,0.2-42.2,0
		c-2.1,0-4.2-1-6.4-1.5c0-0.6-0.2-1.4-0.2-1.9c2.1-1,4.2-2.3,6.6-2.7c10.8-1.7,19.5-7.1,26.4-15.4c25.7-30.5,51.3-60.9,76.8-91.4
		c1.3-1.5,2.1-3.7,3.7-5c2.1-1.7,4.6-3.5,7.1-3.9c5.8-1,11.2-2.5,15.6-6.6c1.4-1.2,3.3-1.7,6.2-3.1c-0.4,3.5-0.2,5.6-0.8,7.5
		c-10.4,33.8-14.8,68.9-21.2,103.6c-1.5,8.9,1,13.3,9.6,14.5c1.9,0.2,3.7,1.7,5.6,2.7C1401.5,588,1401.5,588.8,1401.3,589.4z
		 M1376.2,489.5c-13.9,12.5-25.3,27-35.3,42.6c0.4,0.6,0.8,1.2,1.2,1.5c7.9-0.4,15.8-0.8,24.9-1.4
		C1372.3,518.6,1373.9,504.1,1376.2,489.5z"/>
</g>
</svg>
