<?xml version="1.0" encoding="utf-8"?>
<!-- Generator: Adobe Illustrator 18.1.1, SVG Export Plug-In . SVG Version: 6.00 Build 0)  -->
<!DOCTYPE svg PUBLIC "-//W3C//DTD SVG 1.1//EN" "http://www.w3.org/Graphics/SVG/1.1/DTD/svg11.dtd">
<svg version="1.1" id="Layer_1" xmlns="http://www.w3.org/2000/svg" xmlns:xlink="http://www.w3.org/1999/xlink" x="0px" y="0px"
	 viewBox="347.1 837.6 960.1 162.7" enable-background="new 347.1 837.6 960.1 162.7" xml:space="preserve">
<path fill="#9D7C37" d="M414.8,955.5c-1.8,0.3-3.6,0.8-5.4,0.8c-11.1-0.2-22.2-0.5-33.4-0.5c-4.7,0-9.4,0.5-13.9,0.5
	c-1.8,0-3.6-0.9-5.4-1.3c0-0.5-0.2-1.1-0.2-1.5c1.7-0.6,3.5-2,5.2-2c11.4,0.2,16.4-6.7,19.4-16.5c7.5-23.9,15.4-47.5,23.1-71.3
	c0.3-1.2,0.5-2.4,0.9-4.3c-2.1-0.5-3.8-0.9-5.6-1.1c-10-0.6-20.1,0-29.3,4.3c-3.8,1.7-7.4,4.4-10.2,7.4c-4.3,4.7-3.1,9.7,2.4,13.1
	c1.2,0.8,2.8,1.3,4.1,2c5.4,2.1,6.4,8,2,11.8c-3.6,3.1-9.1,3.1-13.9,0.2c-7.7-5-9.8-15.9-4.9-24.6c3.6-6.4,9.4-10.5,15.9-13.5
	c10.6-4.9,22-6.5,33.5-7.3c14.7-0.9,29.3-0.6,43.7,2.8c2.8,0.6,5.4,1.7,7.7,2.9c17.2,7.7,15.7,29,4.6,37.6
	c-3.8,3.1-8.5,4.9-12.8,7.3c-1.2,0.6-2.4,1.2-3.6,1.8c0.2,1,0.2,1.8,0.5,2.6c10.6,25.5,23.5,49.7,42.4,70c7,7.4,14.7,13.9,25,16.2
	c1.7,0.3,3.5,0.5,5.4,0.5c4.9-0.3,7.6-3.3,7.2-8.3c-0.2-2.1-0.8-4.3-1.5-6.2c-1.2-3.5-0.5-6.2,2.4-8.3c2.9-2.1,7.5-2,9.8,0.3
	c3.3,2.9,3.8,6.7,3.1,10.8c-1.3,6.7-5.6,11.4-11.7,14.1c-17,7.6-33.2,5.4-48.7-4.1c-10.9-6.8-19.3-16.5-26.1-27.2
	c-9.1-14.6-17.3-29.9-25.8-44.9c-2.3-3.8-4.6-7.6-7-11.4c-0.5,0.2-0.9,0.2-1.5,0.3c-0.6,1.2-1.7,2.4-2,3.6
	c-2.9,9.7-5.6,19.4-8.2,29.1c-1.7,6.5-0.3,8.5,6.5,10c1.2,0.3,2.6,0.3,3.6,0.9c1.2,0.6,2.1,1.5,3.1,2.3
	C415.2,954.5,415.1,955,414.8,955.5z M425.9,860.7c-4.4,14.1-8.8,28.3-13.2,42.5c1.2,0.5,1.7,0.8,2.1,0.8
	c19.8-0.6,29.9-13.7,26.7-31.1C440.1,865.8,433.3,860.3,425.9,860.7z"/>
<path fill="#9D7C37" d="M956.4,955.3c-1.5,0.3-3.2,1.1-4.7,1.1c-6.4,0-12.6-0.5-19-0.5c-7.3,0-14.7,0.5-22,0.5
	c-1.7,0-3.3-0.8-5.2-1.2c0-0.5-0.2-1.1-0.2-1.5c1.7-0.8,3.3-2,5-2.1c5.9-0.8,9.7-3.9,11.4-9.7c3.3-10.8,6.5-21.7,10-33.2
	c-2-0.5-3.3-0.9-4.7-0.9c-10.2,0-20.5,0.2-30.7,0.2c-4.1,0-6.7,1.5-7.7,5.6c-2.3,9.1-5,18.2-7,27.5c-1.3,5.9,0.9,8.8,7.2,10.3
	c2.1,0.6,4.1,1.3,6.1,2c0,0.6,0,1.2,0,1.8c-2,0.5-4.1,1.3-6.1,1.3c-10.2,0-20.5-0.5-30.7-0.5c-4.1,0-8,0.5-12.1,0.5
	c-1.7,0-3.2-0.8-4.9-1.2c0-0.5-0.2-1.1-0.2-1.5c1.8-0.8,3.6-2,5.4-2.1c7.4-0.5,11.6-4.4,13.7-11.4c7-23.4,14.1-46.6,21.3-70
	c1.8-6.2,0.6-7.9-6.1-9.4c-2.1-0.5-4.1-1.3-6.2-2.1c0-0.6,0.2-1.2,0.2-1.8c1.5-0.3,3.2-1.1,4.7-1.1c5.6,0,11.4,0.5,17,0.5
	c7.9,0,15.7-0.5,23.5-0.5c1.5,0,3.2,0.8,4.7,1.1c0,0.5,0.2,1,0.2,1.5c-1.8,0.8-3.6,1.8-5.6,2.1c-5.2,0.8-8.7,3.5-10.3,8.2
	c-3.3,9.7-6.5,19.6-9.7,29.4c-0.2,0.6,0,1.5,0,2.8c1.2,0.2,2.4,0.3,3.6,0.3c10.9-0.2,21.7-0.5,32.7-0.6c3.1,0,4.6-1.7,5.6-4.6
	c3.3-9.1,6.2-18.5,10.5-27.2c8.5-16.8,22.9-26.6,41-30.9c3.1-0.8,7,0.2,10.3,1c2.9,0.8,3.5,3.2,2,5.7c-1,1.8-2.6,3.5-4.1,5
	c-2,2-4.1,2-6.5,0.3c-10.5-7.2-15.5-6.2-19.9,5.7c-6.4,17.5-11.7,35.3-17,53.3c-2.9,10-5,20.3-7.3,30.5c-1.5,7.2,0,9.5,7,11.7
	c1.7,0.5,3.3,1.5,5,2.3C956.5,954.2,956.4,954.7,956.4,955.3z"/>
<path fill="#9D7C37" d="M613.1,853.9c1.5-0.5,3.1-1.2,4.6-1.2c14.7-0.3,29.4-0.8,44.3-0.8c11.4,0,22.2,2.4,31.4,9.3
	c13.9,10.3,18.5,24.7,16.5,41.2c-3.6,28.8-23.4,48.6-52.2,52.2c-11.4,1.5-23.1,0.9-34.8,1.1c-9.6,0.2-19.1,0.3-28.8,0.3
	c-2.4,0-4.9-0.8-7.3-1.1c0-0.6,0-1.2-0.2-1.8c1.5-0.6,3.1-1.7,4.6-1.8c9.4-0.6,14.1-6.2,16.7-14.6c7-23.4,14.1-46.9,21.1-70.3
	c1.8-6.1,0.2-8.2-6.1-8.8c-3.2-0.3-6.4-0.9-9.7-1.3C613.1,855.5,613.1,854.7,613.1,853.9z M687,895.5c0-9.8-1.7-17.8-5.4-25
	c-3.2-6.4-8.2-10.5-14.7-12.8c-9-3.1-13.8-0.8-16.5,8c-4.6,14.4-9,29-12.9,43.5c-2.6,9.4-4.6,18.8-6.5,28.4
	c-1.8,9.4,1.5,13.9,13.1,13.5c10-0.5,18.2-6.1,25.2-12.8C681.7,926.4,686.3,910.8,687,895.5z"/>
<path fill="#9D7C37" d="M713.1,953.2c2-0.8,3.5-1.8,5.4-2c8.3-0.8,13.4-5.4,15.7-13.2c7.3-24,14.6-47.9,21.7-72.1
	c1.7-5.4-0.2-7.7-5.9-8.3c-3.3-0.3-6.7-1-10-1.5c0-0.6,0-1.3-0.2-2c1.7-0.5,3.3-1.3,5.2-1.3c10.5-0.2,20.9-0.3,31.4-0.3
	c7.2,0,14.4-0.6,21.6,0.3c29.4,3.8,42,26.8,38.7,50.5c-3.9,28.3-23.4,47.7-52,51.3c-11.4,1.5-23.1,0.9-34.8,1.2
	c-9.7,0.2-19.4,0.3-29.1,0.3C718.2,956,715.4,956.6,713.1,953.2z M813.7,895.8c0-9.8-1.5-17.8-5.2-25c-3.2-6.5-8.5-10.9-15.5-13.1
	c-8.7-2.8-13.4-0.5-15.9,8c-4.6,14.4-9,29-12.9,43.5c-2.6,9.4-4.7,19.1-6.5,28.7c-1.8,9.1,3.6,14.6,12.9,13.5
	c9.8-1.2,18.2-6.1,25.2-12.9C808.3,926.6,813.2,911.1,813.7,895.8z"/>
<path fill="#9D7C37" d="M1187,953.3c1.5-0.6,2.9-1.8,4.4-1.8c8.7-0.6,13.4-5.6,15.8-13.5c6.5-21.6,13.1-43.3,19.6-64.8
	c0.6-2,1.2-4.1,1.5-6.2c0.6-4.3-0.8-5.7-5-6.2c-2.3-0.3-4.6-0.5-6.8-0.8c-1.3-0.3-2.8-0.8-4.1-1.2c0-0.5-0.2-0.9-0.2-1.3
	c1.7-0.5,3.5-1.3,5.2-1.5c12.8-0.3,25.5-0.8,38.3-0.8c5.4,0,10.6,0.2,15.8,1.1c28.3,5.2,39.8,28.8,34.3,54.1
	c-5.4,24.2-24,41.2-49.7,44.5c-11.3,1.5-22.6,0.9-34,1.1c-8.2,0.2-16.4,0.3-24.6,0.2c-3.3,0-6.8-0.3-10.2-0.5
	C1187.2,954.7,1187.2,954,1187,953.3z M1284.6,893.3c-0.6-3.1-1.2-8.7-2.8-14.1c-2.6-9.1-8-15.9-17.5-18.8
	c-7.6-2.3-12.6-0.6-14.6,5.6c-7.7,24-15.5,47.9-20.1,72.9c-1.8,10,6.1,13.5,13.1,12.6c10.3-1.3,18.8-6.7,25.8-14.1
	C1279.6,925.9,1284,911.6,1284.6,893.3z"/>
<path fill="#9D7C37" d="M532.8,901.8c7.9-0.8,15.5-0.9,22.8-2.3c2.9-0.6,5.2-3.9,7.7-6.2c1.3-1.3,2.6-2.9,3.9-4.6
	c1.8,2.9-6.1,29.9-9.4,32.5c-0.5-1.7-1.2-3.1-1.3-4.6c-0.8-7.5-2.4-9-9.8-8.7c-4.1,0.2-8.3,0.5-12.4,0.5c-2.8,0-4.6,1.2-5.4,3.8
	c-2.3,8.7-4.7,17.3-6.7,26.1c-1.7,7.9,1.5,11.6,9.5,12.1c1.5,0.2,3.1,0.2,4.6,0.5c11.7,1.8,21.4-1.8,29-10.9
	c2.4-2.8,4.7-5.6,7.2-8.3c0.9-1,2.1-1.8,3.8-3.1c0.3,1.5,0.6,2.3,0.5,2.9c-1.3,8.3-4.9,15.9-10.2,22.4c-0.8,1.1-2.6,1.7-3.9,1.7
	c-9,0.2-17.9,0.3-26.8,0.3c-15.5,0-30.8,0-46.3,0c-3.6,0-7.5,0.6-10.6-1.5c-0.2-0.5-0.2-0.9-0.3-1.3c1.7-0.6,3.2-1.7,4.9-1.8
	c8.8-0.8,13.9-5,16.5-13.9c6.4-22.6,13.4-44.9,20.1-67.4c2.3-7.7,0.6-10.3-7.2-12.3c-2.4-0.6-4.7-1.3-7.2-2.1c0-0.6,0.2-1.2,0.2-1.8
	c2-0.3,3.9-1.1,5.7-1.1c17.6,0.2,35,0.5,52.7,0.6c6.5,0,13.1-0.6,20.6-1c-2.3,7.9-4.7,15.8-7,23.5c-3.1,0-3.9-2-4.1-4.3
	c-0.8-11.3-4.1-13.2-16.2-13.2c-11.1,0-11.7,0.2-15.5,10.5c-3.3,9.6-6.1,19.4-9,29.3C532.9,898.8,532.9,899.8,532.8,901.8z"/>
<path fill="#9D7C37" d="M1055.4,892c-3.1,10-6.2,20.2-9.4,30.2c-0.6,0-1.2-0.2-1.8-0.2c-0.5-1.7-1-3.3-1.2-5.2
	c-0.6-6.1-2.4-7.7-8.5-7.6c-4.6,0.2-9.1,0-13.7,0.8c-1.7,0.3-4.1,2-4.6,3.5c-2.6,8.7-5,17.5-6.8,26.5c-1.3,6.4,1.8,9.8,8.2,10.5
	c2.9,0.3,5.7,0.5,8.7,0.8c10.5,1,18.7-3.1,25.3-10.8c2.1-2.4,3.9-4.9,6.1-7.3c1.1-1.2,2.4-2.3,3.6-3.5c0.5,0.2,0.8,0.3,1.2,0.5
	c-0.2,1.8,0,3.9-0.8,5.6c-2,4.9-4.3,9.7-6.4,14.6c-2,4.4-5.7,6.1-10.5,5.9c-15.2-0.3-30.4-0.6-45.6-0.8c-8.7,0-17.2,0.5-25.8,0.5
	c-2.3,0-4.6-0.6-6.8-1.1c-0.2-0.6-0.2-1.1-0.3-1.7c1.7-0.8,3.3-2,5-2.1c8.7-0.8,13.5-5,15.9-13.5c6.1-21.6,12.9-43,19.3-64.6
	c0.3-1.2,0.6-2.4,0.9-3.6c0.8-4.9-0.5-6.7-5-8.3c-2-0.6-3.9-0.9-5.7-1.5c-1.2-0.5-2.4-1.1-3.6-1.5c0-0.5,0-0.9,0-1.3
	c2-0.5,4.1-1.1,6.1-1.1c16.5,0.2,33.1,0.5,49.7,0.6c6.8,0,13.9-0.6,21.4-1.1c-2.3,7.6-4.4,15-6.7,22.6c-2.8,0.9-3.5-1.3-4.3-3.3
	c-0.3-1.2-0.2-2.6-0.3-3.8c-1-6.4-3.5-8.8-9.8-9.4c-1.8-0.2-3.5-0.2-5.4-0.2c-10-0.5-11.7,0.3-14.9,9.5c-3.3,9.6-6.2,19.4-9.1,29.3
	c-0.2,0.6,0,1.5,0,2.9c6.5-0.3,12.8-0.6,19.1-0.9c7.3-0.3,9.4-7.7,14.6-11.1C1054.5,891.4,1054.9,891.8,1055.4,892z"/>
<path fill="#9D7C37" d="M1177,955.1c-1.5,0.5-3.1,1.1-4.6,1.1c-13.4,0.3-26.7,0.6-40.1,0.8c-1.3,0-2.8-0.5-4.3-0.8
	c-0.2-0.5-0.3-0.9-0.3-1.3c1.3-0.8,2.8-1.8,4.1-2.1c7.2-0.9,10.9-5,12.4-11.8c1.5-7.3,3.3-14.6,5-21.7c0.2-0.8,0-1.5,0-2.6
	c-1.2-0.2-2.3-0.5-3.3-0.5c-6.8,0.5-13.7,0.8-20.3,1.7c-2,0.3-4.4,1.7-5.7,3.3c-5,5.9-10,12-14.4,18.5c-4.3,6.1-2.8,9.5,4.3,12
	c1.5,0.6,2.8,1.5,4.3,2.3c-0.2,0.5-0.2,0.9-0.3,1.5c-1.7,0.3-3.1,0.9-4.9,0.9c-11.1,0.2-22.2,0.2-33.2,0c-1.7,0-3.3-0.8-5-1.2
	c0-0.5-0.2-1.1-0.2-1.5c1.7-0.8,3.3-1.8,5.2-2.1c8.5-1.3,15.4-5.6,20.8-12.1c20.2-24,40.4-47.9,60.5-72c1-1.2,1.7-2.9,2.9-3.9
	c1.7-1.3,3.6-2.8,5.6-3.1c4.6-0.8,8.8-2,12.3-5.2c1.1-0.9,2.6-1.3,4.9-2.4c-0.3,2.8-0.2,4.4-0.6,5.9c-8.2,26.6-11.7,54.2-16.7,81.6
	c-1.2,7,0.8,10.5,7.6,11.4c1.5,0.2,2.9,1.3,4.4,2.1C1177.2,954,1177.2,954.7,1177,955.1z M1157.3,876.4
	c-10.9,9.8-19.9,21.3-27.8,33.5c0.3,0.5,0.6,0.9,0.9,1.2c6.2-0.3,12.4-0.6,19.6-1.1C1154.2,899.3,1155.5,887.9,1157.3,876.4z"/>
</svg>
