<?xml version="1.0" encoding="utf-8"?>
<!-- Generator: Adobe Illustrator 18.1.1, SVG Export Plug-In . SVG Version: 6.00 Build 0)  -->
<!DOCTYPE svg PUBLIC "-//W3C//DTD SVG 1.1//EN" "http://www.w3.org/Graphics/SVG/1.1/DTD/svg11.dtd">
<svg version="1.1" id="Layer_1" xmlns="http://www.w3.org/2000/svg" xmlns:xlink="http://www.w3.org/1999/xlink" x="0px" y="0px"
	 viewBox="0 0 960 560" style="enable-background:new 0 0 960 560;" xml:space="preserve">
<style type="text/css">
	.st0{fill:#FFFFFF;}
	.st1{fill:#9D7C37;}
</style>
<path class="st0" d="M155,345.5c0-43.3,0-86.7,0-130c217,0,434,0,651,0c0,43.3,0,86.7,0,130C589,345.5,372,345.5,155,345.5z
	 M206.8,305.8c0.1-0.3,0.2-0.7,0.4-1c-0.7-0.5-1.4-1.2-2.1-1.5c-0.7-0.3-1.6-0.4-2.4-0.6c-4.5-1.1-5.4-2.3-4.3-6.6
	c1.7-6.4,3.6-12.8,5.4-19.2c0.2-0.9,0.9-1.6,1.3-2.4c0.3-0.1,0.6-0.1,1-0.2c1.5,2.5,3.1,5,4.6,7.5c5.7,9.9,11,20,17,29.6
	c4.4,7.1,9.9,13.5,17.2,17.9c10.2,6.3,21,7.7,32.1,2.7c4-1.8,6.8-4.8,7.7-9.3c0.5-2.7,0.2-5.2-2-7.1c-1.6-1.4-4.6-1.5-6.5-0.2
	c-1.9,1.4-2.4,3.2-1.6,5.5c0.5,1.3,0.8,2.7,1,4.1c0.3,3.2-1.4,5.3-4.7,5.5c-1.1,0.1-2.3,0-3.5-0.3c-6.8-1.5-11.9-5.8-16.5-10.7
	c-12.5-13.4-21-29.3-27.9-46.1c-0.2-0.4-0.2-0.9-0.3-1.7c0.8-0.4,1.6-0.8,2.4-1.2c2.8-1.6,5.9-2.9,8.4-4.8c7.4-5.7,8.3-19.7-3-24.8
	c-1.7-0.8-3.4-1.5-5.1-1.9c-9.5-2.2-19.1-2.3-28.8-1.8c-7.6,0.4-15.1,1.6-22.1,4.8c-4.3,2-8.1,4.6-10.5,8.9
	c-3.3,5.7-1.9,12.9,3.2,16.2c3.1,2,6.7,1.9,9.1-0.1c3-2.5,2.3-6.4-1.3-7.8c-0.9-0.4-1.9-0.8-2.7-1.3c-3.6-2.2-4.4-5.5-1.6-8.6
	c1.8-2,4.2-3.8,6.7-4.9c6.1-2.8,12.7-3.2,19.3-2.8c1.2,0.1,2.3,0.4,3.7,0.7c-0.2,1.3-0.3,2.1-0.6,2.8c-5.1,15.7-10.3,31.3-15.2,47
	c-2,6.5-5.3,11-12.8,10.9c-1.1,0-2.2,0.8-3.4,1.3c0,0.3,0.1,0.7,0.1,1c1.2,0.3,2.4,0.9,3.6,0.9c3.1,0,6.2-0.3,9.2-0.3
	c7.3,0,14.6,0.2,22,0.3C204.5,306.4,205.7,306,206.8,305.8z M563.5,305.7c0-0.4,0.1-0.7,0.1-1.1c-1.1-0.5-2.2-1.2-3.3-1.5
	c-4.6-1.4-5.7-3-4.6-7.7c1.5-6.7,2.8-13.5,4.8-20.1c3.5-11.8,7-23.6,11.2-35.1c2.9-7.9,6.2-8.5,13.1-3.8c1.6,1.1,3,1.1,4.3-0.2
	c1-1,1.9-2.1,2.7-3.3c1-1.7,0.6-3.3-1.3-3.8c-2.2-0.6-4.7-1.2-6.8-0.7c-11.9,2.9-21.4,9.3-27,20.4c-2.9,5.7-4.7,11.9-6.9,17.9
	c-0.7,1.9-1.6,2.9-3.7,3c-7.2,0.1-14.3,0.3-21.5,0.4c-0.8,0-1.6-0.1-2.4-0.2c0-0.8-0.1-1.3,0-1.8c2.1-6.5,4.2-13,6.4-19.4
	c1.1-3.2,3.4-5,6.8-5.4c1.3-0.2,2.4-0.9,3.7-1.4c0-0.3-0.1-0.7-0.1-1c-1-0.3-2.1-0.7-3.1-0.7c-5.2,0-10.3,0.3-15.5,0.3
	c-3.7,0-7.5-0.3-11.2-0.3c-1,0-2.1,0.4-3.1,0.7c0,0.4-0.1,0.8-0.1,1.2c1.4,0.5,2.7,1.1,4.1,1.4c4.3,1,5.2,2.1,4,6.2
	c-4.6,15.4-9.4,30.7-14,46.1c-1.4,4.7-4.1,7.2-9,7.5c-1.2,0.1-2.4,0.9-3.6,1.4c0,0.3,0.1,0.7,0.1,1c1.1,0.3,2.1,0.8,3.2,0.8
	c2.7,0,5.3-0.4,8-0.3c6.7,0,13.5,0.3,20.2,0.3c1.3,0,2.7-0.6,4-0.9c0-0.4,0-0.8,0-1.2c-1.3-0.4-2.7-0.9-4-1.3
	c-4.1-1.1-5.5-2.9-4.7-6.8c1.4-6.1,3.1-12.1,4.6-18.1c0.7-2.7,2.3-3.7,5.1-3.7c6.7,0,13.5-0.1,20.2-0.1c0.9,0,1.8,0.3,3.1,0.6
	c-2.3,7.6-4.4,14.8-6.6,21.9c-1.1,3.7-3.5,5.8-7.5,6.4c-1.1,0.1-2.2,0.9-3.3,1.4c0,0.3,0.1,0.7,0.1,1c1.1,0.3,2.2,0.8,3.4,0.8
	c4.8,0,9.7-0.3,14.5-0.3c4.2,0,8.3,0.3,12.5,0.3C561.4,306.4,562.5,305.9,563.5,305.7z M337.4,239c0,0.5,0.1,1,0.1,1.4
	c2.1,0.3,4.2,0.7,6.4,0.9c4,0.4,5.1,1.8,4,5.8c-4.6,15.5-9.2,30.9-13.9,46.3c-1.6,5.5-4.8,9.2-11,9.6c-1,0.1-2,0.8-3,1.2
	c0,0.4,0,0.8,0.1,1.2c1.6,0.3,3.2,0.7,4.8,0.7c6.3,0,12.6-0.1,19-0.2c7.6-0.2,15.3,0.2,22.9-0.7c19-2.5,32-15.4,34.4-34.4
	c1.4-10.8-1.8-20.3-10.9-27.1c-6.1-4.6-13.2-6.2-20.7-6.1c-9.7,0.1-19.4,0.3-29.2,0.5C339.4,238.2,338.4,238.7,337.4,239z
	 M403.3,304.3c1.4,2.3,3.3,1.9,5,1.9c6.4,0,12.8-0.1,19.2-0.2c7.6-0.2,15.4,0.2,22.9-0.8c18.8-2.5,31.5-15.3,34.2-33.8
	c2.2-15.6-6.1-30.8-25.5-33.3c-4.7-0.6-9.4-0.2-14.2-0.2c-6.9,0-13.8,0-20.7,0.2c-1.1,0-2.2,0.6-3.4,0.9c0,0.4,0,0.9,0.1,1.3
	c2.2,0.3,4.4,0.8,6.6,1c3.7,0.4,4.9,1.8,3.9,5.5c-4.7,15.9-9.5,31.7-14.3,47.5c-1.5,5.1-4.8,8.2-10.3,8.7
	C405.7,303.2,404.6,303.8,403.3,304.3z M715.4,304.4c0.1,0.5,0.1,1,0.2,1.4c2.2,0.1,4.5,0.3,6.7,0.3c5.4,0,10.8,0,16.2-0.1
	c7.5-0.2,15,0.2,22.4-0.7c16.9-2.2,29.2-13.4,32.7-29.3c3.6-16.6-4-32.2-22.6-35.6c-3.4-0.6-6.9-0.7-10.4-0.7
	c-8.4,0-16.8,0.3-25.2,0.5c-1.1,0-2.3,0.6-3.4,1c0,0.3,0.1,0.6,0.1,0.9c0.9,0.3,1.8,0.7,2.7,0.8c1.5,0.2,3,0.3,4.5,0.5
	c2.8,0.3,3.6,1.3,3.3,4.1c-0.2,1.4-0.6,2.8-1,4.1c-4.3,14.2-8.6,28.5-12.9,42.7c-1.6,5.2-4.6,8.5-10.4,8.9
	C717.3,303.2,716.4,304,715.4,304.4z M284.5,270.5c0.1-1.3,0.1-1.9,0.2-2.4c1.9-6.4,3.7-13,5.9-19.3c2.4-6.9,2.9-7,10.2-6.9
	c8,0,10.2,1.3,10.7,8.7c0.1,1.5,0.8,2.7,2.7,2.8c1.5-5.2,3.1-10.3,4.6-15.5c-5,0.3-9.3,0.7-13.6,0.7c-11.6,0-23.1-0.3-34.7-0.4
	c-1.3,0-2.6,0.5-3.8,0.7c0,0.4-0.1,0.8-0.1,1.2c1.6,0.5,3.1,1,4.7,1.4c5.1,1.3,6.2,3.1,4.7,8.1c-4.4,14.8-9.1,29.6-13.2,44.4
	c-1.6,5.9-5.1,8.6-10.9,9.2c-1.1,0.1-2.1,0.8-3.2,1.2c0.1,0.3,0.1,0.6,0.2,0.9c2.1,1.5,4.6,1,7,1c10.2,0,20.3,0,30.5,0
	c5.9,0,11.8,0,17.7-0.2c0.9,0,2.1-0.5,2.6-1.1c3.6-4.3,5.8-9.3,6.7-14.8c0.1-0.4-0.1-0.9-0.3-1.9c-1,0.8-1.9,1.3-2.5,2
	c-1.6,1.8-3.1,3.7-4.7,5.5c-5,6-11.4,8.4-19.1,7.2c-1-0.2-2-0.2-3-0.3c-5.3-0.4-7.4-2.8-6.3-8c1.2-5.8,2.9-11.4,4.4-17.2
	c0.5-1.8,1.7-2.5,3.5-2.5c2.7,0,5.5-0.2,8.2-0.3c4.9-0.2,6,0.8,6.5,5.7c0.1,1,0.5,1.9,0.9,3c2.3-1.6,7.5-19.5,6.2-21.4
	c-0.9,1-1.7,2.1-2.6,3c-1.6,1.5-3.2,3.8-5.1,4.1C294.7,269.9,289.7,270,284.5,270.5z M628.7,264.1c-0.3-0.2-0.7-0.4-1-0.6
	c-3.4,2.2-4.8,7-9.6,7.3c-4.2,0.2-8.4,0.4-12.6,0.6c0-1-0.1-1.5,0-1.9c2-6.4,3.8-12.9,6-19.3c2.2-6.2,3.2-6.6,9.8-6.3
	c1.2,0.1,2.3,0,3.5,0.1c4.2,0.4,5.9,1.9,6.5,6.2c0.1,0.8,0,1.7,0.2,2.5c0.4,1.3,0.9,2.8,2.8,2.2c1.5-5,3-10,4.4-14.9
	c-5,0.2-9.6,0.7-14.1,0.7c-10.9,0-21.8-0.3-32.7-0.4c-1.3,0-2.7,0.5-4,0.7c0,0.3,0,0.6,0,0.9c0.8,0.4,1.5,0.8,2.4,1
	c1.3,0.4,2.6,0.6,3.8,1c3,1,3.8,2.3,3.3,5.5c-0.1,0.8-0.3,1.6-0.6,2.4c-4.3,14.2-8.7,28.3-12.7,42.5c-1.6,5.6-4.8,8.4-10.5,8.9
	c-1.1,0.1-2.2,0.9-3.3,1.4c0.1,0.4,0.1,0.7,0.2,1.1c1.5,0.2,3,0.7,4.5,0.7c5.7,0,11.3-0.3,17-0.3c10,0.1,20,0.3,30,0.5
	c3.1,0.1,5.5-1,6.9-3.9c1.4-3.2,2.9-6.3,4.2-9.6c0.4-1.1,0.3-2.4,0.5-3.7c-0.3-0.1-0.5-0.2-0.8-0.3c-0.8,0.8-1.7,1.5-2.4,2.3
	c-1.4,1.6-2.7,3.2-4,4.8c-4.4,5.1-9.8,7.9-16.7,7.1c-1.9-0.2-3.8-0.3-5.7-0.5c-4.2-0.4-6.2-2.7-5.4-6.9c1.2-5.8,2.8-11.6,4.5-17.4
	c0.3-1,1.9-2.1,3-2.3c2.9-0.4,6-0.4,9-0.5c4-0.1,5.2,1,5.6,5c0.1,1.1,0.5,2.2,0.8,3.4c0.4,0,0.8,0.1,1.2,0.1
	C624.6,277.3,626.7,270.7,628.7,264.1z M708.8,305.6c0.1-0.3,0.1-0.7,0.2-1c-1-0.5-1.9-1.2-2.9-1.4c-4.5-0.6-5.8-3-5-7.5
	c3.3-18,5.5-36.2,11-53.7c0.3-1,0.2-2.1,0.4-3.9c-1.6,0.8-2.5,1-3.2,1.6c-2.3,2.2-5.1,2.9-8.1,3.4c-1.3,0.2-2.6,1.2-3.7,2
	c-0.8,0.6-1.2,1.8-1.9,2.6c-13.3,15.8-26.5,31.6-39.8,47.4c-3.6,4.3-8.1,7.1-13.7,8c-1.2,0.2-2.3,0.9-3.4,1.4c0,0.3,0.1,0.7,0.1,1
	c1.1,0.3,2.2,0.7,3.3,0.8c7.3,0.1,14.6,0.1,21.9,0c1.1,0,2.1-0.4,3.2-0.6c0.1-0.3,0.1-0.6,0.2-1c-0.9-0.5-1.8-1.2-2.8-1.5
	c-4.6-1.7-5.5-3.9-2.8-7.9c2.9-4.2,6.2-8.2,9.5-12.2c0.9-1.1,2.4-2,3.8-2.2c4.4-0.6,8.9-0.8,13.4-1.1c0.7,0,1.4,0.2,2.2,0.3
	c0,0.8,0.1,1.3,0,1.7c-1.1,4.8-2.3,9.5-3.3,14.3c-1,4.5-3.4,7.2-8.2,7.8c-0.9,0.1-1.8,0.9-2.7,1.4c0.1,0.3,0.2,0.6,0.2,0.9
	c0.9,0.2,1.8,0.5,2.8,0.5c8.8-0.1,17.6-0.3,26.4-0.5C706.8,306.3,707.8,305.9,708.8,305.6z"/>
<g>
	<path class="st1" d="M206.8,305.8c-1.2,0.2-2.4,0.5-3.6,0.5c-7.3-0.1-14.6-0.3-22-0.3c-3.1,0-6.2,0.3-9.2,0.3
		c-1.2,0-2.4-0.6-3.6-0.9c0-0.3-0.1-0.7-0.1-1c1.1-0.4,2.3-1.3,3.4-1.3c7.5,0.1,10.8-4.4,12.8-10.9c4.9-15.7,10.1-31.3,15.2-47
		c0.2-0.8,0.3-1.6,0.6-2.8c-1.4-0.3-2.5-0.6-3.7-0.7c-6.6-0.4-13.2,0-19.3,2.8c-2.5,1.1-4.9,2.9-6.7,4.9c-2.8,3.1-2,6.4,1.6,8.6
		c0.8,0.5,1.8,0.9,2.7,1.3c3.6,1.4,4.2,5.3,1.3,7.8c-2.4,2-6,2-9.1,0.1c-5.1-3.3-6.5-10.5-3.2-16.2c2.4-4.2,6.2-6.9,10.5-8.9
		c7-3.2,14.5-4.3,22.1-4.8c9.7-0.6,19.3-0.4,28.8,1.8c1.8,0.4,3.5,1.1,5.1,1.9c11.3,5.1,10.3,19.1,3,24.8c-2.5,2-5.6,3.2-8.4,4.8
		c-0.8,0.4-1.6,0.8-2.4,1.2c0.1,0.7,0.1,1.2,0.3,1.7c7,16.8,15.5,32.7,27.9,46.1c4.6,4.9,9.7,9.2,16.5,10.7c1.1,0.2,2.3,0.3,3.5,0.3
		c3.2-0.2,5-2.2,4.7-5.5c-0.1-1.4-0.5-2.8-1-4.1c-0.8-2.3-0.3-4.1,1.6-5.5c1.9-1.4,4.9-1.3,6.5,0.2c2.2,1.9,2.5,4.4,2,7.1
		c-0.9,4.4-3.7,7.5-7.7,9.3c-11.2,5-21.9,3.6-32.1-2.7c-7.2-4.5-12.7-10.9-17.2-17.9c-6-9.6-11.4-19.7-17-29.6c-1.5-2.5-3-5-4.6-7.5
		c-0.3,0.1-0.6,0.1-1,0.2c-0.4,0.8-1.1,1.6-1.3,2.4c-1.9,6.4-3.7,12.8-5.4,19.2c-1.1,4.3-0.2,5.6,4.3,6.6c0.8,0.2,1.7,0.2,2.4,0.6
		c0.8,0.4,1.4,1,2.1,1.5C207.1,305.2,207,305.5,206.8,305.8z M214.1,243.5c-2.9,9.3-5.8,18.6-8.7,28c0.8,0.3,1.1,0.5,1.4,0.5
		c13-0.4,19.7-9,17.6-20.5C223.5,246.8,219,243.2,214.1,243.5z"/>
	<path class="st1" d="M563.5,305.7c-1,0.2-2.1,0.7-3.1,0.7c-4.2,0-8.3-0.3-12.5-0.3c-4.8,0-9.7,0.3-14.5,0.3c-1.1,0-2.2-0.5-3.4-0.8
		c0-0.3-0.1-0.7-0.1-1c1.1-0.5,2.2-1.3,3.3-1.4c3.9-0.5,6.4-2.6,7.5-6.4c2.2-7.1,4.3-14.3,6.6-21.9c-1.3-0.3-2.2-0.6-3.1-0.6
		c-6.7,0-13.5,0.1-20.2,0.1c-2.7,0-4.4,1-5.1,3.7c-1.5,6-3.3,12-4.6,18.1c-0.9,3.9,0.6,5.8,4.7,6.8c1.4,0.4,2.7,0.9,4,1.3
		c0,0.4,0,0.8,0,1.2c-1.3,0.3-2.7,0.9-4,0.9c-6.7,0-13.5-0.3-20.2-0.3c-2.7,0-5.3,0.3-8,0.3c-1.1,0-2.1-0.5-3.2-0.8
		c0-0.3-0.1-0.7-0.1-1c1.2-0.5,2.4-1.3,3.6-1.4c4.9-0.3,7.6-2.9,9-7.5c4.6-15.4,9.3-30.7,14-46.1c1.2-4.1,0.4-5.2-4-6.2
		c-1.4-0.3-2.7-0.9-4.1-1.4c0-0.4,0.1-0.8,0.1-1.2c1-0.2,2.1-0.7,3.1-0.7c3.7,0,7.5,0.3,11.2,0.3c5.2,0,10.3-0.3,15.5-0.3
		c1,0,2.1,0.5,3.1,0.7c0,0.3,0.1,0.7,0.1,1c-1.2,0.5-2.4,1.2-3.7,1.4c-3.4,0.5-5.7,2.3-6.8,5.4c-2.2,6.4-4.3,12.9-6.4,19.4
		c-0.1,0.4,0,1,0,1.8c0.8,0.1,1.6,0.2,2.4,0.2c7.2-0.1,14.3-0.3,21.5-0.4c2.1,0,3-1.1,3.7-3c2.2-6,4.1-12.2,6.9-17.9
		c5.6-11.1,15.1-17.5,27-20.4c2.1-0.5,4.6,0.1,6.8,0.7c1.9,0.5,2.3,2.1,1.3,3.8c-0.7,1.2-1.7,2.3-2.7,3.3c-1.3,1.3-2.7,1.3-4.3,0.2
		c-6.9-4.7-10.2-4.1-13.1,3.8c-4.2,11.5-7.7,23.3-11.2,35.1c-1.9,6.6-3.3,13.4-4.8,20.1c-1,4.7,0,6.3,4.6,7.7c1.1,0.3,2.2,1,3.3,1.5
		C563.6,305,563.5,305.3,563.5,305.7z"/>
	<path class="st1" d="M337.4,239c1-0.3,2-0.8,3-0.8c9.7-0.2,19.4-0.5,29.2-0.5c7.5,0,14.6,1.6,20.7,6.1c9.1,6.8,12.2,16.3,10.9,27.1
		c-2.4,19-15.4,32-34.4,34.4c-7.5,1-15.2,0.6-22.9,0.7c-6.3,0.1-12.6,0.2-19,0.2c-1.6,0-3.2-0.5-4.8-0.7c0-0.4,0-0.8-0.1-1.2
		c1-0.4,2-1.1,3-1.2c6.2-0.4,9.3-4.1,11-9.6c4.6-15.4,9.3-30.9,13.9-46.3c1.2-4,0.1-5.4-4-5.8c-2.1-0.2-4.2-0.6-6.4-0.9
		C337.4,240,337.4,239.5,337.4,239z M386.1,266.4c0-6.5-1.1-11.7-3.5-16.5c-2.1-4.2-5.4-6.9-9.7-8.4c-5.9-2-9.1-0.5-10.9,5.3
		c-3,9.5-5.9,19.1-8.5,28.7c-1.7,6.2-3,12.4-4.3,18.7c-1.2,6.2,1,9.2,8.6,8.9c6.6-0.3,12-4,16.6-8.4
		C382.6,286.7,385.7,276.5,386.1,266.4z"/>
	<path class="st1" d="M403.3,304.3c1.3-0.5,2.3-1.2,3.5-1.3c5.5-0.5,8.8-3.6,10.3-8.7c4.8-15.8,9.6-31.6,14.3-47.5
		c1.1-3.6-0.1-5.1-3.9-5.5c-2.2-0.2-4.4-0.7-6.6-1c0-0.4,0-0.9-0.1-1.3c1.1-0.3,2.2-0.9,3.4-0.9c6.9-0.1,13.8-0.2,20.7-0.2
		c4.7,0,9.5-0.4,14.2,0.2c19.4,2.5,27.7,17.7,25.5,33.3c-2.6,18.6-15.4,31.4-34.2,33.8c-7.5,1-15.2,0.6-22.9,0.8
		c-6.4,0.1-12.8,0.2-19.2,0.2C406.7,306.2,404.8,306.6,403.3,304.3z M469.6,266.6c0-6.5-1-11.7-3.4-16.5c-2.1-4.3-5.6-7.2-10.2-8.6
		c-5.7-1.8-8.8-0.3-10.5,5.3c-3,9.5-5.9,19.1-8.5,28.7c-1.7,6.2-3.1,12.6-4.3,18.9c-1.2,6,2.4,9.6,8.5,8.9c6.5-0.8,12-4,16.6-8.5
		C466,286.8,469.2,276.7,469.6,266.6z"/>
	<path class="st1" d="M715.4,304.4c1-0.4,1.9-1.2,2.9-1.2c5.7-0.4,8.8-3.7,10.4-8.9c4.3-14.2,8.6-28.5,12.9-42.7
		c0.4-1.3,0.8-2.7,1-4.1c0.4-2.8-0.5-3.8-3.3-4.1c-1.5-0.2-3-0.3-4.5-0.5c-0.9-0.2-1.8-0.5-2.7-0.8c0-0.3-0.1-0.6-0.1-0.9
		c1.1-0.3,2.3-0.9,3.4-1c8.4-0.2,16.8-0.5,25.2-0.5c3.5,0,7,0.1,10.4,0.7c18.6,3.4,26.2,19,22.6,35.6c-3.5,15.9-15.8,27.1-32.7,29.3
		c-7.4,1-14.9,0.6-22.4,0.7c-5.4,0.1-10.8,0.2-16.2,0.1c-2.2,0-4.5-0.2-6.7-0.3C715.5,305.3,715.5,304.9,715.4,304.4z M779.7,264.9
		c-0.4-2-0.8-5.7-1.8-9.3c-1.7-6-5.3-10.5-11.5-12.4c-5-1.5-8.3-0.4-9.6,3.7c-5.1,15.8-10.2,31.6-13.2,48c-1.2,6.6,4,8.9,8.6,8.3
		c6.8-0.9,12.4-4.4,17-9.3C776.4,286.4,779.3,277,779.7,264.9z"/>
	<path class="st1" d="M284.5,270.5c5.2-0.5,10.2-0.6,15-1.5c1.9-0.4,3.4-2.6,5.1-4.1c0.9-0.9,1.7-1.9,2.6-3c1.2,1.9-4,19.7-6.2,21.4
		c-0.3-1.1-0.8-2-0.9-3c-0.5-4.9-1.6-5.9-6.5-5.7c-2.7,0.1-5.5,0.3-8.2,0.3c-1.8,0-3,0.8-3.5,2.5c-1.5,5.7-3.1,11.4-4.4,17.2
		c-1.1,5.2,1,7.6,6.3,8c1,0.1,2,0.1,3,0.3c7.7,1.2,14.1-1.2,19.1-7.2c1.6-1.8,3.1-3.7,4.7-5.5c0.6-0.7,1.4-1.2,2.5-2
		c0.2,1,0.4,1.5,0.3,1.9c-0.9,5.5-3.2,10.5-6.7,14.8c-0.5,0.7-1.7,1.1-2.6,1.1c-5.9,0.1-11.8,0.2-17.7,0.2c-10.2,0-20.3,0-30.5,0
		c-2.4,0-4.9,0.4-7-1c-0.1-0.3-0.1-0.6-0.2-0.9c1.1-0.4,2.1-1.1,3.2-1.2c5.8-0.5,9.2-3.3,10.9-9.2c4.2-14.9,8.8-29.6,13.2-44.4
		c1.5-5.1,0.4-6.8-4.7-8.1c-1.6-0.4-3.1-0.9-4.7-1.4c0-0.4,0.1-0.8,0.1-1.2c1.3-0.2,2.6-0.7,3.8-0.7c11.6,0.1,23.1,0.3,34.7,0.4
		c4.3,0,8.6-0.4,13.6-0.7c-1.5,5.2-3.1,10.4-4.6,15.5c-2,0-2.6-1.3-2.7-2.8c-0.5-7.4-2.7-8.7-10.7-8.7c-7.3,0-7.7,0.1-10.2,6.9
		c-2.2,6.3-4,12.8-5.9,19.3C284.6,268.6,284.6,269.2,284.5,270.5z"/>
	<path class="st1" d="M628.7,264.1c-2.1,6.6-4.1,13.3-6.2,19.9c-0.4,0-0.8-0.1-1.2-0.1c-0.3-1.1-0.7-2.2-0.8-3.4
		c-0.4-4-1.6-5.1-5.6-5c-3,0.1-6,0-9,0.5c-1.1,0.2-2.7,1.3-3,2.3c-1.7,5.7-3.3,11.5-4.5,17.4c-0.9,4.2,1.2,6.5,5.4,6.9
		c1.9,0.2,3.8,0.3,5.7,0.5c6.9,0.7,12.3-2,16.7-7.1c1.4-1.6,2.6-3.2,4-4.8c0.7-0.8,1.6-1.5,2.4-2.3c0.3,0.1,0.5,0.2,0.8,0.3
		c-0.1,1.2,0,2.6-0.5,3.7c-1.3,3.2-2.8,6.4-4.2,9.6c-1.3,2.9-3.8,4-6.9,3.9c-10-0.2-20-0.4-30-0.5c-5.7,0-11.3,0.3-17,0.3
		c-1.5,0-3-0.4-4.5-0.7c-0.1-0.4-0.1-0.7-0.2-1.1c1.1-0.5,2.2-1.3,3.3-1.4c5.7-0.5,8.9-3.3,10.5-8.9c4-14.2,8.5-28.3,12.7-42.5
		c0.2-0.8,0.4-1.6,0.6-2.4c0.5-3.2-0.3-4.4-3.3-5.5c-1.3-0.4-2.6-0.6-3.8-1c-0.8-0.3-1.6-0.7-2.4-1c0-0.3,0-0.6,0-0.9
		c1.3-0.3,2.7-0.7,4-0.7c10.9,0.1,21.8,0.3,32.7,0.4c4.5,0,9.1-0.4,14.1-0.7c-1.5,5-2.9,9.9-4.4,14.9c-1.8,0.6-2.3-0.9-2.8-2.2
		c-0.2-0.8-0.1-1.7-0.2-2.5c-0.7-4.2-2.3-5.8-6.5-6.2c-1.2-0.1-2.3-0.1-3.5-0.1c-6.6-0.3-7.7,0.2-9.8,6.3c-2.2,6.3-4.1,12.8-6,19.3
		c-0.1,0.4,0,1,0,1.9c4.3-0.2,8.4-0.4,12.6-0.6c4.8-0.2,6.2-5.1,9.6-7.3C628.1,263.7,628.4,263.9,628.7,264.1z"/>
	<path class="st1" d="M708.8,305.6c-1,0.3-2,0.7-3,0.7c-8.8,0.2-17.6,0.4-26.4,0.5c-0.9,0-1.8-0.3-2.8-0.5c-0.1-0.3-0.2-0.6-0.2-0.9
		c0.9-0.5,1.8-1.2,2.7-1.4c4.7-0.6,7.2-3.3,8.2-7.8c1-4.8,2.2-9.6,3.3-14.3c0.1-0.5,0-1,0-1.7c-0.8-0.1-1.5-0.3-2.2-0.3
		c-4.5,0.3-9,0.5-13.4,1.1c-1.3,0.2-2.9,1.1-3.8,2.2c-3.3,3.9-6.6,7.9-9.5,12.2c-2.8,4-1.8,6.3,2.8,7.9c1,0.4,1.8,1,2.8,1.5
		c-0.1,0.3-0.1,0.6-0.2,1c-1.1,0.2-2.1,0.6-3.2,0.6c-7.3,0.1-14.6,0.1-21.9,0c-1.1,0-2.2-0.5-3.3-0.8c0-0.3-0.1-0.7-0.1-1
		c1.1-0.5,2.2-1.2,3.4-1.4c5.6-0.9,10.1-3.7,13.7-8c13.3-15.8,26.6-31.6,39.8-47.4c0.7-0.8,1.1-1.9,1.9-2.6c1.1-0.9,2.4-1.8,3.7-2
		c3-0.5,5.8-1.3,8.1-3.4c0.7-0.6,1.7-0.9,3.2-1.6c-0.2,1.8-0.1,2.9-0.4,3.9c-5.4,17.5-7.7,35.7-11,53.7c-0.8,4.6,0.5,6.9,5,7.5
		c1,0.1,1.9,0.9,2.9,1.4C708.9,304.9,708.9,305.3,708.8,305.6z M695.8,253.8c-7.2,6.5-13.1,14-18.3,22.1c0.2,0.3,0.4,0.6,0.6,0.8
		c4.1-0.2,8.2-0.4,12.9-0.7C693.8,268.9,694.6,261.4,695.8,253.8z"/>
</g>
<path class="st0" d="M214.1,243.5c4.9-0.3,9.5,3.3,10.3,8.1c2.1,11.5-4.6,20-17.6,20.5c-0.3,0-0.6-0.2-1.4-0.5
	C208.3,262.1,211.2,252.8,214.1,243.5z"/>
<path class="st0" d="M386.1,266.4c-0.4,10.1-3.6,20.3-11.8,28.2c-4.6,4.5-10,8.1-16.6,8.4c-7.5,0.4-9.8-2.7-8.6-8.9
	c1.2-6.3,2.6-12.5,4.3-18.7c2.6-9.6,5.5-19.2,8.5-28.7c1.8-5.9,5.1-7.4,10.9-5.3c4.3,1.5,7.7,4.3,9.7,8.4
	C385,254.8,386.1,259.9,386.1,266.4z"/>
<path class="st0" d="M469.6,266.6c-0.4,10.1-3.6,20.3-11.9,28.2c-4.6,4.4-10.1,7.6-16.6,8.5c-6.1,0.8-9.6-2.9-8.5-8.9
	c1.2-6.4,2.6-12.7,4.3-18.9c2.6-9.6,5.5-19.2,8.5-28.7c1.8-5.6,4.9-7.1,10.5-5.3c4.6,1.4,8,4.3,10.2,8.6
	C468.6,254.9,469.6,260,469.6,266.6z"/>
<path class="st0" d="M779.7,264.9c-0.5,12.1-3.3,21.4-10.6,29.1c-4.6,4.9-10.2,8.3-17,9.3c-4.6,0.6-9.8-1.7-8.6-8.3
	c3-16.4,8-32.2,13.2-48c1.3-4.1,4.7-5.3,9.6-3.7c6.2,1.9,9.8,6.4,11.5,12.4C778.9,259.2,779.3,262.9,779.7,264.9z"/>
<path class="st0" d="M695.8,253.8c-1.2,7.6-2.1,15.1-4.8,22.2c-4.7,0.3-8.8,0.5-12.9,0.7c-0.2-0.3-0.4-0.6-0.6-0.8
	C682.7,267.9,688.6,260.4,695.8,253.8z"/>
<g>
</g>
<g>
</g>
<g>
</g>
<g>
</g>
<g>
</g>
<g>
</g>
<g>
</g>
<g>
</g>
<g>
</g>
<g>
</g>
<g>
</g>
<g>
</g>
<g>
</g>
<g>
</g>
<g>
</g>
</svg>
