<?xml version="1.0" encoding="utf-8"?>
<!-- Generator: Adobe Illustrator 18.1.1, SVG Export Plug-In . SVG Version: 6.00 Build 0)  -->
<!DOCTYPE svg PUBLIC "-//W3C//DTD SVG 1.1//EN" "http://www.w3.org/Graphics/SVG/1.1/DTD/svg11.dtd">
<svg version="1.1" xmlns="http://www.w3.org/2000/svg" xmlns:xlink="http://www.w3.org/1999/xlink" x="0px" y="0px"
	 viewBox="-201 350 402 1260" style="enable-background:new -201 350 402 1260;" xml:space="preserve">
<style type="text/css">
	.st0{fill:none;stroke:#000000;stroke-miterlimit:10;}
	.st1{fill:none;stroke:#000000;stroke-width:2;stroke-miterlimit:10;}
	.st2{fill:#FFFFFF;}
	.st3{fill:#FF0000;}
	.st4{fill:#FFFFFF;stroke:#FFFFFF;stroke-miterlimit:10;}
	.st5{stroke:#FFFFFF;stroke-miterlimit:10;}
</style>
<g id="Layer_1">
	<g>
		<g>
			<g id="Layer_3">
				<path d="M114.3,419.3c-9.6,3.1-19.7,4.6-29,8.2c-22.2,8.7-38.2,28.8-49.2,50c-13.1,25.2-20.9,53.2-22.7,81.6
					c1.9-12.8,8.2-24.6,14.4-36c7.2-13.1,14.4-26.3,24.5-37.3c17.3-19.1,41.4-30.1,63.1-44.1s42.4-33.5,46-59.1
					C150.6,399.8,133.5,413,114.3,419.3z"/>
				<path d="M92.2,658.8c1.6,0.3,3.1,0.8,4.3,1.9c3.1,2.9,1.2,8.2-1.4,11.7c-3.7,4.8-8.6,8.9-14,11.7c14.6-3.4,24.7-16.1,34.7-27.3
					c10.1-11.1,23.3-22.1,38.1-20.3c-5.5-4.2-12.5-6.4-19.4-6.1c16.6-6.7,29.5-22.2,33-39.8c-4.8,7.2-11.6,12.9-19.4,16.3
					c7.6-12,13-25.6,14.1-39.8c1.1-14.2-2.3-28.9-10.8-40.3c-2.7-3.7-6-7-8.1-10.9c-6.1-11.3-2.3-25.6,5.1-36.2
					c1.6-2.3,3.5-4.5,6.2-5.3c2.7-0.7,6.1,0.9,6.2,3.7c-0.7-3.7-4.3-6.4-8-6.9c-3.7-0.5-7.5,1-10.5,3.3c-8,6-11.2,16.7-11.6,26.7
					c-0.5,10.1,1.1,20.2,0.2,30.2c-2,20.5-14.7,38.7-30.4,51.9c-15.8,13.2-34.5,22.2-52.9,31.4c27.7-2.6,54.7-11.9,78.2-26.9
					c-8.7,12-21.7,20.5-35.6,25.6c-13.9,5.2-28.8,7.3-43.6,8.2c24.7,5.7,51.6,1.1,73.1-12.4c-0.2,5.9-5.5,10.3-10.7,13.3
					c-20.4,11.9-45.3,15.6-68.3,10.1c23.8,9,50.7,9.6,74.9,1.6c-2.7,8.8-12.3,13.4-21.2,15.3c-17.9,4-37.2,1.1-53.2-7.8
					c5.5,7.4,14.8,11.2,23.9,13C73.8,656.6,83.2,656.7,92.2,658.8z"/>
				<path class="st0" d="M159.5,383.7c13.6,31.1,6.8,70.1-16.5,94.8"/>
				<path class="st0" d="M25.2,572.8c-1.5,6.3-0.9,13,1.8,18.8c2.7,5.9,7.3,10.8,13,13.8"/>
				<path class="st0" d="M19.1,579.7c0.9,7.5,2.8,15,6.8,21.4s10.5,11.6,18,12.5"/>
				<path class="st0" d="M15.5,592.3c1.2,6.8,4.9,13.1,10.2,17.5c5.3,4.5,12.2,7,19,7"/>
				<path class="st0" d="M18.6,610c-0.1,0.1-0.2-0.2-0.1-0.2c0.1-0.1,0.2,0.1,0.3,0.2c2.5,3.1,4.8,6.6,7.9,9.1
					c3.1,2.6,7.3,4.2,11.2,3.1"/>
				<path class="st0" d="M21.5,619.8c4.8,6.3,13.1,9.6,20.9,8.4"/>
				<path class="st0" d="M36.4,632c-3.9,2.4-9.4,2.1-13-0.9"/>
				<path class="st1" d="M70.8,484.9c2.7-6.6,9.4-10.9,16.2-13.1c6.8-2.2,14-2.7,21.1-3.9c7.1-1.3,14-3.5,20.7-6.6
					c3.2-1.5,6.4-3.1,9.1-5.5c4.8-4.1,7.6-10,10.3-15.7"/>
				<path class="st1" d="M85.6,467.3c6.9-3.8,15-4.1,22.7-5.8c15.9-3.4,31.1-13.4,37.4-28.6"/>
				<path class="st1" d="M96.2,460.3c6.9-4.1,15.7-3.7,22.9-7.2c6.9-3.4,11.6-9.9,16-16.1"/>
				<path class="st1" d="M131.3,465c5.4-1.4,9.6-5.6,12.8-10c3.2-4.5,5.7-9.5,9.2-13.8"/>
				<path class="st1" d="M137.4,467.7c5.2-4.4,9.7-9.7,13.2-15.6"/>
				<path d="M43.2,696.3c1.5,2.6,3.3,5.9,6.2,5.7c2.3-0.1,4-2.5,4.1-4.8c0.1-2.3-1-4.5-2.2-6.5c-4.3-7.3-10.1-13.5-17.1-18.3
					c7.6-0.6,12.9,6.7,18.3,12c3.6,3.5,8.9,6.5,13.4,4.3c3.7-1.9,5.2-6.9,3.7-10.8c-1.3-3.9-4.8-6.8-8.7-8.5
					c-3.8-1.7-8-2.5-11.9-3.4c-5.1-1.3-10.1-3-14.1-6.4s-6.6-8.8-5.5-13.8c7.3,8.9,19.6,11.7,30.7,14.8c11.2,3.1,23.2,8.2,27.6,18.9
					c0.8,2,1.2,4.1,0.5,6c-0.6,1.5-2,2.6-3.3,3.6c-6.2,4.6-12.7,8.5-19.7,11.7c-9,4.1-19,7.2-25.4,14.7c1.2-10.6-2-21.5-8.9-29.6
					C36,687.7,40.4,691.5,43.2,696.3z"/>
				<path d="M-20.1,668.7c3,4.3,9.1,7.3,13.4,4.3c2.7-1.8,3.7-5.2,3.9-8.4c0.5-8.2-3.4-16.7-10.1-21.4c-1.5-1.1-3.2-2-4.4-3.4
					c-1.2-1.4-2-3.4-1.4-5.1c1.2-3.3,6.2-3,8.7-0.6c2.5,2.4,3.6,5.9,5.6,8.8s6.1,5,8.9,2.9c1.2-0.9,1.8-2.2,2.4-3.5
					c2.4-4.9,6.4-10.2,11.9-9.9c1.2,0.1,2.4,0.5,3,1.6c0.5,0.9,0.1,2.1-0.4,3c-2.6,5.4-8.4,8.4-12,13.1c-4,5.1-5.2,12.7-1.5,18
					c3.7,5.3,12.6,6.5,16.5,1.4c0.4,3.6-3,6.6-6.4,7.7c-3.4,1.1-7.2,0.9-10.7,1.8c-3.5,0.9-7.1,3.4-7.3,7c-0.2-3.2-3.2-5.6-6.2-6.7
					s-6.2-1.6-9.1-3C-18.3,674.9-20.8,671.8-20.1,668.7z"/>
				<path class="st1" d="M-17.3,638.8c-2.4-2.9-3.7-6.8-3.4-10.6c0.1-0.6,0.2-1.3,0.5-1.9c0.5-0.8,1.5-1.1,2.4-1.4
					c1.6-0.5,3.3-1.1,4.9-1.6c0.5-0.2,0.9-0.3,1.5-0.3c1.6,0.1,2.5,2,3.4,3.4c2.9,4.6,10.4,5.3,14,1.3c2-2.1,3.4-5.5,6.2-5.6
					c1.8-0.1,3.4,1.2,4.7,2.3c1.6,1.4,3.3,2.9,4.9,4.3c0.5,0.4,1,0.9,1.2,1.6c0.2,0.7-0.2,1.4-0.6,2c-2.3,4-4.8,8-7.9,11.3
					c-3.1,3.4-7.1,6.2-11.6,7.2c-2-4.5-2.8-9.4-2.7-14.2"/>
				<path d="M12.3,576.7c0.1,7.7,0.1,15.4,1.4,23c1.3,8.1,4.1,17,3.9,25.3c0-2.6-5.8-4.9-7.3-2.9c-6.5-30.7-4.7-62.6,1.8-93.3
					C12.1,544.8,12.2,560.7,12.3,576.7z"/>
				<path class="st0" d="M25.5,684.6c4.3,4.6,6.2,11.3,5,17.4"/>
				<path d="M-0.8,696.9c1.3,7.1,2.6,14.4,1.4,21.5c-0.5,3.3-1.6,6.5-1.8,9.9s0.5,7,3,9.2c-0.8-1.7-0.2-3.8,0.9-5.2
					c1.2-1.5,2.9-2.4,4.6-3.2c5.9-2.7,12.6-3.6,18.7-5.6c6.2-2,12.5-5.5,15.3-11.3c0.5-1.1,0.9-2.4,0.6-3.7
					c-0.2-0.6-0.5-1.3-0.9-1.8c-1.7-2.6-3.4-5.2-5.1-7.7c0.1,3.2,0.2,6.6-1.5,9.3c-1.9,3.3-5.7,4.9-9.3,6.2
					c-3.2,1.2-6.6,2.2-9.9,2.2c-3.4,0-6.9-1.1-9.2-3.7c-1.3-1.6-2.1-3.5-2.9-5.4C2,704,0.5,700.4-0.8,696.9z"/>
				<path d="M-11.9,577.5c-0.1,7.7-0.1,15.4-1.4,23c-1.3,8.1-5.9,16.3-5.8,24.6c2.5-0.9,6.9-2,9.2-2.1c6.5-30.7,4.7-62.6-1.8-93.3
					C-11.7,545.5-11.8,561.5-11.9,577.5z"/>
				<path d="M26.6,718.4c-1.3,1-2.8,1.9-4.3,2.5C9,727.1-6.8,726-20.5,720.8c-6.1-2.3-12.2-5.7-15.3-11.5c3.7,3,9.2,3.5,13.7,1.8
					c4.5-1.7,8.2-5.2,10.9-9.2c2.7-4.1,4.5-8.6,6.3-13.1c1.4,2,4.2,2.7,6.4,1.7c1.1-0.5,2-1.3,3.1-2c1-0.6,2.3-1.1,3.5-0.6
					c-1.6,0.8-2,2.9-1.9,4.8c0.4,5.7,4,10.9,8.8,13.9s10.7,4.1,16.3,3.9C30.8,713.5,29.1,716.4,26.6,718.4z"/>
				<path d="M-17.5,461.9c0.5-1.6,1.6-3.4,3.2-3.2c0.9,0.1,1.6,0.8,2.2,1.6c1.6,2.3,2.3,5.2,2.7,7.9c2.7,14.9,2.7,30.3,6.4,45
					c-0.4-11.3,0.1-22.5,1.3-33.7c0.7-6,1.7-12.2,4.2-17.8c0.9-1.8,2.1-3.8,4.1-4.1c1.3-0.2,2.7,0.3,3.7,1.2
					c3.1,2.4,3.9,6.8,4.4,10.7c1.2,10.1,1.4,20.3,0.8,30.3c1.2-12,2.7-24.5,9.4-34.4c1.1-1.6,2.7-3.2,4.6-3c1.9,0.3,2.9,2.3,3.4,4.1
					c1.4,4.9,0.9,10.3-1.2,14.9c0.5-5.3,4.1-10,8.7-12.6c4.7-2.6,10.2-3.1,15.5-2.3c1.6,0.2,3.2,0.6,4.8,0.5
					c1.6-0.2,3.2-1.1,3.7-2.6c0.9-2.7-2.1-5-4.7-6.3c-12.8-6.1-26.5-10.1-40.4-12.8c-6.8-1.3-13.7-2.3-20.7-2.3
					c-20.8-0.2-40.5,8.1-59.6,16.1c-0.9,0.4-1.8,0.9-1.8,1.8c0,0.5,0.4,1,0.8,1.5c0.9,1,1.9,2.1,2.8,3.1c1.4,1.6,3.2,3.3,5.3,3
					c3.5-0.5,4.3-6.2,7.7-6.7c1.6-0.2,3.1,0.8,4.4,1.8c3.7,3.1,6.6,7.1,8.4,11.6c-0.6-3.6-0.9-7.3-0.7-10.9c0.1-1.3,0.4-2.9,1.6-3.4
					c1.6-0.5,3,1.3,3.7,2.8c5.8,12.5,9.9,25.8,12.4,39.3C-16.1,489.4-21.8,475.2-17.5,461.9z"/>
			</g>
			<g id="Layer_2">
				<path d="M88,478.1c-11.4,6.3-20.7,16.4-25.8,28.4c-2.2,5-3.7,10.4-6.6,14.9c-5.7,8.6-15.8,12.9-23.5,19.7
					c-9.8,8.8-15.5,21.7-17.1,34.8s0.3,26.4,3.7,39.3c1.9,6.9,4.1,13.8,4.7,20.9c3.2-9.9-3-20.3-4.4-30.6
					c-1.7-11.9,3.5-24.6,13.1-31.8c1.2-0.9,2.4-1.7,3.3-3c0.8-1.1,1.1-2.4,1.5-3.7c2.8-8.8,9.4-16.7,18.2-19.9
					c8.7-3.2,19.4-1.3,25.7,5.5c6.3,6.8,7.3,18.3,1.6,25.5c5.5-6.9,13.3-11.7,21-16c7.7-4.4,15.6-8.8,21.7-15.2
					c6.1-6.4,10.2-15.5,8.5-24.2c-3,8.6-9.5,15.6-16.9,20.8c-7.4,5.2-15.8,8.8-24.2,12.4c18.7-14.7,31.5-36.8,34.9-60.4
					c-6,12.6-14,24.2-23.8,34.3c7.2-18.6,15.2-38.3,31.5-49.7c-16.4,6.1-29.6,20.4-34.3,37.3c0.2-20.7,15.1-39,32.9-49.7
					c-22.7,7.7-41.6,26.1-49.8,48.7c-0.4-9,3.2-17.9,8.3-25.3c5.1-7.4,11.8-13.7,18.3-19.9C90.5,481.4,75,499.5,68,520.5
					C68.3,504.4,75.7,488.5,88,478.1z"/>
				<path d="M-114.2,419.3c9.6,3.1,19.7,4.6,29,8.2c22.2,8.7,38.2,28.8,49.2,50c13.1,25.2,20.9,53.2,22.7,81.6
					c-1.9-12.8-8.2-24.6-14.4-36c-7.2-13.1-14.4-26.3-24.5-37.3c-17.3-19.1-41.4-30.1-63.1-44.1s-42.4-33.5-46-59.1
					C-150.5,399.8-133.5,413-114.2,419.3z"/>
				<path d="M-92.2,658.8c-1.6,0.3-3.1,0.8-4.3,1.9c-3.1,2.9-1.2,8.2,1.4,11.7c3.7,4.8,8.6,8.9,14,11.7
					c-14.6-3.4-24.7-16.1-34.7-27.3s-23.3-22.1-38.1-20.3c5.5-4.2,12.5-6.4,19.4-6.1c-16.6-6.7-29.5-22.2-33-39.8
					c4.8,7.2,11.6,12.9,19.4,16.3c-7.6-12-13-25.6-14.1-39.8c-1.2-14.2,2.3-28.9,10.8-40.3c2.7-3.7,6-7,8.1-10.9
					c6.1-11.3,2.3-25.6-5.1-36.2c-1.6-2.3-3.5-4.5-6.2-5.3c-2.7-0.7-6.1,0.9-6.2,3.7c0.7-3.7,4.3-6.4,8-6.9c3.7-0.5,7.5,1,10.5,3.3
					c8,6,11.2,16.7,11.6,26.7c0.5,10-1.1,20.2-0.2,30.2c2,20.5,14.7,38.7,30.4,51.9c15.8,13.2,34.5,22.2,52.9,31.4
					c-27.7-2.6-54.7-11.9-78.2-26.9c8.7,12,21.7,20.5,35.6,25.6c13.9,5.2,28.8,7.3,43.6,8.2c-24.7,5.7-51.6,1.1-73.1-12.4
					c0.2,5.9,5.5,10.3,10.7,13.3c20.4,11.9,45.3,15.6,68.3,10.1c-23.8,9-50.7,9.6-74.9,1.6c2.7,8.8,12.3,13.4,21.2,15.3
					c17.9,4,37.2,1.1,53.2-7.8c-5.5,7.4-14.8,11.2-23.9,13C-73.8,656.6-83.1,656.7-92.2,658.8z"/>
				<path class="st0" d="M-159.4,383.7c-13.6,31.1-6.8,70.1,16.5,94.8"/>
				<path class="st0" d="M-25.2,572.8c1.5,6.3,0.9,13-1.8,18.8c-2.7,5.9-7.3,10.8-13,13.8"/>
				<path class="st0" d="M-19,579.7c-0.9,7.5-2.8,15-6.8,21.4c-4.1,6.4-10.5,11.6-18,12.5"/>
				<path class="st0" d="M-15.5,592.3c-1.2,6.8-4.9,13.1-10.2,17.5c-5.3,4.5-12.2,7-19,7"/>
				<path class="st0" d="M-18.5,610c0.1,0.1,0.2-0.2,0.1-0.2c-0.1,0-0.2,0.1-0.3,0.2c-2.5,3.1-4.8,6.6-7.9,9.1
					c-3.1,2.6-7.3,4.2-11.2,3.1"/>
				<path class="st0" d="M-21.4,619.8c-4.8,6.3-13.1,9.6-20.9,8.4"/>
				<path class="st0" d="M-36.4,632c3.9,2.4,9.4,2.1,13-0.9"/>
				<path class="st1" d="M-70.7,484.9c-2.7-6.6-9.4-10.9-16.2-13.1s-14-2.7-21.1-3.9c-7.1-1.3-14-3.5-20.7-6.6
					c-3.2-1.5-6.4-3.1-9.1-5.5c-4.8-4.1-7.6-10-10.3-15.7"/>
				<path class="st1" d="M-85.5,467.3c-6.9-3.8-15-4.1-22.7-5.8c-15.9-3.4-31.1-13.4-37.4-28.6"/>
				<path class="st1" d="M-96.2,460.3c-6.9-4.1-15.7-3.7-22.9-7.2c-6.9-3.4-11.6-9.9-16-16.1"/>
				<path class="st1" d="M-131.3,465c-5.4-1.4-9.6-5.6-12.8-10c-3.2-4.5-5.7-9.5-9.2-13.8"/>
				<path class="st1" d="M-137.4,467.7c-5.2-4.4-9.7-9.7-13.2-15.6"/>
				<path d="M-43.1,696.3c-1.5,2.6-3.3,5.9-6.2,5.7c-2.3-0.1-4-2.5-4.1-4.8s1-4.5,2.2-6.5c4.3-7.3,10.1-13.5,17.1-18.3
					c-7.6-0.6-12.9,6.7-18.3,12c-3.6,3.5-8.9,6.5-13.4,4.3c-3.7-1.9-5.2-6.9-3.7-10.8c1.3-3.9,4.8-6.8,8.7-8.5s8-2.5,11.9-3.4
					c5.1-1.3,10.1-3,14.1-6.4s6.6-8.8,5.5-13.8c-7.3,8.9-19.6,11.7-30.7,14.8c-11.2,3.1-23.2,8.2-27.6,18.9c-0.8,2-1.2,4.1-0.5,6
					c0.6,1.5,2,2.6,3.3,3.6c6.2,4.6,12.7,8.5,19.7,11.7c9,4.1,19,7.2,25.4,14.7c-1.2-10.6,2-21.5,8.9-29.6
					C-35.9,687.7-40.3,691.5-43.1,696.3z"/>
				<path class="st0" d="M-25.4,684.6c-4.3,4.6-6.2,11.3-5,17.4"/>
				<path d="M2.4,696.9C1.1,704-0.2,711.3,1,718.4c0.5,3.3,1.6,6.5,1.8,9.9s-0.5,7-3,9.2c0.8-1.7,0.2-3.8-0.9-5.2
					c-1.2-1.5-2.9-2.4-4.6-3.2c-5.9-2.7-12.6-3.6-18.7-5.6c-6.2-2-12.5-5.5-15.3-11.3c-0.5-1.1-0.9-2.4-0.6-3.7
					c0.2-0.6,0.5-1.3,0.9-1.8c1.7-2.6,3.4-5.2,5.1-7.7c-0.1,3.2-0.2,6.6,1.5,9.3c1.9,3.3,5.7,4.9,9.3,6.2c3.2,1.2,6.6,2.2,9.9,2.2
					c3.4,0,6.9-1.1,9.2-3.7c1.3-1.6,2.1-3.5,2.9-5.4C-0.3,704,1,700.4,2.4,696.9z"/>
				<path d="M-87.9,478.1c11.4,6.3,20.7,16.4,25.8,28.4c2.2,5,3.7,10.4,6.6,14.9c5.7,8.6,15.8,12.9,23.5,19.7
					c9.8,8.8,15.5,21.7,17.1,34.8s-0.3,26.4-3.7,39.3c-1.9,6.9-4.1,13.8-4.7,20.9c-3.2-9.9,3-20.3,4.4-30.6
					c1.7-11.9-3.5-24.6-13.1-31.8c-1.2-0.9-2.4-1.7-3.3-3c-0.8-1.1-1.1-2.4-1.5-3.7c-2.8-8.8-9.4-16.7-18.2-19.9
					c-8.7-3.2-19.4-1.3-25.7,5.5s-7.3,18.3-1.6,25.5c-5.5-6.9-13.3-11.7-21-16s-15.6-8.8-21.7-15.2c-6.1-6.4-10.2-15.5-8.5-24.2
					c3,8.6,9.5,15.6,16.9,20.8c7.4,5.2,15.8,8.8,24.2,12.4c-18.7-14.7-31.5-36.8-34.9-60.4c6,12.6,14,24.2,23.8,34.3
					c-7.2-18.6-15.2-38.3-31.5-49.7c16.4,6.1,29.6,20.4,34.3,37.3c-0.2-20.7-15.1-39-32.9-49.7c22.7,7.7,41.6,26.1,49.8,48.7
					c0.4-9-3.2-17.9-8.3-25.3c-5.2-7.4-11.8-13.7-18.3-19.9c19.7,10.1,35.2,28.1,42.2,49.2C-68.2,504.4-75.6,488.5-87.9,478.1z"/>
			</g>
			<g id="eyes">
				<path class="st2" d="M76.5,541.5c-6.4-3.3-14-4.1-21-2c-6.9,2-13,6.9-16.2,13.3c-2,3.9-3,8.2-3.6,12.6c-1.2,8.8-1.2,17.7,0,26.4
					c1.5-5,5.9-8.8,10.8-10.7c4.9-1.9,10.3-2,15.5-1.7c6.3,0.4,13.1,1.4,18.5-1.8c3.5-2.1,5.9-5.7,6.9-9.7c1.1-3.9,0.9-8.1,0-12.1
					c-0.5-2.3-1.2-4.5-2.3-6.4C83.3,546,80,543.4,76.5,541.5z"/>
				<path d="M77.7,579.8c-3,0.9-6.2,1-9.4,1c-9.2,0.1-19.1-1.1-26.8,3.9c8.2-7.5,19.4-10.5,30.1-13.7c10.6-3.2,21.8-7.3,28.5-16.1
					c-2,5.5-4.5,10.7-8.2,15.2C88.2,574.7,83.3,578.3,77.7,579.8z"/>
				<path class="st2" d="M-75.2,543.1c6.4-3.3,14-4.1,21-2c6.9,2,13,6.9,16.2,13.3c2,3.9,3,8.2,3.6,12.6c1.2,8.8,1.2,17.7,0,26.4
					c-1.5-5-5.9-8.8-10.8-10.7s-10.3-2-15.5-1.7c-6.3,0.4-13.1,1.4-18.5-1.8c-3.5-2.1-5.9-5.7-6.9-9.7c-1.1-3.9-0.9-8.1,0-12.1
					c0.5-2.3,1.2-4.5,2.3-6.4C-82,547.6-78.8,545-75.2,543.1z"/>
				<path d="M-76.5,581.3c3,0.9,6.2,1,9.4,1c9.2,0.1,19.1-1.1,26.8,3.9c-8.2-7.5-19.4-10.5-30.1-13.7c-10.6-3.2-21.8-7.3-28.5-16.1
					c2,5.5,4.5,10.7,8.2,15.2C-87,576.3-82,579.9-76.5,581.3z"/>
			</g>
		</g>
	</g>
</g>
<g id="Layer_2_3_">
	<g>
		<g>
			<g id="Layer_1_1_">
				<g id="Layer_3_1_">
					<path d="M114.2,1259.7c-9.5,3.2-19.7,4.6-29,8.2c-22.3,8.7-38.2,28.8-49.2,49.8c-13.1,25.1-20.9,53.1-22.8,81.4
						c1.8-12.8,8.2-24.5,14.4-35.8c7.2-13,14.4-26.2,24.5-37.2c17.4-19.1,41.5-30,63-44c21.5-14.1,42.3-33.4,45.9-59
						C150.5,1240.2,133.5,1253.4,114.2,1259.7z"/>
					<path d="M92.1,1498.6c1.6,0.4,3.1,0.7,4.3,1.8c3.1,2.9,1.2,8.2-1.3,11.6c-3.8,4.9-8.6,8.9-14.1,11.6
						c14.6-3.3,24.7-16,34.7-27.2c10-11.1,23.2-22,38.1-20.2c-5.5-4.2-12.5-6.4-19.3-6.1c16.6-6.7,29.5-22.1,33-39.6
						c-4.8,7.2-11.5,12.8-19.3,16.3c7.6-12,13-25.6,14.1-39.6c1.1-14.1-2.2-28.9-10.9-40.3c-2.7-3.7-6-7-8.1-10.9
						c-6.1-11.3-2.2-25.6,5-36.1c1.6-2.2,3.5-4.5,6.1-5.3c2.7-0.7,6.1,1,6.1,3.7c-0.7-3.7-4.3-6.4-8.1-6.9s-7.5,1-10.5,3.3
						c-8.1,6-11.1,16.6-11.6,26.7c-0.5,10,1.1,20.1,0.1,30.1c-2,20.4-14.7,38.7-30.5,51.8c-15.8,13.2-34.5,22.1-52.9,31.3
						c27.7-2.6,54.7-11.9,78.2-26.8c-8.7,12-21.7,20.4-35.6,25.6c-13.8,5.1-28.8,7.2-43.6,8.2c24.7,5.8,51.5,1.1,73-12.4
						c-0.2,5.9-5.5,10.3-10.6,13.2c-20.3,11.9-45.3,15.5-68.3,10c23.7,8.9,50.7,9.5,74.8,1.6c-2.7,8.7-12.2,13.3-21.2,15.3
						c-17.9,4-37.2,1.1-53.2-7.8c5.5,7.5,14.7,11.1,23.9,13C73.8,1496.4,83.2,1496.5,92.1,1498.6z"/>
					<path class="st0" d="M159.4,1224.2c13.6,31.1,6.7,69.9-16.5,94.6"/>
					<path class="st0" d="M25.2,1412.8c-1.5,6.2-0.9,13,1.8,18.8c2.7,5.9,7.3,10.8,13,13.7"/>
					<path class="st0" d="M19.1,1419.7c1,7.5,2.8,14.9,6.7,21.4c4,6.4,10.5,11.5,18,12.5"/>
					<path class="st0" d="M15.5,1432.3c1.2,6.7,4.9,13,10.3,17.5c5.3,4.4,12.1,7,19.1,7"/>
					<path class="st0" d="M18.6,1450c-0.1,0.1-0.1-0.1-0.1-0.1c0.1-0.1,0.2,0.1,0.4,0.1c2.4,3.2,4.8,6.6,7.8,9.2
						c3.2,2.6,7.2,4.2,11.1,3.1"/>
					<path class="st0" d="M21.4,1459.7c4.8,6.2,13.1,9.5,20.9,8.3"/>
					<path class="st0" d="M36.3,1471.9c-3.9,2.4-9.4,2.1-13-1"/>
					<path class="st1" d="M70.7,1325.1c2.7-6.6,9.4-10.9,16.2-13c6.7-2.2,14.1-2.7,21-3.9c7.1-1.3,14.1-3.5,20.7-6.6
						c3.2-1.5,6.4-3.1,9.1-5.5c4.8-4.2,7.6-10,10.3-15.7"/>
					<path class="st1" d="M85.5,1307.5c6.9-3.8,14.9-4.2,22.8-5.8c15.9-3.4,31.1-13.5,37.3-28.5"/>
					<path class="st1" d="M96.2,1300.7c7-4,15.7-3.7,22.9-7.2c6.9-3.3,11.5-9.8,16-16"/>
					<path class="st1" d="M131.2,1305.3c5.4-1.3,9.5-5.5,12.8-10c3.2-4.5,5.8-9.5,9.2-13.8"/>
					<path class="st1" d="M137.4,1308c5.3-4.4,9.7-9.7,13.2-15.7"/>
					<path d="M43.2,1536.1c1.5,2.6,3.3,5.9,6.2,5.8c2.3-0.1,4-2.4,4-4.9c0.1-2.3-1-4.4-2.2-6.5c-4.3-7.2-10.2-13.5-17.1-18.2
						c7.6-0.6,12.8,6.7,18.4,12c3.5,3.5,8.9,6.5,13.5,4.3c3.8-1.8,5.1-6.9,3.8-10.8c-1.3-3.9-4.9-6.7-8.7-8.4c-3.8-1.7-8-2.4-12-3.4
						c-5-1.2-10.2-2.9-14.1-6.4c-4-3.4-6.6-8.7-5.5-13.8c7.3,8.9,19.6,11.6,30.7,14.7s23.1,8.2,27.5,18.8c0.7,2,1.2,4.2,0.5,6
						c-0.6,1.5-2,2.6-3.3,3.5c-6.1,4.6-12.7,8.4-19.7,11.6c-8.9,4-19.1,7.2-25.3,14.7c1.2-10.5-2.1-21.4-8.9-29.6
						C36,1527.5,40.4,1531.3,43.2,1536.1z"/>
					<path d="M-20.1,1508.5c2.9,4.3,9.1,7.2,13.5,4.3c2.7-1.8,3.7-5.3,3.9-8.4c0.5-8.2-3.4-16.6-10.2-21.4c-1.5-1.1-3.2-2.1-4.4-3.3
						c-1.2-1.3-2.1-3.3-1.3-5c1.2-3.3,6.2-3.1,8.7-0.6s3.5,5.9,5.6,8.7s6.1,5,8.9,2.9c1.2-0.9,1.8-2.2,2.4-3.5
						c2.4-4.9,6.4-10.2,11.9-9.8c1.2,0.1,2.4,0.5,2.9,1.6c0.5,1,0.1,2.1-0.4,3.1c-2.6,5.4-8.3,8.4-12,13.1c-4,5-5.1,12.6-1.5,18
						c3.7,5.3,12.6,6.5,16.5,1.3c0.4,3.5-2.9,6.6-6.4,7.7c-3.4,1.1-7.2,1-10.6,1.8c-3.5,0.9-7.1,3.4-7.3,7c-0.2-3.2-3.2-5.5-6.1-6.7
						s-6.2-1.6-9.2-2.9C-18.2,1514.6-20.7,1511.6-20.1,1508.5z"/>
					<path class="st1" d="M-17.3,1478.7c-2.4-2.9-3.7-6.7-3.4-10.6c0.1-0.6,0.1-1.3,0.5-1.8c0.5-0.7,1.5-1.1,2.4-1.3
						c1.6-0.5,3.3-1.1,4.9-1.6c0.5-0.1,1-0.4,1.5-0.4c1.6,0.1,2.4,2,3.3,3.3c2.9,4.6,10.4,5.3,14.1,1.3c2-2.1,3.3-5.5,6.2-5.6
						c1.8-0.1,3.3,1.2,4.6,2.3c1.6,1.3,3.3,2.9,4.9,4.3c0.5,0.4,1,1,1.2,1.6c0.1,0.7-0.2,1.3-0.6,2.1c-2.3,4-4.8,8-7.8,11.3
						c-3.1,3.3-7.1,6.1-11.6,7.2c-2-4.4-2.8-9.3-2.7-14.2"/>
					<path d="M12.4,1416.8c0.1,7.6,0.1,15.4,1.3,22.9c1.3,8.1,4.2,17,3.9,25.3c0-2.6-5.8-4.9-7.3-2.9c-6.5-30.6-4.6-62.5,1.8-93.1
						C12.1,1384.8,12.2,1400.7,12.4,1416.8z"/>
					<path class="st0" d="M25.6,1524.4c4.3,4.6,6.2,11.3,5,17.4"/>
					<path d="M-0.7,1536.7c1.3,7.1,2.6,14.3,1.3,21.4c-0.5,3.3-1.6,6.5-1.8,9.8s0.5,7,3.1,9.2c-0.7-1.7-0.2-3.8,1-5.3
						s2.9-2.4,4.6-3.2c5.9-2.7,12.6-3.5,18.7-5.5c6.2-2,12.5-5.5,15.3-11.3c0.5-1.1,1-2.4,0.6-3.7c-0.1-0.6-0.5-1.2-1-1.8
						c-1.7-2.6-3.4-5.1-5-7.7c0.1,3.2,0.1,6.6-1.5,9.3c-1.8,3.3-5.8,4.9-9.3,6.1c-3.2,1.2-6.6,2.2-9.9,2.2c-3.4,0-7-1.1-9.2-3.7
						c-1.3-1.6-2.1-3.5-2.9-5.4C2,1543.6,0.6,1540.1-0.7,1536.7z"/>
					<path d="M-11.9,1417.5c-0.1,7.6-0.1,15.4-1.3,22.9c-1.3,8.1-5.9,16.3-5.8,24.5c2.4-0.9,6.9-2,9.2-2.1
						c6.5-30.6,4.6-62.5-1.8-93.1C-11.6,1385.7-11.7,1401.6-11.9,1417.5z"/>
					<path d="M26.7,1558.1c-1.3,1-2.8,1.8-4.3,2.4c-13.3,6.1-29.1,5-42.8-0.1c-6.1-2.3-12.1-5.8-15.3-11.5c3.8,3.1,9.2,3.5,13.7,1.8
						c4.5-1.7,8.2-5.3,10.9-9.2c2.7-4,4.5-8.6,6.4-13c1.3,2,4.2,2.7,6.4,1.7c1.1-0.5,2.1-1.3,3.1-2.1c1-0.6,2.3-1.1,3.5-0.6
						c-1.6,0.7-2.1,2.9-1.8,4.8c0.4,5.8,4,10.9,8.8,13.8c4.9,3.1,10.6,4.2,16.3,3.9C30.8,1553.2,29.1,1556.1,26.7,1558.1z"/>
					<path d="M-17.5,1302.2c0.5-1.6,1.6-3.3,3.2-3.2c1,0.1,1.6,0.7,2.2,1.6c1.6,2.2,2.2,5.1,2.7,7.8c2.7,14.9,2.7,30.2,6.4,44.9
						c-0.4-11.3,0.1-22.5,1.3-33.6c0.7-6,1.7-12.1,4.2-17.7c0.9-1.8,2.1-3.8,4-4.2c1.3-0.2,2.7,0.4,3.8,1.2
						c3.2,2.4,3.9,6.7,4.4,10.6c1.2,10,1.3,20.2,0.7,30.2c1.2-12,2.7-24.5,9.4-34.3c1.1-1.6,2.7-3.2,4.6-2.9c1.8,0.4,2.9,2.2,3.3,4
						c1.3,4.9,1,10.3-1.2,14.9c0.5-5.3,4-10,8.7-12.6c4.6-2.6,10.3-3.2,15.4-2.2c1.6,0.2,3.2,0.6,4.8,0.5c1.6-0.1,3.2-1.1,3.7-2.6
						c0.9-2.7-2.1-5-4.6-6.2c-12.8-6.1-26.6-10-40.4-12.8c-6.7-1.3-13.7-2.3-20.7-2.3c-20.8-0.1-40.5,8.1-59.5,16
						c-0.9,0.4-1.8,1-1.8,1.8c0,0.5,0.4,1,0.7,1.5c1,1,1.8,2.1,2.8,3.2c1.3,1.6,3.2,3.3,5.3,2.9c3.5-0.5,4.3-6.1,7.7-6.7
						c1.6-0.2,3.1,0.7,4.4,1.8c3.7,3.1,6.6,7.1,8.3,11.5c-0.6-3.5-0.9-7.2-0.7-10.9c0.1-1.3,0.4-2.9,1.6-3.3
						c1.6-0.5,2.9,1.2,3.8,2.8c5.8,12.5,9.9,25.7,12.4,39.3C-16,1329.6-21.8,1315.5-17.5,1302.2z"/>
				</g>
				<g id="Layer_2_2_">
					<path d="M88,1318.3c-11.4,6.2-20.7,16.4-25.8,28.3c-2.2,5-3.7,10.4-6.6,14.9c-5.8,8.6-15.8,12.8-23.5,19.7
						c-9.8,8.7-15.4,21.7-17.1,34.7s0.4,26.3,3.8,39.2c1.8,6.9,4.2,13.7,4.6,20.8c3.2-9.9-2.9-20.2-4.4-30.5
						c-1.7-11.9,3.5-24.5,13.1-31.7c1.2-0.9,2.4-1.7,3.3-2.9c0.7-1.1,1.1-2.4,1.5-3.7c2.8-8.8,9.4-16.6,18.2-19.8
						c8.7-3.2,19.3-1.3,25.7,5.5c6.4,6.7,7.3,18.2,1.6,25.4c5.5-6.9,13.3-11.6,20.9-16c7.7-4.4,15.7-8.7,21.7-15.2
						c6.1-6.4,10.3-15.4,8.4-24.1c-3.1,8.6-9.5,15.5-16.9,20.8c-7.5,5.3-15.8,8.8-24.2,12.4c18.7-14.7,31.6-36.7,34.9-60.3
						c-6,12.6-14.1,24.2-23.7,34.3c7.2-18.6,15.2-38.2,31.6-49.6c-16.4,6.1-29.6,20.3-34.4,37.2c0.2-20.7,15-38.9,32.8-49.6
						c-22.8,7.6-41.6,26.1-49.8,48.6c-0.4-8.9,3.2-17.9,8.3-25.3c5-7.5,11.7-13.7,18.4-19.8c-19.7,10-35.2,28-42.2,49.1
						C68.3,1344.6,75.7,1328.8,88,1318.3z"/>
					<path d="M-114.2,1259.7c9.5,3.2,19.7,4.6,29,8.2c22.3,8.7,38.2,28.8,49.2,49.8c13.1,25.1,20.9,53.1,22.8,81.4
						c-1.8-12.8-8.2-24.5-14.4-35.8c-7.2-13-14.4-26.2-24.5-37.2c-17.4-19.1-41.5-30-63-44c-21.5-14.1-42.3-33.4-45.9-59
						C-150.4,1240.2-133.5,1253.4-114.2,1259.7z"/>
					<path d="M-92.1,1498.6c-1.6,0.4-3.2,0.7-4.3,1.8c-3.2,2.9-1.2,8.2,1.3,11.6c3.8,4.9,8.6,8.9,14.1,11.6
						c-14.6-3.3-24.7-16-34.7-27.2s-23.2-22-38.1-20.2c5.5-4.2,12.5-6.4,19.3-6.1c-16.6-6.7-29.5-22.1-33-39.6
						c4.8,7.2,11.5,12.8,19.3,16.3c-7.6-12-13-25.6-14.1-39.6c-1.2-14.1,2.2-28.9,10.9-40.3c2.7-3.7,6-7,8.1-10.9
						c6.1-11.3,2.2-25.6-5-36.1c-1.6-2.2-3.5-4.5-6.1-5.3c-2.7-0.7-6.1,1-6.1,3.7c0.7-3.7,4.3-6.4,8.1-6.9c3.8-0.5,7.5,1,10.5,3.3
						c8.1,6,11.1,16.6,11.6,26.7c0.5,10-1.1,20.1-0.1,30.1c2,20.4,14.7,38.7,30.5,51.8c15.8,13.2,34.5,22.1,52.9,31.3
						c-27.7-2.6-54.7-11.9-78.2-26.8c8.7,12,21.7,20.4,35.6,25.6c13.9,5.1,28.8,7.2,43.6,8.2c-24.7,5.8-51.5,1.1-73-12.4
						c0.2,5.9,5.5,10.3,10.6,13.2c20.3,11.9,45.3,15.5,68.3,10c-23.7,8.9-50.7,9.5-74.8,1.6c2.7,8.7,12.2,13.3,21.2,15.3
						c17.9,4,37.2,1.1,53.2-7.8c-5.5,7.5-14.7,11.1-23.9,13S-83.1,1496.5-92.1,1498.6z"/>
					<path class="st0" d="M-159.3,1224.2c-13.6,31.1-6.7,69.9,16.5,94.6"/>
					<path class="st0" d="M-25.2,1412.8c1.5,6.2,0.9,13-1.8,18.8c-2.7,5.9-7.3,10.8-13,13.7"/>
					<path class="st0" d="M-19,1419.7c-1,7.5-2.8,14.9-6.7,21.4c-4,6.4-10.5,11.5-18,12.5"/>
					<path class="st0" d="M-15.4,1432.3c-1.2,6.7-4.9,13-10.3,17.5c-5.3,4.4-12.1,7-19.1,7"/>
					<path class="st0" d="M-18.5,1450c0.1,0.1,0.1-0.1,0.1-0.1c-0.1,0-0.2,0.1-0.4,0.1c-2.4,3.2-4.8,6.6-7.8,9.2
						c-3.2,2.6-7.2,4.2-11.1,3.1"/>
					<path class="st0" d="M-21.4,1459.7c-4.8,6.2-13.1,9.5-20.9,8.3"/>
					<path class="st0" d="M-36.3,1471.9c3.9,2.4,9.4,2.1,13-1"/>
					<path class="st1" d="M-70.6,1325.1c-2.7-6.6-9.3-10.9-16.2-13c-6.7-2.1-14.1-2.7-21-3.9c-7.1-1.3-14.1-3.5-20.7-6.6
						c-3.2-1.5-6.4-3.1-9.1-5.5c-4.8-4.2-7.6-10-10.3-15.7"/>
					<path class="st1" d="M-85.5,1307.5c-6.9-3.8-14.9-4.2-22.8-5.8c-15.9-3.4-31.1-13.5-37.3-28.5"/>
					<path class="st1" d="M-96,1300.7c-7-4-15.7-3.7-22.9-7.2c-6.9-3.3-11.5-9.8-16-16"/>
					<path class="st1" d="M-131.2,1305.3c-5.4-1.3-9.5-5.5-12.8-10c-3.2-4.5-5.8-9.5-9.2-13.8"/>
					<path class="st1" d="M-137.3,1308c-5.3-4.4-9.7-9.7-13.2-15.7"/>
					<path d="M-43.1,1536.1c-1.5,2.6-3.3,5.9-6.2,5.8c-2.3-0.1-4-2.4-4-4.9c-0.1-2.3,1-4.4,2.2-6.5c4.3-7.2,10.2-13.5,17.1-18.2
						c-7.6-0.6-12.8,6.7-18.4,12c-3.5,3.5-8.9,6.5-13.5,4.3c-3.8-1.8-5.1-6.9-3.8-10.8c1.3-3.9,4.9-6.7,8.7-8.4s8-2.4,12-3.4
						c5-1.2,10.2-2.9,14.1-6.4c4-3.4,6.6-8.7,5.5-13.8c-7.3,8.9-19.6,11.6-30.7,14.7s-23.1,8.2-27.5,18.8c-0.7,2-1.2,4.2-0.5,6
						c0.6,1.5,2,2.6,3.3,3.5c6.1,4.6,12.7,8.4,19.7,11.6c8.9,4,19.1,7.2,25.3,14.7c-1.2-10.5,2.1-21.4,8.9-29.6
						C-35.8,1527.5-40.3,1531.3-43.1,1536.1z"/>
					<path class="st0" d="M-25.4,1524.4c-4.3,4.6-6.2,11.3-5,17.4"/>
					<path d="M2.4,1536.7c-1.3,7.1-2.6,14.3-1.3,21.4c0.5,3.3,1.6,6.5,1.8,9.8s-0.5,7-3.1,9.2c0.7-1.7,0.2-3.8-1-5.3
						s-2.9-2.4-4.6-3.2c-5.9-2.7-12.6-3.5-18.7-5.5c-6.1-2-12.5-5.5-15.3-11.3c-0.5-1.1-1-2.4-0.6-3.7c0.1-0.6,0.5-1.2,1-1.8
						c1.7-2.6,3.4-5.1,5-7.7c-0.1,3.2-0.1,6.6,1.5,9.3c1.8,3.3,5.8,4.9,9.3,6.1c3.2,1.2,6.6,2.2,9.9,2.2c3.4,0,7-1.1,9.2-3.7
						c1.3-1.6,2.1-3.5,2.9-5.4C-0.2,1543.6,1,1540.1,2.4,1536.7z"/>
					<path d="M-87.8,1318.3c11.4,6.2,20.7,16.4,25.8,28.3c2.2,5,3.7,10.4,6.6,14.9c5.8,8.6,15.8,12.8,23.5,19.7
						c9.8,8.7,15.4,21.7,17.1,34.7c1.6,13.1-0.4,26.3-3.8,39.2c-1.8,6.9-4.2,13.7-4.6,20.8c-3.2-9.9,2.9-20.2,4.4-30.5
						c1.7-11.9-3.5-24.5-13.1-31.7c-1.2-0.9-2.4-1.7-3.3-2.9c-0.7-1.1-1.1-2.4-1.5-3.7c-2.8-8.8-9.4-16.6-18.2-19.8
						c-8.7-3.2-19.3-1.3-25.7,5.5c-6.4,6.7-7.3,18.2-1.6,25.4c-5.5-6.9-13.3-11.6-20.9-16c-7.6-4.4-15.7-8.7-21.7-15.2
						c-6.1-6.4-10.3-15.4-8.4-24.1c3.1,8.6,9.5,15.5,16.9,20.8c7.5,5.3,15.8,8.8,24.2,12.4c-18.7-14.7-31.6-36.7-34.9-60.3
						c6,12.6,14.1,24.2,23.7,34.3c-7.2-18.6-15.2-38.2-31.6-49.6c16.4,6.1,29.6,20.3,34.4,37.2c-0.2-20.7-15-38.9-32.8-49.6
						c22.8,7.6,41.6,26.1,49.8,48.6c0.4-8.9-3.2-17.9-8.3-25.3c-5.1-7.5-11.7-13.7-18.4-19.8c19.7,10,35.2,28,42.2,49.1
						C-68.2,1344.6-75.6,1328.8-87.8,1318.3z"/>
				</g>
				<path class="st2" d="M76.5,1381.6c-6.4-3.3-14.1-4-20.9-2.1c-7,2.1-13,6.9-16.3,13.2c-2,3.9-2.9,8.2-3.5,12.6
					c-1.2,8.7-1.2,17.6,0,26.3c1.5-5,5.9-8.8,10.8-10.6c4.9-1.8,10.3-2.1,15.5-1.7c6.4,0.4,13.1,1.3,18.5-1.8c3.5-2.1,5.9-5.8,7-9.7
					c1.1-3.9,0.9-8.1,0-12.1c-0.5-2.2-1.2-4.4-2.2-6.4C83.2,1386.1,80,1383.5,76.5,1381.6z"/>
				<path class="st2" d="M-75.1,1383.2c6.4-3.3,14.1-4,20.9-2.1c6.9,2.1,13,6.9,16.3,13.2c2,3.9,2.9,8.2,3.5,12.6
					c1.2,8.7,1.2,17.6,0,26.3c-1.5-5-5.9-8.8-10.8-10.6c-4.9-1.8-10.3-2.1-15.5-1.7c-6.4,0.4-13.1,1.3-18.5-1.8
					c-3.5-2.1-5.9-5.8-7-9.7c-1.1-3.9-0.9-8.1,0-12.1c0.5-2.2,1.2-4.4,2.2-6.4C-81.9,1387.6-78.7,1385.1-75.1,1383.2z"/>
			</g>
			<g id="Layer_2_1_">
				<g>
					<circle class="st3" cx="62.8" cy="1405" r="15.7"/>
					<circle cx="62.8" cy="1405" r="7.6"/>
					<circle class="st3" cx="-59.8" cy="1405" r="15.7"/>
					<circle cx="-59.8" cy="1405" r="7.6"/>
					<polyline class="st4" points="-58,1389.5 -61.4,1420.6 -54.2,1390.5 -58,1389.5 					"/>
					<polyline class="st4" points="64.8,1389.5 61.3,1420.6 68.5,1390.5 64.8,1389.5 					"/>
					<path class="st5" d="M36.3,1434.3c-1.5-7.6,0.7-15.3,3.1-22.5c0.6-1.7,1.2-3.5,2.1-5.1c1-1.7,2.2-3.4,3.7-4.8
						c4.9-5.1,11.6-8.7,18.7-8.7c8.9,0.1,17,5.9,25.9,6c8.8,0.1,17.1-5.8,21-13.6c-2.1,3.1-6,4.3-9.7,4.9c-3.4,0.5-7,0.5-10.5,0
						c-4.9-0.7-9.7-2.1-14.6-3.2c-13.3-2.9-19.3-2.3-28,4.6c0.5-2.1,0-6-2-7.5c0,2.7-0.1,8.1-2,10.3c-1.2,1.5-2.2,2.7-3.4,4
						c-5.3,6-5.8,14.7-5.9,22.8C34.6,1424.8,35,1431.1,36.3,1434.3"/>
					<path class="st5" d="M36.3,1434.3c-1.5-7.6,0.7-15.3,3.1-22.5c0.6-1.7,1.2-3.5,2.1-5.1c1-1.7,2.2-3.4,3.7-4.8
						c4.9-5.1,11.6-8.7,18.7-8.7c8.9,0.1,17,5.9,25.9,6c8.8,0.1,17.1-5.8,21-13.6c-2.1,3.1-6,4.3-9.7,4.9c-3.4,0.5-7,0.5-10.5,0
						c-4.9-0.7-9.7-2.1-14.6-3.2c-13.3-2.9-19.3-2.3-28,4.6c0.5-2.1,0-6-2-7.5c0,2.7-0.1,8.1-2,10.3c-1.2,1.5-2.2,2.7-3.4,4
						c-5.3,6-5.8,14.7-5.9,22.8C34.6,1424.8,35,1431.1,36.3,1434.3"/>
					<path class="st5" d="M-34.5,1435.1c1.5-7.6-0.7-15.3-3.1-22.5c-0.6-1.7-1.2-3.5-2.1-5.1c-1-1.7-2.2-3.4-3.7-4.8
						c-4.9-5.1-11.6-8.7-18.7-8.7c-8.9,0.1-17,5.9-25.9,6c-8.8,0.1-17.1-5.8-21-13.6c2.1,3.1,6,4.3,9.7,4.9c3.4,0.5,7,0.5,10.5,0
						c4.9-0.7,9.7-2.1,14.6-3.2c13.3-2.9,19.3-2.3,28,4.6c-0.5-2.1,0-6,2-7.5c0,2.7,0.1,8.1,2,10.3c1.2,1.5,2.2,2.7,3.4,4
						c5.3,6,5.8,14.7,5.9,22.8C-32.8,1425.8-33.2,1431.9-34.5,1435.1"/>
				</g>
			</g>
		</g>
	</g>
</g>
<g id="Layer_3_2_">
	<g>
		<path class="st2" d="M-75.1,963.2c6.4-3.3,14.1-4,20.9-2.1c6.9,2.1,13,6.9,16.3,13.2c2,3.9,2.9,8.2,3.5,12.6
			c1.2,8.7,1.2,17.6,0,26.3c-1.5-5-5.9-8.8-10.8-10.6s-10.3-2.1-15.5-1.7c-6.4,0.4-13.1,1.3-18.5-1.8c-3.5-2.1-5.9-5.8-7-9.7
			c-1.1-3.9-0.9-8.1,0-12.1c0.5-2.2,1.2-4.4,2.2-6.4C-81.9,967.6-78.7,965.1-75.1,963.2z"/>
		<ellipse class="st3" cx="-59.8" cy="989.2" rx="15.7" ry="11.5"/>
		<circle cx="-59.8" cy="985" r="7.6"/>
		<polyline class="st4" points="-58,969.5 -61.4,1000.6 -54.2,970.5 -58,969.5 		"/>
		<g id="Layer_3_3_">
			<path d="M114.2,839.7c-9.5,3.2-19.7,4.6-29,8.2C62.9,856.5,47,876.6,36,897.7C22.9,922.7,15,950.8,13.2,979
				c1.8-12.8,8.2-24.5,14.4-35.8c7.2-13,14.4-26.2,24.5-37.2c17.4-19.1,41.5-30,63-44c21.5-14.1,42.3-33.4,45.9-59
				C150.5,820.2,133.5,833.4,114.2,839.7z"/>
			<path d="M92.1,1078.6c1.6,0.4,3.1,0.7,4.3,1.8c3.1,2.9,1.2,8.2-1.3,11.6c-3.8,4.9-8.6,8.9-14.1,11.6c14.6-3.3,24.7-16,34.7-27.2
				c10-11.1,23.2-22,38.1-20.2c-5.5-4.2-12.5-6.4-19.3-6.1c16.6-6.7,29.5-22.1,33-39.6c-4.8,7.2-11.5,12.8-19.3,16.3
				c7.6-12,13-25.6,14.1-39.6s-2.2-28.9-10.9-40.3c-2.7-3.7-6-7-8.1-10.9c-6.1-11.3-2.2-25.6,5-36.1c1.6-2.2,3.5-4.5,6.1-5.3
				c2.7-0.7,6.1,1,6.1,3.7c-0.7-3.7-4.3-6.4-8.1-6.9c-3.8-0.5-7.5,1-10.5,3.3c-8.1,6-11.1,16.6-11.6,26.7c-0.5,10,1.1,20.1,0.1,30.1
				c-2,20.4-14.7,38.7-30.5,51.8c-15.8,13.2-34.5,22.1-52.9,31.3c27.7-2.6,54.7-11.9,78.2-26.8c-8.7,12-21.7,20.4-35.6,25.6
				c-13.8,5.1-28.8,7.2-43.6,8.2c24.7,5.8,51.5,1.1,73-12.4c-0.2,5.9-5.5,10.3-10.6,13.2c-20.3,11.9-45.3,15.5-68.3,10
				c23.7,8.9,50.7,9.5,74.8,1.6c-2.7,8.7-12.2,13.3-21.2,15.3c-17.9,4-37.2,1.1-53.2-7.8c5.5,7.5,14.7,11.1,23.9,13
				C73.8,1076.4,83.2,1076.5,92.1,1078.6z"/>
			<path class="st0" d="M159.4,804.2c13.6,31.1,6.7,69.9-16.5,94.6"/>
			<path class="st0" d="M25.2,992.8c-1.5,6.2-0.9,13,1.8,18.8s7.3,10.8,13,13.7"/>
			<path class="st0" d="M19.1,999.7c1,7.5,2.8,14.9,6.7,21.4c4,6.4,10.5,11.5,18,12.5"/>
			<path class="st0" d="M15.5,1012.3c1.2,6.7,4.9,13,10.3,17.5c5.3,4.4,12.1,7,19.1,7"/>
			<path class="st0" d="M18.6,1030c-0.1,0.1-0.1-0.1-0.1-0.1c0.1-0.1,0.2,0.1,0.4,0.1c2.4,3.2,4.8,6.6,7.8,9.2
				c3.2,2.6,7.2,4.2,11.1,3.1"/>
			<path class="st0" d="M21.4,1039.7c4.8,6.2,13.1,9.5,20.9,8.3"/>
			<path class="st0" d="M36.3,1051.9c-3.9,2.4-9.4,2.1-13-1"/>
			<path class="st1" d="M70.7,905.1c2.7-6.6,9.4-10.9,16.2-13c6.7-2.2,14.1-2.7,21-3.9c7.1-1.3,14.1-3.5,20.7-6.6
				c3.2-1.5,6.4-3.1,9.1-5.5c4.8-4.2,7.6-10,10.3-15.7"/>
			<path class="st1" d="M85.5,887.5c6.9-3.8,14.9-4.2,22.8-5.8c15.9-3.4,31.1-13.5,37.3-28.5"/>
			<path class="st1" d="M96.2,880.7c7-4,15.7-3.7,22.9-7.2c6.9-3.3,11.5-9.8,16-16"/>
			<path class="st1" d="M131.2,885.3c5.4-1.3,9.5-5.5,12.8-10c3.2-4.5,5.8-9.5,9.2-13.8"/>
			<path class="st1" d="M137.4,888c5.3-4.4,9.7-9.7,13.2-15.7"/>
			<path d="M43.2,1116.1c1.5,2.6,3.3,5.9,6.2,5.8c2.3-0.1,4-2.4,4-4.9c0.1-2.3-1-4.4-2.2-6.5c-4.3-7.2-10.2-13.5-17.1-18.2
				c7.6-0.6,12.8,6.7,18.4,12c3.5,3.5,8.9,6.5,13.5,4.3c3.8-1.8,5.1-6.9,3.8-10.8c-1.3-3.9-4.9-6.7-8.7-8.4c-3.8-1.7-8-2.4-12-3.4
				c-5-1.2-10.2-2.9-14.1-6.4c-4-3.4-6.6-8.7-5.5-13.8c7.3,8.9,19.6,11.6,30.7,14.7s23.1,8.2,27.5,18.8c0.7,2,1.2,4.2,0.5,6
				c-0.6,1.5-2,2.6-3.3,3.5c-6.1,4.6-12.7,8.4-19.7,11.6c-8.9,4-19.1,7.2-25.3,14.7c1.2-10.5-2.1-21.4-8.9-29.6
				C36,1107.5,40.4,1111.3,43.2,1116.1z"/>
			<path d="M-20.1,1088.5c2.9,4.3,9.1,7.2,13.5,4.3c2.7-1.8,3.7-5.3,3.9-8.4c0.5-8.2-3.4-16.6-10.2-21.4c-1.5-1.1-3.2-2.1-4.4-3.3
				c-1.2-1.3-2.1-3.3-1.3-5c1.2-3.3,6.2-3.1,8.7-0.6s3.5,5.9,5.6,8.7s6.1,5,8.9,2.9c1.2-0.9,1.8-2.2,2.4-3.5
				c2.4-4.9,6.4-10.2,11.9-9.8c1.2,0.1,2.4,0.5,2.9,1.6c0.5,1,0.1,2.1-0.4,3.1c-2.6,5.4-8.3,8.4-12,13.1c-4,5-5.1,12.6-1.5,18
				c3.7,5.3,12.6,6.5,16.5,1.3c0.4,3.5-2.9,6.6-6.4,7.7c-3.4,1.1-7.2,1-10.6,1.8c-3.5,0.9-7.1,3.4-7.3,7c-0.2-3.2-3.2-5.5-6.1-6.7
				s-6.2-1.6-9.2-2.9C-18.2,1094.6-20.7,1091.6-20.1,1088.5z"/>
			<path class="st1" d="M-17.3,1058.7c-2.4-2.9-3.7-6.7-3.4-10.6c0.1-0.6,0.1-1.3,0.5-1.8c0.5-0.7,1.5-1.1,2.4-1.3
				c1.6-0.5,3.3-1.1,4.9-1.6c0.5-0.1,1-0.4,1.5-0.4c1.6,0.1,2.4,2,3.3,3.3c2.9,4.6,10.4,5.3,14.1,1.3c2-2.1,3.3-5.5,6.2-5.6
				c1.8-0.1,3.3,1.2,4.6,2.3c1.6,1.3,3.3,2.9,4.9,4.3c0.5,0.4,1,1,1.2,1.6c0.1,0.7-0.2,1.3-0.6,2.1c-2.3,4-4.8,8-7.8,11.3
				c-3.1,3.3-7.1,6.1-11.6,7.2c-2-4.4-2.8-9.3-2.7-14.2"/>
			<path d="M12.4,996.8c0.1,7.6,0.1,15.4,1.3,22.9c1.3,8.1,4.2,17,3.9,25.3c0-2.6-5.8-4.9-7.3-2.9c-6.5-30.6-4.6-62.5,1.8-93.1
				C12.1,964.8,12.2,980.7,12.4,996.8z"/>
			<path class="st0" d="M25.6,1104.4c4.3,4.6,6.2,11.3,5,17.4"/>
			<path d="M-0.7,1116.7c1.3,7.1,2.6,14.3,1.3,21.4c-0.5,3.3-1.6,6.5-1.8,9.8c-0.2,3.3,0.5,7,3.1,9.2c-0.7-1.7-0.2-3.8,1-5.3
				s2.9-2.4,4.6-3.2c5.9-2.7,12.6-3.5,18.7-5.5c6.2-2,12.5-5.5,15.3-11.3c0.5-1.1,1-2.4,0.6-3.7c-0.1-0.6-0.5-1.2-1-1.8
				c-1.7-2.6-3.4-5.1-5-7.7c0.1,3.2,0.1,6.6-1.5,9.3c-1.8,3.3-5.8,4.9-9.3,6.1c-3.2,1.2-6.6,2.2-9.9,2.2c-3.4,0-7-1.1-9.2-3.7
				c-1.3-1.6-2.1-3.5-2.9-5.4C2,1123.6,0.6,1120.1-0.7,1116.7z"/>
			<path d="M-11.9,997.5c-0.1,7.6-0.1,15.4-1.3,22.9c-1.3,8.1-5.9,16.3-5.8,24.5c2.4-0.9,6.9-2,9.2-2.1c6.5-30.6,4.6-62.5-1.8-93.1
				C-11.6,965.7-11.7,981.6-11.9,997.5z"/>
			<path d="M26.7,1138.1c-1.3,1-2.8,1.8-4.3,2.4c-13.3,6.1-29.1,5-42.8-0.1c-6.1-2.3-12.1-5.8-15.3-11.5c3.8,3.1,9.2,3.5,13.7,1.8
				s8.2-5.3,10.9-9.2c2.7-4,4.5-8.6,6.4-13c1.3,2,4.2,2.7,6.4,1.7c1.1-0.5,2.1-1.3,3.1-2.1c1-0.6,2.3-1.1,3.5-0.6
				c-1.6,0.7-2.1,2.9-1.8,4.8c0.4,5.8,4,10.9,8.8,13.8c4.9,3.1,10.6,4.2,16.3,3.9C30.8,1133.2,29.1,1136.1,26.7,1138.1z"/>
			<path d="M-17.5,882.2c0.5-1.6,1.6-3.3,3.2-3.2c1,0.1,1.6,0.7,2.2,1.6c1.6,2.2,2.2,5.1,2.7,7.8c2.7,14.9,2.7,30.2,6.4,44.9
				c-0.4-11.3,0.1-22.5,1.3-33.6c0.7-6,1.7-12.1,4.2-17.7c0.9-1.8,2.1-3.8,4-4.2c1.3-0.2,2.7,0.4,3.8,1.2c3.2,2.4,3.9,6.7,4.4,10.6
				c1.2,10,1.3,20.2,0.7,30.2c1.2-12,2.7-24.5,9.4-34.3c1.1-1.6,2.7-3.2,4.6-2.9c1.8,0.4,2.9,2.2,3.3,4c1.3,4.9,1,10.3-1.2,14.9
				c0.5-5.3,4-10,8.7-12.6c4.6-2.6,10.3-3.2,15.4-2.2c1.6,0.2,3.2,0.6,4.8,0.5c1.6-0.1,3.2-1.1,3.7-2.6c0.9-2.7-2.1-5-4.6-6.2
				c-12.8-6.1-26.6-10-40.4-12.8c-6.7-1.3-13.7-2.3-20.7-2.3c-20.8-0.1-40.5,8.1-59.5,16c-0.9,0.4-1.8,1-1.8,1.8
				c0,0.5,0.4,1,0.7,1.5c1,1,1.8,2.1,2.8,3.2c1.3,1.6,3.2,3.3,5.3,2.9c3.5-0.5,4.3-6.1,7.7-6.7c1.6-0.2,3.1,0.7,4.4,1.8
				c3.7,3.1,6.6,7.1,8.3,11.5c-0.6-3.5-0.9-7.2-0.7-10.9c0.1-1.3,0.4-2.9,1.6-3.3c1.6-0.5,2.9,1.2,3.8,2.8
				c5.8,12.5,9.9,25.7,12.4,39.3C-16,909.6-21.8,895.5-17.5,882.2z"/>
		</g>
		<path class="st2" d="M76.5,961.6c-6.4-3.3-14.1-4-20.9-2.1c-7,2.1-13,6.9-16.3,13.2c-2,3.9-2.9,8.2-3.5,12.6
			c-1.2,8.7-1.2,17.6,0,26.3c1.5-5,5.9-8.8,10.8-10.6c4.9-1.8,10.3-2.1,15.5-1.7c6.4,0.4,13.1,1.3,18.5-1.8c3.5-2.1,5.9-5.8,7-9.7
			c1.1-3.9,0.9-8.1,0-12.1c-0.5-2.2-1.2-4.4-2.2-6.4C83.2,966.1,80,963.5,76.5,961.6z"/>
		<ellipse class="st3" cx="62.8" cy="989.2" rx="15.7" ry="11.5"/>
		<circle cx="62.8" cy="985" r="7.6"/>
		<polyline class="st4" points="64.8,969.5 61.3,1000.6 68.5,970.5 64.8,969.5 		"/>
		<g id="Layer_2_5_">
			<path d="M88,898.3c-11.4,6.2-20.7,16.4-25.8,28.3c-2.2,5-3.7,10.4-6.6,14.9c-5.8,8.6-15.8,12.8-23.5,19.7
				c-9.8,8.7-15.4,21.7-17.1,34.7c-1.7,13.1,0.4,26.3,3.8,39.2c1.8,6.9,4.2,13.7,4.6,20.8c3.2-9.9-2.9-20.2-4.4-30.5
				c-1.7-11.9,3.5-24.5,13.1-31.7c1.2-0.9,2.4-1.7,3.3-2.9c0.7-1.1,1.1-2.4,1.5-3.7c2.8-8.8,9.4-16.6,18.2-19.8
				c8.7-3.2,19.3-1.3,25.7,5.5c6.4,6.7,7.3,18.2,1.6,25.4c5.5-6.9,13.3-11.6,20.9-16c7.7-4.4,15.7-8.7,21.7-15.2
				c6.1-6.4,10.3-15.4,8.4-24.1c-3.1,8.6-9.5,15.5-16.9,20.8c-7.5,5.3-15.8,8.8-24.2,12.4c18.7-14.7,31.6-36.7,34.9-60.3
				c-6,12.6-14.1,24.2-23.7,34.3c7.2-18.6,15.2-38.2,31.6-49.6c-16.4,6.1-29.6,20.3-34.4,37.2c0.2-20.7,15-38.9,32.8-49.6
				c-22.8,7.6-41.6,26.1-49.8,48.6c-0.4-8.9,3.2-17.9,8.3-25.3c5-7.5,11.7-13.7,18.4-19.8c-19.7,10-35.2,28-42.2,49.1
				C68.3,924.6,75.7,908.8,88,898.3z"/>
			<path d="M-114.2,839.7c9.5,3.2,19.7,4.6,29,8.2c22.3,8.7,38.2,28.8,49.2,49.8c13.1,25.1,20.9,53.1,22.8,81.4
				c-1.8-12.8-8.2-24.5-14.4-35.8c-7.2-13-14.4-26.2-24.5-37.2c-17.4-19.1-41.5-30-63-44c-21.5-14.1-42.3-33.4-45.9-59
				C-150.4,820.2-133.5,833.4-114.2,839.7z"/>
			<path d="M-92.1,1078.6c-1.6,0.4-3.2,0.7-4.3,1.8c-3.2,2.9-1.2,8.2,1.3,11.6c3.8,4.9,8.6,8.9,14.1,11.6
				c-14.6-3.3-24.7-16-34.7-27.2s-23.2-22-38.1-20.2c5.5-4.2,12.5-6.4,19.3-6.1c-16.6-6.7-29.5-22.1-33-39.6
				c4.8,7.2,11.5,12.8,19.3,16.3c-7.6-12-13-25.6-14.1-39.6c-1.2-14.1,2.2-28.9,10.9-40.3c2.7-3.7,6-7,8.1-10.9
				c6.1-11.3,2.2-25.6-5-36.1c-1.6-2.2-3.5-4.5-6.1-5.3c-2.7-0.7-6.1,1-6.1,3.7c0.7-3.7,4.3-6.4,8.1-6.9c3.8-0.5,7.5,1,10.5,3.3
				c8.1,6,11.1,16.6,11.6,26.7c0.5,10-1.1,20.1-0.1,30.1c2,20.4,14.7,38.7,30.5,51.8c15.8,13.2,34.5,22.1,52.9,31.3
				c-27.7-2.6-54.7-11.9-78.2-26.8c8.7,12,21.7,20.4,35.6,25.6c13.9,5.1,28.8,7.2,43.6,8.2c-24.7,5.8-51.5,1.1-73-12.4
				c0.2,5.9,5.5,10.3,10.6,13.2c20.3,11.9,45.3,15.5,68.3,10c-23.7,8.9-50.7,9.5-74.8,1.6c2.7,8.7,12.2,13.3,21.2,15.3
				c17.9,4,37.2,1.1,53.2-7.8c-5.5,7.5-14.7,11.1-23.9,13S-83.1,1076.5-92.1,1078.6z"/>
			<path class="st0" d="M-159.3,804.2c-13.6,31.1-6.7,69.9,16.5,94.6"/>
			<path class="st0" d="M-25.2,992.8c1.5,6.2,0.9,13-1.8,18.8s-7.3,10.8-13,13.7"/>
			<path class="st0" d="M-19,999.7c-1,7.5-2.8,14.9-6.7,21.4c-4,6.4-10.5,11.5-18,12.5"/>
			<path class="st0" d="M-15.4,1012.3c-1.2,6.7-4.9,13-10.3,17.5c-5.3,4.4-12.1,7-19.1,7"/>
			<path class="st0" d="M-18.5,1030c0.1,0.1,0.1-0.1,0.1-0.1c-0.1,0-0.2,0.1-0.4,0.1c-2.4,3.2-4.8,6.6-7.8,9.2
				c-3.2,2.6-7.2,4.2-11.1,3.1"/>
			<path class="st0" d="M-21.4,1039.7c-4.8,6.2-13.1,9.5-20.9,8.3"/>
			<path class="st0" d="M-36.3,1051.9c3.9,2.4,9.4,2.1,13-1"/>
			<path class="st1" d="M-70.6,905.1c-2.7-6.6-9.3-10.9-16.2-13c-6.7-2.1-14.1-2.7-21-3.9c-7.1-1.3-14.1-3.5-20.7-6.6
				c-3.2-1.5-6.4-3.1-9.1-5.5c-4.8-4.2-7.6-10-10.3-15.7"/>
			<path class="st1" d="M-85.5,887.5c-6.9-3.8-14.9-4.2-22.8-5.8c-15.9-3.4-31.1-13.5-37.3-28.5"/>
			<path class="st1" d="M-96,880.7c-7-4-15.7-3.7-22.9-7.2c-6.9-3.3-11.5-9.8-16-16"/>
			<path class="st1" d="M-131.2,885.3c-5.4-1.3-9.5-5.5-12.8-10c-3.2-4.5-5.8-9.5-9.2-13.8"/>
			<path class="st1" d="M-137.3,888c-5.3-4.4-9.7-9.7-13.2-15.7"/>
			<path d="M-43.1,1116.1c-1.5,2.6-3.3,5.9-6.2,5.8c-2.3-0.1-4-2.4-4-4.9c-0.1-2.3,1-4.4,2.2-6.5c4.3-7.2,10.2-13.5,17.1-18.2
				c-7.6-0.6-12.8,6.7-18.4,12c-3.5,3.5-8.9,6.5-13.5,4.3c-3.8-1.8-5.1-6.9-3.8-10.8c1.3-3.9,4.9-6.7,8.7-8.4c3.8-1.7,8-2.4,12-3.4
				c5-1.2,10.2-2.9,14.1-6.4c4-3.4,6.6-8.7,5.5-13.8c-7.3,8.9-19.6,11.6-30.7,14.7s-23.1,8.2-27.5,18.8c-0.7,2-1.2,4.2-0.5,6
				c0.6,1.5,2,2.6,3.3,3.5c6.1,4.6,12.7,8.4,19.7,11.6c8.9,4,19.1,7.2,25.3,14.7c-1.2-10.5,2.1-21.4,8.9-29.6
				C-35.8,1107.5-40.3,1111.3-43.1,1116.1z"/>
			<path class="st0" d="M-25.4,1104.4c-4.3,4.6-6.2,11.3-5,17.4"/>
			<path d="M2.4,1116.7c-1.3,7.1-2.6,14.3-1.3,21.4c0.5,3.3,1.6,6.5,1.8,9.8c0.2,3.3-0.5,7-3.1,9.2c0.7-1.7,0.2-3.8-1-5.3
				s-2.9-2.4-4.6-3.2c-5.9-2.7-12.6-3.5-18.7-5.5c-6.1-2-12.5-5.5-15.3-11.3c-0.5-1.1-1-2.4-0.6-3.7c0.1-0.6,0.5-1.2,1-1.8
				c1.7-2.6,3.4-5.1,5-7.7c-0.1,3.2-0.1,6.6,1.5,9.3c1.8,3.3,5.8,4.9,9.3,6.1c3.2,1.2,6.6,2.2,9.9,2.2c3.4,0,7-1.1,9.2-3.7
				c1.3-1.6,2.1-3.5,2.9-5.4C-0.2,1123.6,1,1120.1,2.4,1116.7z"/>
			<path d="M-87.8,898.3c11.4,6.2,20.7,16.4,25.8,28.3c2.2,5,3.7,10.4,6.6,14.9c5.8,8.6,15.8,12.8,23.5,19.7
				c9.8,8.7,15.4,21.7,17.1,34.7c1.6,13.1-0.4,26.3-3.8,39.2c-1.8,6.9-4.2,13.7-4.6,20.8c-3.2-9.9,2.9-20.2,4.4-30.5
				c1.7-11.9-3.5-24.5-13.1-31.7c-1.2-0.9-2.4-1.7-3.3-2.9c-0.7-1.1-1.1-2.4-1.5-3.7c-2.8-8.8-9.4-16.6-18.2-19.8
				c-8.7-3.2-19.3-1.3-25.7,5.5c-6.4,6.7-7.3,18.2-1.6,25.4c-5.5-6.9-13.3-11.6-20.9-16c-7.6-4.4-15.7-8.7-21.7-15.2
				c-6.1-6.4-10.3-15.4-8.4-24.1c3.1,8.6,9.5,15.5,16.9,20.8c7.5,5.3,15.8,8.8,24.2,12.4c-18.7-14.7-31.6-36.7-34.9-60.3
				c6,12.6,14.1,24.2,23.7,34.3c-7.2-18.6-15.2-38.2-31.6-49.6c16.4,6.1,29.6,20.3,34.4,37.2c-0.2-20.7-15-38.9-32.8-49.6
				c22.8,7.6,41.6,26.1,49.8,48.6c0.4-8.9-3.2-17.9-8.3-25.3c-5.1-7.5-11.7-13.7-18.4-19.8c19.7,10,35.2,28,42.2,49.1
				C-68.2,924.6-75.6,908.8-87.8,898.3z"/>
		</g>
		<g>
			<path class="st5" d="M36.3,1014.4c-1.5-5.9,0.7-12,3.1-17.6c0.6-1.3,1.2-2.8,2.1-4c1-1.3,2.2-2.7,3.7-3.7
				c4.9-4,11.6-6.8,18.7-6.8c8.9,0.1,17,4.6,25.9,4.7c8.8,0.1,17.1-4.5,21-10.6c-2.1,2.4-6,3.4-9.7,3.8c-3.4,0.4-7,0.4-10.5,0
				c-4.9-0.6-9.7-1.6-14.6-2.5c-13.3-2.3-19.3-1.8-28,3.6c0.5-1.6,0-4.7-2-5.8c0,2.1-0.1,6.3-2,8c-1.2,1.1-2.2,2.1-3.4,3.2
				c-5.3,4.7-5.8,11.5-5.9,17.8C34.6,1007.1,35,1012,36.3,1014.4"/>
			<path class="st5" d="M-34.5,1015.1c1.5-5.9-0.7-12-3.1-17.6c-0.6-1.3-1.2-2.8-2.1-4c-1-1.3-2.2-2.7-3.7-3.7
				c-4.9-4-11.6-6.8-18.7-6.8c-8.9,0.1-17,4.6-25.9,4.7c-8.8,0.1-17.1-4.5-21-10.6c2.1,2.4,6,3.4,9.7,3.8c3.4,0.4,7,0.4,10.5,0
				c4.9-0.6,9.7-1.6,14.6-2.5c13.3-2.3,19.3-1.8,28,3.6c-0.5-1.6,0-4.7,2-5.8c0,2.1,0.1,6.3,2,8c1.2,1.1,2.2,2.1,3.4,3.2
				c5.3,4.7,5.8,11.5,5.9,17.8C-32.8,1007.8-33.2,1012.6-34.5,1015.1"/>
		</g>
	</g>
</g>
</svg>
